<svg width="322" xmlns="http://www.w3.org/2000/svg" height="251" xmlns:xlink="http://www.w3.org/1999/xlink">
<g>
<g id="layer1">
<g style="stroke:#000;stroke-width:2;fill:#fff">
<g style="stroke-linejoin:round">
<path id="path3982" d="m 178.2782,.0428 c -13.446,0.456329 -26.9091,0.864319 -40.3006,2.22998 -7.50085,0.807587 -14.9827,1.85947 -22.3483,3.51312 -8.15167,1.71463 -16.224,3.81876 -24.1799,6.28604 -3.40137,1.22623 -7.27701,2.07165 -9.65527,5.03299 -2.63583,3.12973 -3.64514,7.1889 -5.24442,10.8714 -3.57422,9.26001 -6.48294,15.6454 -7.85608,25.5241 -0.328278,0.608307 3.73035,2.69269 3.74741,4.06168 0.017212,1.38208 -4.72732,2.01321 -4.81241,2.62027 -1.14523,8.16989 -2.04648,16.3726 -3.19823,24.5419 -2.68736,20.2879 -5.20566,40.5993 -8.13263,60.8546 -1.25807,8.5744 -2.11172,18.3773 -3.37793,26.9436 -0.138077,0.934204 4.32289,0.729065 8.39328,2.50281 1.57164,0.684875 -4.33177,-1.43957 -2.22278,2.34009 -1.83147,1.64746 -6.95396,0.262939 -7.04251,0.727478 -0.642776,3.37213 -2.37515,5.49078 -3.05089,8.8562 -1.55627,7.2533 -3.04207,14.5583 -5.53995,21.559 -0.993851,2.51001 -2.10675,5.07928 -3.97957,7.06305 -1.09148,0.971191 -2.58049,1.13995 -3.98048,1.03418 -3.59311,-0.174683 -7.16061,-0.732971 -10.7127,-1.28326 -7.08754,-1.15851 -14.028,-3.02789 -21.0373,-4.56049 -1.35425,-0.284119 -2.71403,0.586914 -3.09375,1.90625 -0.653183,1.97388 0.438171,3.89606 0.768478,5.81903 1.37999,5.49353 2.97914,10.9728 5.45027,16.0872 2.33026,3.32513 6.46448,4.77429 10.3681,5.091 7.98608,1.32782 16.0558,2.03919 24.0891,3.01099 14.1254,1.5636 28.291,2.78149 42.4839,3.52759 10.5443,0.547607 21.0959,0.948486 31.642,1.45978 21.5042,0.949829 43.0141,1.79419 64.5305,2.41351 14.4041,0.364563 28.8216,0.443787 43.2202,-0.170776 4.54672,-0.208984 9.1077,-0.564575 13.5902,-1.35681 4.62009,-1.36145 8.29498,-4.77722 11.2695,-8.4364 4.89212,-5.95892 8.66304,-17.9313 10.8816,-25.2278 0.543823,-1.8349 -4.18718,-2.1947 -5.15028,-2.83923 -2.75391,-1.84308 6.21342,-1.7168 6.39784,-2.3974 2.53845,-9.36969 4.61746,-16.5148 6.71256,-25.9955 0.210358,-0.951904 -3.66717,-4.54352 -2.76373,-4.90961 1.92233,-0.778931 3.5734,0.406006 4.15619,-2.24701 3.05759,-14.1819 7.12424,-32.0289 9.39969,-46.3621 1.28537,-8.12384 2.30344,-16.2952 2.92258,-24.4977 -2.50406,-2.25366 -2.89456,-0.688232 -6.12054,-1.4375 2.24951,-4.96637 -6.98184,-3.06659 -6.86133,-4.81683 0.084167,-1.22272 7.34128,-2.13306 7.8569,-2.26355 1.07196,-0.290222 7.15454,-1.31665 7.22018,-2.53699 1.57327,-8.19565 4.19559,-16.1464 6.1583,-24.2524 1.09992,-4.75455 1.69067,-9.60605 2.04871,-14.468 0.478821,-4.24966 0.923187,-8.60608 2.72906,-12.5371 1.42194,-1.97894 4.1994,-2.32162 6.37497,-1.5625 5.09378,1.25 10.1875,2.5 15.2813,3.75 2.44598,-0.108856 4.10593,-2.37619 4.78122,-4.53125 2.03516,-7.24838 2.24762,-15.1917 -0.468597,-22.2965 -1.32806,-3.9458 -4.51929,-7.14893 -8.40637,-8.60974 -4.21832,-1.65906 -8.82394,-1.63055 -13.2435,-2.36371 -13.0696,-1.76279 -26.1747,-3.30359 -39.3245,-4.32678 -14.9311,-1.06924 -29.8641,-2.17694 -44.8283,-2.66794 -11.0499,-0.459747 -22.1104,-0.691803 -33.1692,-0.715576 -0.79068,0.014313 -1.58139,0.028503 -2.37207,0.042725 v 3.1e-05 z  m 81.375,98.8438 c 0.023865,0.331787 -0.168884,-0.332581 0,0 z "/>
<path id="path3661" d="m 293.6532,11.449 l -26.4375,22.8438 48.5625,8.2188 c 2.99615,-5.29275 4.1568,-15.6073 1.03125,-22.9062 l -11.625,-1.6562 9.9375,-1.3125 c -2.04938,-2.88638 -5.07672,-4.89114 -9.34375,-5.1875 h -12.125 z "/>
<path id="path3659" d="m 179.4347,2.4492 c -17.893,0.76001 -35.857,1.39902 -53.552,4.36099 -10.684,1.68201 -21.258,4.013 -31.738,6.67502 -2.85599,0.872009 -5.84799,1.43799 -8.51599,2.819 -3.21298,2.06299 -4.655,5.81601 -5.827,9.27701 -1.724,5.086 -2.784,10.365 -4.30399,15.512 -1.13602,4.29599 -2.27103,8.591 -3.40701,12.887 1.81299,2.50601 6.19101,2.853 9.15601,3.71899 -0.964996,2.11301 -4.45599,1.47601 -6.59302,1.65601 0.065002,1.17401 2.69202,2.60199 3.57501,2.98001 -3.495,1.05499 -5,-0.14502 -7.07501,-0.355011 -1.09799,0.190002 -0.941986,1.56699 -1,2.40601 -1.396,11.146 -2.67499,22.305 -3.85998,33.475 -0.833008,8.12903 -1.91501,16.242 -3.649,24.233 -1.715,8.79297 -3.742,17.573 -4.304,26.538 0.322006,2.742 3.491,1.91205 4.938,3.66101 -0.858002,2.13098 -3.438,0.880981 -5.063,2.18701 -0.494003,1.45099 -0.384995,3.03198 -0.578995,4.54102 -0.297012,4.25299 -0.830002,8.48401 -1.39,12.709 4.55699,0.856995 9.04199,2.047 13.5,3.31299 -0.960999,2.17902 -4.651,1.60998 -6.968,1.90601 1.021,0.86499 0.207001,1.64703 2.98698,4.052 -2.21999,0.528992 -8.67999,-0.835999 -10.925,-0.48999 -1.026,0.362 -0.617996,1.70001 -1.045,2.48999 -1.256,12.357 -10.364,15.614 0.951004,18.26 -1.927,0.833984 -4.17001,0.453979 -6,1.53198 -0.437012,1.09003 -0.559006,2.27704 -0.990005,3.37201 -1.354,4.95599 -2.631,10.218 -6.15801,14.143 -4.754,5.69598 -11.105,10.34 -18.438,11.966 -0.785004,0.356995 -2.48401,0.164001 -2.72601,0.768982 0.891998,0.338013 1.89801,-0.007996 2.828,0.221985 69.547,4.43604 139.094,8.87201 208.641,13.309 5.37601,-0.158997 10.254,-3.39099 13.416,-7.59698 5.11099,-6.10901 8.11798,-13.662 10.177,-21.278 0.22998,-0.877991 0.899979,-2.09198 -0.076019,-2.74402 -1.31497,-0.917969 -3.03098,-0.648987 -4.51599,-1.086 -1.76199,0.147034 -4.35998,-1.26898 -4.383,-1.28497 1.202,-0.166992 3.008,-1.48798 4.13199,-1.948 -2.091,-1.14002 -3.319,-0.349976 -4.59399,-2.06201 3.172,-0.387024 6.349,0.234009 9.52499,0.237976 0.986984,0.317017 2.179,-0.057983 1.99004,-1.30499 1.29495,-8.65997 3.68298,-17.1 5.89096,-25.558 -1.63501,-3.03796 -5.64499,-4.72302 -8.562,-6.65601 3.62599,-0.537964 7.23201,0.122009 9.59303,0.906006 2.93497,-13.816 6.26996,-27.55 8.798,-41.45 1.754,-9.22998 3.53299,-18.455 5.17096,-27.706 -3.621,-0.791016 -7.38101,-0.325012 -10.969,-1.375 -0.627045,-0.800964 7.43298,-3.00696 5.92596,-3.258 -3.25299,-1.14801 -12.996,-1.93896 -16.394,-2.617 2.49503,-1.41498 7.20105,-0.994995 10.5,-1.375 -1.487,-1.36401 -2.134,-1.72998 -4.84399,-3.15698 3.61505,-0.117981 5.10001,0.125977 7.09,-0.01001 3.96405,-0.301025 6.81702,-1.76599 10.785,-1.33301 2.87705,-15.233 6.08405,-30.401 9.23599,-45.578 0.919006,-4.521 1.45206,-9.11099 1.74304,-13.713 0.345978,-4.33099 0.469971,-8.72299 1.315,-12.981 0.609955,-2.56699 1.72601,-5.04498 3.47797,-7.07898 1.33203,-1.466 2.952,-2.76102 4.94702,-3.14902 -0.875,-0.181 -1.83301,-0.164001 -2.73798,-0.329987 -6.17505,-0.812988 -12.311,-1.89899 -18.502,-2.59601 -8.39798,-0.934998 -16.805,-1.80298 -25.216,-2.61899 -15.907,-1.508 -31.859,-2.53799 -47.828,-3.091 -8.393,-0.287994 -16.792,-0.351013 -25.19,-0.346008 -0.789978,0.003998 -1.57999,0.007996 -2.36999,0.013 z "/>
</g>
<g id="g4032">
<path id="path3803" d="m 198.6299,76.4037 c -4.56,0.69799 -8.55298,3.83798 -11.83,7.48099 -1.62201,1.79598 -3.26199,4.00701 -5.60599,4.33898 -2.93301,0.156982 -5.42603,-1.923 -7.99902,-3.24799 -3.711,-1.77599 -7.79099,-1.091 -11.689,-1.423 -2.633,-0.161995 -5.176,-1.038 -7.707,-1.83301 -5.194,-1.45301 -10.8,-1.94299 -15.908,0.214012 -1.91699,0.957977 -3.57599,3.16998 -3.423,5.74 0.032013,1.79498 0.638,3.549 1.62701,4.90801 -0.857025,1.11097 -2.26502,1.08496 -3.29401,1.87299 -7.203,3.60101 -14.697,6.29199 -22.15,9.06 -5.36902,2.38397 -10.123,6.60699 -13.56,12.012 -4.08798,5.69903 -7.82599,11.921 -10.007,18.9741 -0.901001,4.12299 0.600006,8.72498 3.505,11.2209 1.80399,1.78601 4.06799,2.75 5.987,4.31702 0.70401,0.992981 0.209991,2.33502 -0.165009,3.35901 -0.345978,1.25501 0.097015,2.72198 1.09,3.36798 1.95102,1.87701 4.38303,2.82202 6.66901,3.97302 6.41602,2.66101 13.601,3.268 20.118,0.739014 3.29898,-1.51404 6.073,-4.69403 7.26199,-8.64099 1.353,-1.45502 3.482,-0.83905 4.758,0.432983 1.99802,1.77197 3.34,4.43396 4.332,7.04498 0.421997,0.948975 -0.316986,1.82397 -0.869995,2.41003 -1.03201,1.026 -2.426,1.17999 -3.71899,1.24194 -7.328,1.13904 -14.377,5.42303 -19.037,12.242 -0.835999,0.949036 -1.01199,2.57202 -0.302979,3.68304 0.655975,1.28699 1.89798,1.87097 3.073,2.22498 7.64398,3.612 14.939,8.33899 22.93,10.86 4.418,0.611023 9.004,-0.536987 13.3,1.17902 4.84601,1.578 9.776,3.47302 14.872,3.026 2.83701,-0.198975 5.828,-1.849 7.10101,-4.979 1.121,-3.27301 0.218994,-7.01001 -1.34402,-9.86298 -0.934998,-1.67102 -1.38699,-4.20905 -0.09198,-5.79803 1.45898,-1.91797 3.79599,-1.992 5.815,-2.25696 9.53198,-1.51202 18.75,-4.92902 28.251,-6.643 6.11301,-1.276 12.157,-3.50403 17.46,-7.37305 4.276,-2.98395 8.27799,-6.75299 11.091,-11.628 1.56699,-3.02899 2.39398,-6.91998 1.23898,-10.326 -1.13901,-3.60101 -3.742,-6.09802 -6.08899,-8.59601 -1.20102,-1.51502 -1.573,-3.786 -1.04401,-5.74396 0.529999,-3.71802 0.800995,-7.48206 1.29501,-11.204 0.429993,-2.65301 1.62997,-5.02801 3.09998,-7.065 1.353,-2.049 2.677,-4.573 2.24402,-7.27997 -0.507019,-3.01501 -3.08701,-5.12799 -5.642,-5.04901 -1.24902,0.062019 -2.49301,0.013985 -3.73901,-0.114014 -9.272,-0.63501 -18.545,-1.28796 -27.806,-2.13397 -0.334991,-1.46002 0.820007,-2.57904 1.018,-3.94202 0.945007,-2.599 1.26502,-5.86002 -0.134003,-8.323 -1.18799,-1.698 -3.12399,-2.62201 -4.98001,-2.45998 z "/>
<path id="path3795" d="m 199.2612,81.7689 c 0.697968,1.01188 -0.020203,2.4228 -0.86972,2.92636 -2.25806,2.76255 -2.97644,7.45383 -1.03803,10.6928 1.81723,2.52795 4.84982,3.21465 7.53494,2.91589 10.198,-0.590752 20.4502,-1.25964 30.634,-0.026978 1.26318,0.379517 1.35123,2.68542 0.242981,3.37605 -2.3364,1.97711 -4.68027,4.34954 -5.58096,7.68688 -0.424103,1.85889 -0.768463,3.74518 -1.20615,5.6029 -1.02069,4.72651 -1.98993,9.53333 -2.04568,14.4323 0.315857,3.19397 2.37146,5.60724 4.37466,7.55933 1.91303,1.84753 4.01602,3.95349 4.48648,6.96826 0.238708,3.12122 -1.53647,5.90137 -3.58545,7.64844 -3.37097,2.98969 -7.59183,4.02795 -11.6252,5.08771 -7.23328,2.02893 -13.7717,6.40082 -20.8449,8.99115 -4.1965,1.52673 -8.58231,2.21289 -12.9666,2.31067 -3.39264,0.140015 -6.81097,-0.022583 -10.1786,0.551453 -3.15747,0.654114 -6.35879,2.68909 -7.75742,6.23383 -1.63785,3.88983 -0.925873,8.81396 1.48297,12.0429 0.755737,1.15967 1.76138,2.11658 2.4696,3.28979 0.188354,1.34662 -1.28757,2.2536 -2.22424,1.62366 -3.8605,-0.670288 -7.43561,-2.61969 -11.1478,-3.9397 -3.53577,-1.4223 -7.39407,-2.45563 -11.0999,-1.33435 -2.51141,0.654968 -5.16336,1.71295 -7.7258,0.800415 -4.95233,-2.20184 -9.1579,-6.38953 -14.3647,-7.85645 -1.67056,-0.620178 -3.34186,-1.23761 -5.01373,-1.8529 4.51575,-5.31403 10.4259,-8.72504 16.5341,-10.7034 2.0516,-0.595276 4.39871,-0.923523 5.87174,-2.88727 1.67023,-2.31726 1.29327,-5.9978 -0.382782,-8.17792 -2.76712,-4.08234 -5.83716,-8.13489 -9.8663,-10.5431 -2.19321,-1.23035 -5.11649,-1.37659 -7.00861,0.64917 -1.87891,2.25824 -1.0491,5.97455 -2.88474,8.26819 -1.82373,2.37982 -4.69147,3.03754 -7.30276,3.03986 -4.09601,0.005005 -8.09869,-1.32452 -11.9059,-3.00446 -0.607544,-2.00818 0.893768,-3.99402 0.267059,-6.00519 -0.517273,-3.30524 -3.0509,-5.73975 -5.75324,-6.43701 -2.16773,-0.876221 -4.68155,-1.27521 -6.26892,-3.42212 -1.1749,-2.23206 -0.360107,-5.1662 1.10217,-6.92731 5.83377,-8.96832 13.2273,-16.4748 21.4827,-22.2103 4.21582,-3.03162 8.65128,-5.78236 13.4731,-7.19868 4.08801,-1.29895 8.27881,-2.11321 12.3564,-3.45319 2.2178,-1.03869 3.70077,-4.29828 2.65268,-6.96625 -0.620789,-1.65106 -1.763,-2.89849 -2.8403,-4.13867 -0.123169,-0.816277 0.804504,-0.840332 1.2731,-0.908501 4.76889,-1.06952 9.68292,-0.185493 14.2706,1.49645 2.04208,0.650696 4.02176,1.76819 6.18069,1.70667 2.8269,0.055481 5.77563,-0.714417 8.48874,0.576904 2.94031,1.26532 5.65036,3.47052 8.8512,3.73859 3.46707,0.375984 6.72275,-1.67127 9.38382,-4.09161 3.02792,-2.76653 5.6106,-6.42773 9.30988,-7.99991 0.240967,-0.053398 0.545258,-0.349457 0.764832,-0.131378 z "/>
<path id="path3797" d="m 187.2366,117.7825 c 2.17841,2.9903 3.87854,6.02277 5.08112,9.10731 -2.27277,1.94927 -4.98389,3.46404 -8.27676,4.40392 l 2.9484,4.4362 c 1.79739,-2.96643 3.72263,-5.50946 5.77908,-7.59851 1.10288,3.2063 1.66812,6.46234 1.61762,9.78003 l 4.5178,-2.2224 c -2.15128,-2.48883 -3.96841,-5.23926 -5.23752,-8.43176 2.59567,-2.42377 5.3989,-4.1413 8.43317,-5.07947 l -2.9484,-4.4362 c -1.59186,3.14911 -3.50278,5.99146 -5.9303,8.31587 -1.04614,-3.05823 -1.59436,-6.50519 -1.4664,-10.4974 l -4.5178,2.2223 z "/>
<path style="stroke-dasharray:4,4" id="path3799" d="m 135.3257,148.7496 c -2.56503,-14.3384 -6.89352,-23.9603 0.641266,-28.6769 7.53479,-4.71655 15.0696,-19.8097 21.8028,-18.489 6.73325,1.32061 5.45071,16.7911 10.9014,21.6963 5.45068,4.90527 24.0472,3.5846 24.0472,3.5846"/>
</g>
<g style="stroke-linejoin:round">
<path style="opacity:.3;stroke-dasharray:9.6,9.6" id="path4003" d="m 51.4264,195.1278 c 63.1647,-0.668335 133.789,3.99695 207.586,0.505066 m -199.5863,-40.5051 c 63.1647,-0.668335 133.789,3.99695 207.586,0.505066 m -199.5863,-40.5051 c 63.8274,-5.30676 134.474,-0.792175 207.586,0.505066 m -201.5863,-40.5051 c 63.8274,-5.30679 135.989,-4.3277 209.102,-3.03046 m -203.1015,-36.9695 c 68.8554,-13.6869 138.921,-9.2153 209.102,-3.03046 m -193.5431,-18.6878 c -12.6269,24.2437 -32.4982,179.108 -35.3553,188.393 -8.08121,26.264 -26.264,37.3756 -26.264,37.3756 m 222.6294,-230.8199 c -12.6269,24.2437 -36.5388,183.653 -39.3959,192.939 -8.08121,26.264 -23.2335,37.8807 -23.2335,37.8807 m 23.1346,-234.3554 c -12.6269,24.2437 -37.0439,187.189 -39.901,196.475 -8.08121,26.264 -23.2335,37.8807 -23.2335,37.8807 m 24.1447,-235.3655 c -12.6269,24.2437 -38.054,188.199 -40.9112,197.485 -8.08121,26.264 -23.2335,37.8807 -23.2335,37.8807 m -75.9391,-4.0508 c 63.1647,-0.668274 133.789,3.99701 207.586,0.505127 m -107.5026,-230.3046 c -12.6269,24.2437 -38.054,186.684 -40.9112,195.97 -8.08121,26.264 -23.2335,37.8807 -23.2335,37.8807"/>
<path id="path3663" d="m 3.6532,213.7928 c -0.811508,0.860168 -0.247116,2.18713 -0.3125,3.25 0.233307,1.26337 -0.136093,2.98901 1.21875,3.71875 1.1304,0.68396 2.48795,0.729431 3.75,1 0.817444,-0.466675 1.84859,1.13434 0.65625,1.28125 -1.48192,0.239136 -3.02951,0.412048 -4.40625,1.0625 -0.91655,1.18964 0.316254,2.54462 0.204056,3.83832 -0.018311,1.16077 1.45781,1.57147 1.49747,2.65643 0.047104,1.008 0.053696,2.13025 0.865143,2.85754 1.83038,2.47998 5.06143,3.15826 7.9601,3.40131 11.5124,1.37341 23.041,2.61298 34.5752,3.78503 12.983,1.20697 25.992,2.09589 39.0011,2.96552 21.4136,1.4502 42.8686,2.14258 64.3154,2.88898 25.8646,0.685547 51.7401,0.85437 77.6128,0.731873 -3.60467,-2.43933 -5.77728,-6.44104 -7.01672,-10.5203 -0.689514,-2.11334 -1.15149,-4.28955 -1.67078,-6.44842 -1.83704,-0.935425 -3.9667,-0.419739 -5.92706,-0.809021 -8.6506,-0.722595 -17.3677,-0.765503 -26.0104,0.090271 -8.58652,0.606445 -17.1971,0.583313 -25.7998,0.617737 -4.13928,-0.002991 -8.27918,0.237671 -12.4142,-0.059814 -3.82425,-0.048157 -7.61938,-0.607483 -11.418,-1.00903 -5.90173,-0.695129 -11.8212,-1.24286 -17.7606,-1.47809 -8.61087,-0.478394 -17.2202,-0.99231 -25.8239,-1.5791 -9.70019,-0.508362 -19.4198,-0.673767 -29.1056,-1.43213 -8.33958,-0.650757 -16.5787,-2.13379 -24.8596,-3.26367 -7.62604,-1.13379 -15.2998,-1.98749 -22.8543,-3.55701 -5.24632,-1.05005 -10.4813,-2.24609 -15.5679,-3.90826 -0.209015,-0.127197 -0.476257,-0.143799 -0.708588,-0.080627 z "/>
</g>
<path id="path4101" d="m 127.3862,11.2812 a 0.9682,0.9682 0 0,0 -0.78125,0.59375 l -4.6562,11.375 c -5.42837,1.23578 -10.6916,4.19113 -15.25,8.3125 l -2.7188,-1.6875 a 0.9682,0.9682 0 0,0 -1.4375,1.09375 l 1.0625,3.6875 c -4.26684,4.70343 -7.6444,10.4044 -9.53125,16.5625 l -10.1875,3.5625 a 0.9682,0.9682 0 0,0 1.875,0 8.625,1.53125 0 0,5 0.395821,10.8948 2.71875,14.9062 0 -2,4 0,0.9682 0.9682,0 0 1,1 0,3.71875 -2.4375,0 0 0,1 1.19617,1.71875 1.71875,0 0 0,0 0.005898,0.004791 0.025352,-0.004791 0 0,0 -0.012878,-0.008606 -0.072258,-0.052399 0 0,0 0.294212,0.236725 0.588623,0.455353 0 0,0 0.614403,0.429779 1.25792,0.839874 1 1,0 0.319908,0.164124 0.658798,0.308868 1 0,0 0.9682,0.9682 0,0 0 0,0 0.146263,0.06012 0.134354,0.026245 0 0,0 1.35254,0.560333 2.79967,1.00143 4 1,0 0.279114,0.038696 0.290161,0.035889 0 0,0 0.549614,0.076416 1.13802,0.092499 1 0,0 -0.125,10.375 0.9682,0.9682 0 0,1 0.375,0 4.65625,-11.375 0 5,-1 10.6912,-4.19132 15.25,-8.3125 0 2,1 0,0.9682 0.9682,0 0 1,-1 0,-1.0625 -3.71875,0 4 -4,7 -10.4073,9.5625 -16.5625,0 10 -3,0 0.9682,0.9682 0,0 0 0,-1 0,-8.5625 -1.5,0 0 0,0 -0.492645,0.0625 -0.71875,0 0 0,0 -0.025848,0 -0.03125,0 0 0,0 -0.020386,0 -0.03125,0 0 -1,0 -3.73526,-0.0625 -5.46875,0 0 0,0 0.163361,0 -0.03125,0 0 0,0 -0.851746,-0.15625 -0.03125,0 0 0,0 -0.828003,-0.25 -1.25,0 0 -1,0 -2.4086,-1.0625 -0.03125,0 0 0,0 -0.716187,-0.5 -1.03125,0 0 0,0 0.181671,0.093704 0.25,0 0 0,0 0.113281,0 0.15625,0 0 0,0 0.127869,0 0.125,0 0 0,0 -0.202057,-0.093704 -0.53125,0 0 0,0 -0.023529,0 -0.03125,0 0 0,0 -0.009888,0 -0.03125,0 0 0,0 -0.575226,-0.4375 -0.84375,0 0 0,0 -0.019836,0 -0.03125,0 0 0,0 -0.096558,-0.0625 -0.125,0 0 0,0 -0.031158,0 -0.031204,0 0 0,0 0,0 0,-0.03125 0 0,0 -0.162842,-0.267914 -0.25,-0.40625 0 2,-4 0,0.9682 0.9682,0 0 0,-1 -1.34375,0 -3.7188,2.40625 0 -2,-3 -7.09267,-5.17987 -11.9688,-5.4375 0 0,-10 0,0.9682 0.9682,0 0 0,-1 -0.96875,0 m .9375,18.3125 c 0.173035,0.029114 0.360687,0.027191 0.53125,0.0625 0.277817,0.057373 0.543213,0.144989 0.8125,0.21875 0.009995,0.002716 0.021606,-0.002716 0.031204,0 0.019897,0.004913 0.013397,-0.00351 0.031189,0 0.017914,0.00351 0.015305,-0.002411 0.031204,0 0.228638,0.065277 0.46907,0.151733 0.75,0.25 0.830704,0.289093 1.5862,0.643524 2.28125,1.0625 0.183014,0.110077 0.382202,0.245819 0.65625,0.4375 0.24382,0.170166 0.48056,0.332672 0.6875,0.5 0.0121,0.009796 0.019302,0.021545 0.031204,0.03125 l -5.9061,3.8438 .0625,-6.4062 z  m -9.5,1.3438 l -2.6562,6.5312 -4.2188,-2.625 c 2.18552,-1.68784 4.49393,-2.98306 6.875,-3.90625 z  m 19.2188,7.125 c 0.753143,2.04877 1.14831,4.3692 1.09375,6.96875 l -5.1562,-.9062 4.0625,-6.0625 z  m -32.5,3.3438 l 1.5312,5.3125 -5.7812,1.9688 c 1.11542,-2.59616 2.55271,-5.0311 4.25,-7.28125 z  m 31.1562,14.2188 c -1.11543,2.60819 -2.54906,5.05512 -4.25,7.3125 l -1.5312,-5.3125 5.7812,-2 z  m -69,-10.5625 l 5.1875,.9062 -4.1875,6.25 c -0.069038,-0.168549 -0.17038,-0.35611 -0.21875,-0.5 -0.005302,-0.018829 0.006699,-0.010986 0,-0.03125 -0.097641,-0.292084 -0.172302,-0.56131 -0.25,-0.84375 -0.004601,-0.020203 0.006203,-0.008911 0,-0.03125 -0.089333,-0.326843 -0.187622,-0.648499 -0.25,-0.9375 -0.317207,-1.4657 -0.322327,-3.12009 -0.28125,-4.8125 z  m 22.9688,7.5625 l 4.2188,2.625 c -2.18838,1.69504 -4.49421,3.00803 -6.875,3.9375 l 2.6562,-6.5625 z  m -12.0938,1.4688 l -.0625,6.2812 c -2.20373,-0.378235 -4.09822,-1.24457 -5.6875,-2.53125 l 5.75,-3.75 z "/>
</g>
<g style="stroke-width:1.555" id="g4086">
<g style="stroke:#000;fill:#fff;stroke-width:2">
<g style="stroke-linejoin:round" id="g5159">
<path id="path5127" d="m 125.0806,23.6629 c -13.7235,1.39464 -27.5693,15.2867 -30.9288,31.0269 -3.35947,15.7402 5.03882,27.3718 18.7623,25.9771 13.7235,-1.39464 27.5739,-15.2872 30.9334,-31.0274 3.35947,-15.7402 -5.0434,-27.3713 -18.7669,-25.9767 z  m -1.0308,4.8299 c 11.3971,-1.15822 18.3767,8.50271 15.5867,21.5747 -2.78998,13.072 -14.2932,24.6061 -25.6903,25.7643 -11.3971,1.15823 -18.3732,-8.49793 -15.5832,-21.57 2.78999,-13.072 14.2898,-24.6109 25.6869,-25.7691 z "/>
<path id="path5140" d="m 140.8594,30.2116 l -1.7587,1.764 c 3.13234,4.32359 4.30003,10.619 2.75319,17.8665 -3.08972,14.4764 -15.8292,27.2505 -28.4507,28.5331 -6.31773,0.642036 -11.4077,-1.71751 -14.53,-6.04973 l -1.753,1.7583 c 3.39489,4.71115 8.92407,7.28125 15.7939,6.58312 13.7235,-1.39464 27.5739,-15.2872 30.9334,-31.0274 1.68144,-7.87813 0.415726,-14.727 -2.98801,-19.4279 z "/>
<path id="path5153" d="m 98.8981,72.3525 l 1.9465,-1.9524 c -2.82806,-3.90415 -3.87884,-9.59542 -2.48214,-16.1394 2.78999,-13.072 14.2932,-24.6061 25.6903,-25.7643 5.70556,-0.579823 10.3013,1.55154 13.1207,5.46443 l 1.9522,-1.9581 c -3.12234,-4.33222 -8.21231,-6.69176 -14.53,-6.04973 -12.6215,1.28265 -25.361,14.0568 -28.4507,28.5331 -1.54684,7.24752 -0.379143,13.5429 2.75318,17.8665 z "/>
</g>
<g id="g5172">
<path id="path5174" d="m 125.1032,55.6931 l -8.0844,-11.1902 27.5458,-17.98 -19.4614,29.1702 z "/>
<path id="path5176" d="m 144.561,26.5215 l -23.5034,23.5749 4.0433,5.5967 19.4601,-29.1715 z "/>
</g>
<g id="g5178">
<path id="path5180" d="m 120.9839,59.8249 l -8.0844,-11.1902 -19.4614,29.1702 27.5458,-17.98 z "/>
<path id="path5182" d="m 93.4376,77.8005 l 23.5034,-23.5749 4.0433,5.5967 -27.5467,17.9782 z "/>
</g>
<g id="g5184">
<path id="path5186" d="m 126.9137,47.2105 l -13.3255,13.366 20.9221,13.0545 -7.5966,-26.4205 z "/>
<path id="path5188" d="m 134.5059,73.6331 l -14.2592,-19.7373 6.6646,-6.6848 7.5947,26.4221 z "/>
</g>
<g id="g4078">
<path id="path5060" d="m 119.5016,60.6067 l 3.706,-17.3639 30.5874,5.3852 -34.2934,11.9786 z "/>
<path id="path5062" d="m 153.7938,48.6237 l -32.44,3.2967 -1.8535,8.6843 34.2935,-11.981 z "/>
</g>
<g id="g4074">
<path id="path5068" d="m 125.9948,54.0937 l -15.139,1.5385 -.3718,36.4385 15.5108,-37.977 z "/>
<path id="path5070" d="m 110.4806,92.0686 l 7.9412,-37.2073 7.5716,-.7695 -15.5129,37.9768 z "/>
</g>
<g id="g5190">
<path id="path5192" d="m 124.4146,43.7513 l -13.3255,13.366 -7.5966,-26.4205 20.9221,13.0545 z "/>
<path id="path5194" d="m 103.49,30.7015 l 14.2592,19.7373 6.6646,-6.6848 -20.9238,-13.0524 z "/>
</g>
<g id="g5168">
<path id="path2816" d="m 127.147,48.6956 l -15.1391,1.5385 15.5108,-37.977 -.3718,36.4385 z "/>
<path id="path3613" d="m 127.5143,12.2599 l -7.9412,37.2074 7.5716,-.7695 .3696,-36.4379 z "/>
</g>
<g id="g4082">
<path id="path5074" d="m 114.7952,61.0849 l 3.706,-17.3639 -34.2933,11.9786 30.5873,5.3852 z "/>
<path id="path5076" d="m 84.2109,55.695 l 32.44,-3.2967 -1.8535,8.6843 -30.5865,-5.3877 z "/>
</g>
<g style="stroke-linejoin:round">
<g id="g5122">
<rect width="102.85714" x="-1302.653217" y="-1739.630321" height="102.85714" id="rect5084" transform="matrix(0.2036462482820652,-0.020695347931817997,-0.0498520568928852,0.2335737679664028,289.64629279483546,420.58919702311164) "/>
<path id="rect5088" d="m 132.0365,39.0874 l -5.1276,24.0247 -20.9465,2.1287 26.0741,-26.1534 z "/>
<rect width="80" x="-1291.224637" y="-1728.201751" height="80" id="rect5086" transform="matrix(0.2036462482820652,-0.020695347931817997,-0.0498520568928852,0.2335737679664028,289.64629279483546,420.58919702311164) "/>
</g>
<g id="g5097">
<rect width="102.85714" x="307.508842" y="-2445.425204" height="102.85714" id="rect5091" transform="matrix(0.15817179437483536,-0.15865274327276047,0.09596081339502954,0.13282676914858715,291.95551930547,427.0973301019453) "/>
<path id="path5093" d="m 122.1989,37.1737 l 9.8702,13.6622 -16.2691,16.3186 6.3988,-29.9807 z "/>
<rect width="80" x="318.937422" y="-2433.996634" height="80" id="rect5095" transform="matrix(0.15817179437483536,-0.15865274327276047,0.09596081339502954,0.13282676914858715,291.95551930547,427.0973301019453) "/>
</g>
<path id="path5109" d="m 124.7036,51.4802 c -0.77356,3.62439 -3.96233,6.82286 -7.12234,7.14399 -3.16,0.321129 -5.09459,-2.35668 -4.32103,-5.98107 0.77356,-3.62439 3.96233,-6.82286 7.12234,-7.14399 3.04971,-0.309925 4.97784,2.17815 4.38343,5.65635"/>
<path id="path5115" d="m 124.0798,47.0983 l -10.0646,10.1005 c 0.786621,1.02609 2.03067,1.58441 3.56728,1.42825 3.16,-0.321133 6.34942,-3.52027 7.12297,-7.14463 l .058,-.325 c 0.279198,-1.63368 0.00502,-3.04958 -0.683647,-4.05908 z "/>
<path id="path5111" d="m 123.109,51.6423 c -0.557976,2.6143 -2.85807,4.92139 -5.13742,5.15302 -2.27933,0.231636 -3.67477,-1.6999 -3.1168,-4.3142 0.557976,-2.6143 2.85808,-4.92139 5.13741,-5.15302 2.19979,-0.223553 3.5906,1.5711 3.16183,4.07997"/>
</g>
</g>
</g>
<path style="fill:#fff;stroke:#000;stroke-width:2" id="path3704" d="m 209.7657,199.2033 c -1.34198,0.010986 -2.67798,0.427002 -3.82498,1.11896 -0.881012,0.40802 -1.51599,1.13904 -2.099,1.88904 -0.436005,0.391968 -0.428009,1.12201 -0.115997,1.586 0.431976,0.407959 1.10098,0.412964 1.655,0.279968 0.515991,0.023987 1.06998,-0.197998 1.633,0.02301 0.80899,0.237976 1.577,0.716003 1.936,1.51599 0.338989,0.582031 0.519989,1.34698 0.092987,1.93604 -0.286987,0.460999 -0.710999,0.972961 -1.09601,1.25897 -1.52799,1.21002 -3.435,1.73602 -5.224,2.42499 -0.548981,0.202026 -1.81598,-0.080994 -1.77298,0.77002 0.436981,0.775024 1.36798,0.070984 2.02899,0.093018 1.21701,-0.182007 2.46799,-0.341003 3.61499,-0.81604 0.44101,-0.161987 0.869019,-0.354004 1.28302,-0.583008 l 1.562,2.472 .513,-.327 -1.982,-2.192 c 0.769989,-0.438965 1.47101,-0.990967 2.02899,-1.67896 l 2.262,4.175 .513,-.28 -2.682,-4.035 c 0.071991,-0.093018 0.143982,-0.182007 0.209991,-0.280029 0.597992,-0.803955 0.934998,-1.841 0.863007,-2.84497 -0.110016,-1.211 -0.979004,-2.16602 -1.91202,-2.86798 -0.615997,-0.434021 -1.35498,-0.632019 -2.099,-0.676025 -0.458984,-0.119019 0.434021,-0.35498 0.583008,-0.46698 0.632019,-0.348022 1.35602,-0.381042 2.052,-0.466003 0.90799,-0.083008 1.77899,0.245972 2.659,0.419006 2.17102,0.533997 4.11801,1.685 6.11002,2.659 3.00497,1.64996 5.50699,4.03101 8.09198,6.25 0.520996,0.276001 0.972015,1.49396 1.63202,1.00299 0.078003,-0.708984 -0.734009,-1.10803 -1.11902,-1.60901 -1.14999,-1.63898 -2.47699,-3.17297 -4.08099,-4.38501 -1.556,-1.24701 -3.134,-2.48102 -4.758,-3.638 -1.62399,-1.07001 -3.37799,-2.026 -5.31702,-2.35498 -0.95697,-0.151001 -1.92297,-0.359009 -2.89099,-0.372986 -0.118988,0.003967 -0.230988,-0.004028 -0.350006,0 z  m 5.06,6.32 l 5.084,7.649 .513,-.327 -5.597,-7.322 z  m -2.985,1.119 l 4.011,6.53 .514,-.327 -4.525,-6.203 z "/>
<use width="322.19077" x="-20.019299" y="9.457107" height="251.35944" style="fill:#fff;stroke:#000;stroke-width:2" id="use3710" xlink:href="#path3704"/>
<use width="322.19077" x="-106.643417" y="-15.801527" height="251.35944" style="fill:#fff;stroke:#000;stroke-width:2" id="use3712" xlink:href="#use3710"/>
<use width="322.19077" x="13.637059" y="12.98046" height="251.35944" style="fill:#fff;stroke:#000;stroke-width:2" id="use3714" xlink:href="#use3712"/>
<use width="322.19077" x="136.724152" y="-165.109436" height="251.35944" style="fill:#fff;stroke:#000;stroke-width:2" id="use3716" xlink:href="#use3714"/>
<use width="322.19077" x="15.808888" y="-10.152032" height="251.35944" style="fill:#fff;stroke:#000;stroke-width:2" id="use3718" xlink:href="#use3716"/>
<use width="322.19077" x="-78.791901" y="11.616754" height="251.35944" style="fill:#fff;stroke:#000;stroke-width:2" id="use3720" xlink:href="#use3718"/>
<use width="322.19077" x="-17.172592" y="16.162441" height="251.35944" style="fill:#fff;stroke:#000;stroke-width:2" id="use3722" xlink:href="#use3720"/>
<use width="322.19077" x="33.335033" y="-4.545686" height="251.35944" style="fill:#fff;stroke:#000;stroke-width:2" id="use3724" xlink:href="#use3722"/>
</g>
</g>
</svg>
