<?xml version="1.0" encoding="UTF-8"?>
<svg viewBox="0 0 667.51825 656.91821" xmlns="http://www.w3.org/2000/svg">
 <g transform="translate(-50.397 -221.33)">
  <path d="m367.01 877.58c-65.12-3.7343-130.12-25.219-182.28-64.585-44.624-33.994-82.466-77.378-104.15-129.15-28.377-60.016-37.973-129.23-23.507-194.23 7.3421-37.216 19.17-75.137 40.767-106.1 1.0371 15.288 28.155 3.523 6.7632 0.31823 10.077-4.1317 21.448-3.146 5.3517-8.7365 21.495-3.8473 12.439-3.8836 8.1951-10.447 17.295-4.3307 14.275-1.174 5.2534-7.5158 11.009-1.7069 24.393-5.8466 5.8426-7.6158 30.701-2.7124-3.1361-17.086-7.7196 4.9234-22.028 18.65 21.95-35.918 33.666-40.746-3.7503 7.3083-31.718 35.372-3.0834 22.119-28.955-1.7874 32.648-8.1741-0.65627-10.991 13.275-3.7032 22.789-3.3007 10.114-10.184 12.631 0.34376 28.964-4.2536 8.2478-6.3288 9.7706-0.41813 37.217-6.5268 8.4606-8.4165-14.43 10.954-24.155 11.498-5.639-2.8085 5.082-6.5661 28.946 9.15 28.446-3.7254-22.732 6.4246-22.334-13.422-9.7262-11.258-10.365 15.059 40.958 5.5341 11.514 0.53215 12.36 0.11824 34.318-1.9915 12.613-7.7474 12.935 5.0963 31.709-8.1336 35.222-10.057-33.286-3.3927 15.498-2.6252 24.481-7.1177-14.556-5.4903 27.116-1.9421 26.388-11.116 11.317-0.60236 45.232-6.361 14.461-4.1615-42.683 0.99072 22.699-7.0724 32.953-1.7981 9.7603 1.5909 42.763-5.347 59.76-2.3171 77.242 5.6955 151.84 40.597 205.7 96.517 28.838 31.712 55.636 68.628 65.46 111.13 22.939 56.307 22.54 119.49 9.5822 178.2-4.6661 12.841-26.393 61.474-1.1604 41.608-24.373-2.8614 20.503-5.1658-4.4012-11.344 27.736-4.2537-16.106-6.7292 12.602-11.203 2.1575-6.5489-22.989-5.7472 2.6924-7.256-0.72944-9.2558-11.107-4.6563 3.9767-11.448-21.141-5.2174-0.28888-1.4595 1.5815-10.447-24.534 1.4031 18.129-9.163-7.209-9.7418 13.168-3.9272 11.084-8.4189 3.7618-10.367 22.289-6.117-14.962-8.7424 9.1627-13.61-24.273-1.0712 16.9-10.655-10.77-10.51 22.925-5.438 6.4912-15.456 4.5775-11.302 21.494-3.2076-15.629-6.6562 8.4369-10.052-8.8266-6.9827-15.197-5.6467-0.0898-10.052-10.764-4.1726-14.736-4.2553-0.85176-9.1549-26.546-4.0378 14.388-8.3137-10.358-11.881 26.185-3.6443-17.942-8.6377 8.6537-11.771-5.8315-5.103-18.652-5.0612-1.9461-8.8382-16.234-7.0304-5.7459-2.8367-1.1087-10.674-29.454-0.89409 16.173-11.142-13.844-10.934 4.337-3.5286 18.254-7.6508-0.36104-9.293 22.487-9.1547-22.085-6.209 6.4777-12.347-12.031-6.1661-9.242-2.6572-3.9154-11.131-17.953 0.14942-10.112-2.3419-1.8734-7.8806-17.5-2.1937-8.9918-0.45176-4.3998-8.5355-24.209 0.0734 11.48-9.8774-15.232-9.8383 3.8734-2.0736 16.303-11.443-2.7084-7.5443 6.57-6.1297 11.961-7.5839-4.9035-10.377 24.455-5.3997-19.291-6.8208 3.3371-12.65-8.8865-2.2284-19.813-4.7499-2.5999-5.5376-3.5495-8.7281-27.947-3.09-5.5584-8.8835-7.1699-4.5667-27.48-4.6804-5.0987-7.0388-8.6683-8.7034-21.758-2.5663-5.7994-11.597-9.533-1.0682-26.091-4.6555-6.1236-6.8084-7.7701-3.8484-28.819-3.8189-7.1803-7.1366-6.8867-9.2349-32.88-2.9798-8.0266-9.4549 15.747 8.4763 30.505 32.081 41.873 49.618 18.113 33.068 34.163 67.564 41.464 104.63 4.3549 24.056 6.5461 52.934 4.6893 79.127-0.29082 29.616-7.4868 58.116-14.172 86.781-13.871 33.102-30.126 64.718-50.111 94.406-22.147 29.771-51.483 55.088-81.108 76.932-51.691 33.525-112.34 55.285-174.39 57.178-8.8739-1.5256-20.425 1.7797-30.459-0.23179zm14.397-6.7507c23.141 1.2242 44.426-1.0138 68.626-6.1394 7.0947-0.16999 11.315-10.861 14.886-4.2056 14.41-1.7394 21.981-2.173 37.842-10.405 1.6126-5.9927 36.574-11.997 7.7288-8.9633-14.882 5.2431-39.743 2.9095-10.028-0.66938 13.598-0.72175 63.518-10.743 23.582-6.9386-13.678-6.0466-36.037 10.125-38.626 5.7804 16.012-5.7005 47.622-17.696 11.813-20.754-15.52-15.555-47.996-15.963-43.009-23.885-12.559 3.8351-16.746-18.191-14.122 2.6347 6.4767 12.056 50.186 24.041 41.849 29.585-7.3297-3.926-28.395-22.128-19.722-4.0899-13.216-21.225-10.647-1.2959-7.2435 0.11402-10.432-34.441-1.5541 42.696-5.7752 8.4288 6.0397-42.718-50.956-29.497-61.155-37.996-20.05-10.609-35.289-13.153-55.97-15.625-5.1871-13.751-34.131-15.525-32.312-26.617 12.926 16.673 24.275 10.665 13.374-8.1303 5.0152-27.154-29.845 22.324-38.254 30.197 44.845-5.9947-33.305 2.1792-7.1963 23.466 10.881 0.0125 26.735-0.18449 20.834-8.5269 23.555-0.0514-2.6724 6.1 21.719 5.8934 27.984-0.63672 43.14 38.502 71.256 29.359-22.563-3.5393-12.73-4.8595 5.4739-6.2602 2.9904-1.2191-17.12-2.8068 4.3432-4.9731-4.1874-11.737 55.148-6.9318 44.877 13.615-6.6331-5.5065-32.269-11.899-45.954-2.1605-23.725 15.531-44.093-10.749-63.173-21.32-26.679-17.336-53.631 2.3929-79.715 8.3385-9.9621 0.38664-43.037-6.7791-43.8-35.59-4.9856-10.659 0.94498-41.628-11.489-18.257 9.0182-30.405 43.685-31.305 67.264-43.11 12.822-6.9322 21.817-35.669 6.6921-10.084-10.893 4.6465-24.24 13.683-45.594 19.471-20.981 4.9493 25.83-10.224 31.414-16.087 21.584-18.017 1.8014-3.3988-12.523 2.4151-16.044 2.4307-32.018 15.958-42.828 21.023-11.25 7.7591 17.545-3.7781 1.384 8.22-5.5461-0.71565-11.161 13.631-9.3103 20.58-1.8241 17.211 11.897 47.66 35.795 50.949 8.2928 9.2098 31.004 3.859 15.708 10.528 47.223 23.957 100.26 34.534 153.05 35.199 1.3564 1.9599-59.336 9.8635-57.304 6.1812 16.625-1.3989 41.212-6.0733 11.031-5.065-14.725 3.5423-34.358 0.87269-9.4987-1.8636-11.18-4.6595-70.368 0.28539-30.15-3.8615 17.51-3.6133-58.962-1.4223-17.402-4.5348 9.6574-11.083-70.436-6.0826-25.884-12.352-18.917-2.4485-31.495-23.356-53.625-13.916 15.513 0.38192 19.491-9.586 1.9754-6.1284-31.353 3.3041 22.147-7.3828-9.4786-7.3012-30.257-0.28627 22.694 24.159 34.519 29.447 8.7405 6.29 21.21 10.151 31.554 5.5775 30.443 0.90777-25.58 2.4197 7.5588 10.949 33.886 10.699 69.386 18.31 104.99 17.862zm12.095-3.4806c12.244 0.18108 20.687-6.7856 26.84-8.4086-1.126 4.968-13.016 10.475-26.84 8.4086zm-35.091-0.52171c8.7848-5.5058 74.058-10.435 30.424-2.4684-10.067 0.99669-20.458 2.1926-30.424 2.4684zm74.197-2.7101c1.7182-2.4517 2.9069 1.3754 0 0zm5.0262-0.38772c5.3522-4.6249 7.0704 3.2988 0 0zm-124.41-4.03c8.4053-3.4134-0.87366-0.51277 0 0zm108.97-1.7279c6.0596-2.6699 4.4223 2.7177 0 0zm5.3852-0.67565c1.6757-2.4663 2.0681 1.3682 0 0zm-28.003-1.1194c3.8971-1.8626 12.044 1.3892 0 0zm11.282-0.44018c14.1-3.987 70.893-11.163 28.757-2.7754-9.3192 0.62019-20.04 4.2574-28.757 2.7754zm37.204-0.66798c10.281-3.246 73.518-12.228 33.25-3.3268-11.153 0.86463-21.938 5.4344-33.25 3.3268zm14.879-9.4828c13.188-5.9014 9.3307 1.917 0 0zm-133.34-2.643c13.503-5.6686 27.372 4.4434 0 0zm150.76-2.2037c2.5765-2.7337 0.89171 2.8307 0 0zm-173.89-2.3658c15.258-6.0082 57.267 0.9034 16.562 0.48304-5.523-0.0248-11.063 0.24832-16.562-0.48304zm38.187-4.8145c-8.0112-9.948-48.915-5.9113-21.359-2.6926-15.177 5.2645-37.959-1.2906-9.8329-5.7809 5.4217-7.8083 44.693 9.959 31.192 8.4735zm-110.22-0.92891c11.155-8.1182 17.229 4.1639 0 0zm173.5-0.14814c3.4663-3.9862 1.7884 4.4014 0 0zm30.417 0c1.7802-3.7833 1.7802 3.7833 0 0zm-154.56-0.83893c-0.82728-5.6846 19.541 1.9564 0 0zm-16.555-2.8514c5.0012-5.5132 13.07 3.4378 0 0zm147.42-0.9769c-15.468-3.1133 15.408-1.2238 0 0zm-191-1.6214c17.914-7.3568 18.405 4.1916 0 0zm199.61-0.53274c-31.138-2.6571 1.4935-6.5687 0 0zm-163.53-0.50674c-6.339-5.4353 17.33-0.6809 5.4379 0.40896l-5.4379-0.40896zm-1.7568-4.3222c-0.37871-11.747 48.15-29.929 48.023-19.935-13.927 3.9279-40.426 19.307-20.955 2.8598-11.867 0.48142-17.766 16.342-27.067 17.075zm34.966-18.148c-4.2408-2.5863-5.2979 2.6694 0 0zm-5.0302 17.944c0.30951-10.865 28.924-7.06 0 0zm85.85-6.0468c0.0121-5.86 6.2631 3.0456 0 0zm-90.922-0.48863c15.055-15.196 16.828 2.4123 0 0zm96.805-2.5497c-11.541-11.199 46.476-11 12.71-4.27-5.9698 2.1287-8.6903 0.22544-12.71 4.27zm91.907-1.8585c3.7466-3.8893 3.2144 3.3934 0 0zm-8.6465-4.6672c10.804-7.4801 10.518 7.8145 0 0zm-76.261-3.3277c11.744-4.1255 15.848 3.5986 0 0zm22.977-0.13287c3.0011-3.6743 5.5463 3.9967 0 0zm-98.031-0.99576c3.9778-1.2446 2.543 2.3415 0 0zm-40.938-10.85c8.9305-11.601 52.624-8.9268 48.698-2.0463-15.531-8.0766-33.818-0.79741-48.698 2.0463zm-0.74523-6.1666c3.4272-6.124 4.0446 4.0792 0 0zm5.0092-2.7608c7.5212-3.0636-3.9624 4.0982 0 0zm7.6131-1.7816c15.332-5.6079 24.194-0.16805 1.6518 0.68639l-1.6518-0.68645v6e-5zm-76.439-49.508c3.2802-6.2053 7.0573-1.1919 0 0zm323.8 100.41c15.197-1.0432 35.152-8.0952 7.5007-4.2131-3.9759-1.977 56.798-14.367 19.785-10.797-16.337-2.2358 39.756-8.8618 18.272-11.815 21.407-2.9349 20.04-9.2818 7.678-8.8786 14.932-0.74537 32.26-8.2233 7.638-7.5509 15.931-1.0152 35.208-12.023 7.6984-9.1112 17.844-0.5162 30.217-11.224 4.3919-6.8653-16.709 13.79-29.34 27.245-46.431 36.626-7.5219 7.8432-61.575 26.795-26.533 22.605zm35.955-24.106c5.0756-9.2651 8.7018 3.4596 0 0zm-40.532 14.84c8.993-9.1691 41.183-16.019 10.304-9.3344-37.855 1.5361 51.171-6.8542 15.839-16.874-24.788-12.902-51.75-12.477-76.041-0.57355-30.505-2.1779 40.215-7.8482-1.5309-8.5844-15.11 4.1689-56.351-18.338-24.843 3.0551 25.319 10.6 47.426 32.989 76.273 32.311zm-22.903-12.341c2.6091-3.7668 2.4142 3.195 0 0zm-10.808-1.0382c8.4099-9.1681 47.924-18.925 43.822-13.01-14.876 1.6884-31.405 9.2337-43.822 13.01zm30.031-1.3049c15.29-6.7753 49.92-8.0385 14.354-0.38357-2.4658-0.27785-15.288 2.9979-14.354 0.38357zm-15.079-0.31647c12.808-13.41 65.637-7.5648 23.091-6.1484-7.1294 2.3953-15.779 6.5255-23.091 6.1484zm-20.105-3.605c12.718-13.162 65.049-14.951 22.472-6.9997-5.7162-0.2646-22.023 10.081-22.472 6.9997zm-13.971-2.8857c9.8617-6.7247 63.45-17.59 25.705-5.7939-8.2889 1.9268-17.142 7.0028-25.705 5.7939zm-43.497 20.514c-12.522-7.9181-32.416-4.262-5.677-1.6351-0.7618-0.74825 9.0144 5.0117 5.677 1.6351zm-2.8465-5.8806c-14.087-5.7029-12.786-0.44654 0 0zm23.695-4.6306c-2.7603-2.5743-1.8404 2.6595 0 0zm-4.3082-2.1541c-1.8346-2.5759-1.8345 2.5759 0 0zm-256.85-1.016c49.065-4.5982-30.635-11.427 0 0zm46.746-0.28929c-23.458-6.9327-18.842-62.532-14.662-54.206-6.9378 12.719 3.4307 34.373 0.1048 7.8576-4.7206-12.3 32.306-39.007 20.741-26.663-13.322 8.6438-11.115 27.111 0.72513 6.3022 11.939-12.092 17.954-27.802-4.3153-11.765-27.398 1.1125-36.027 32.535-27.359 55.194 3.3951 10.078 12.607 24.734 24.765 23.28zm-11.744-63.138c3.7245-9.1441 3.2892 3.0618 0 0zm33.007 61.559c17.025-5.2258-10.251-23.993 4.5151-37.344-17.759-18.234 13.513-44.266 8.0379-57.709-17.814 16.662-26.407 41.462-20.095 64.19 19.109 31.124-17.871 4.074-8.5834-12.675 3.7311-13.456 4.0926-24.787-1.9386-4.1503-8.778-12.03-1.6762 36.473 7.3613 44.829-10.062-7.1589-32.859-30.164-14.459-3.7221 6.4104 5.6744 16.685 9.3925 25.163 6.5817zm-3.5902-31.581c1.8345-2.5759 1.8345 2.5759 0 0zm3.5902-34.154c2.5048-7.4594 6.164 0.20678 0 0zm-74.352 58.48c32.557-5.2022-35.907-5.0507 2.0332-8.4982-13.974-7.4376-33.689-0.33495-9.8127-8.827-15.797-2.3769-27.625-0.92394-5.8571-5.8678-38.269-16.456-3.6798 26.953 13.637 23.193zm383.72-0.63094c17.436-8.0051-7.0852-11.79 17.599-12.616 22.572-14.604-50.026 0.5474-9.8822-7.6029 15.617 1.6598 45.391-11.279 13.573-16.406-18.717-9.5575-39.981-12.657-58.699-22.639-20.435-7.6037-57.742-12.464-70.906-7.7215 25.555 10.228 55.659 1.1593 78.969 19.497 13.778 5.0581 64.354 17.264 23.837 16.003-24.44 4.7648 1.8063-5.4589 7.6914-3.4693-7.5736-2.5908-40.76 0.35961-16.435-4.1779-9.0543-3.5741-39.155-0.1423-15.916-5.3269-22.354 0.80747-4.0475-7.4752-22.857-6.1192 14.9-4.2787-12.085-3.8669-11.159-6.1215-15.399 5.8585-57.344-14.501-25.102 10.02 10.792 9.8377 25.437 8.1436 20.045 2.7836 30.247 3.315 42.732 36.901 68.252 45.597l0.99029-1.6996 3e-5 -1.6e-4zm-7.6133-26.029c15.136-5.9246 54.315-1.6849 15.26 0.17951-4.9415 1.5188-10.302 0.60843-15.26-0.17951zm-24.591-9.873c2.2484-2.1522 3.7361 2.8308 0 0zm-18.549-10.052c2.2945-3.0473 2.461 2.6494 0 0zm-83.411 41.79c-3.9826-10.643-25.097-47.663-6.7134-21.006 18.756 24.715-5.6611-23.246-14.895-27.246-7.0823-0.48311 5.7869 42.964 21.608 48.252zm-18.474-37.915c2.8432-1.5088 0.67094 1.6182 0 0zm1.2416 37.054c11.204-9.6683-31.352-16.979-29.448-13.028 11.844-0.58249 38.616 8.075 16.883-8.5148-17.771-5.4168-44.879 15.186-11.848 18.341 7.0721 3.2189 17.034 2.9437 24.413 3.2026zm-225.46-6.4036c-1.7626-9.9386-5.5461 4.1092 0 0zm347.53-1.4948c5.901-5.0626-11.424 3.3407 0 0zm-52.811-2.2348c16.337-11.244 32.569-7.4129 48.873-1.8179-16.732-22.511-59.888-13.485-85.457-8.4279-24.045 3.9916 4.7706 3.2903 0.57082 9.2342 9.4995 3.7515 21.535-4.2047 26.042-1.2081-18.63 9.5118 35.642-14.477 6.0581 3.2463l1.5778 0.0951 2.3354-1.1217-1e-5 -3e-5zm13.444-2.1976c13.626-9.0711-16.474 6.888 0 0zm11.794-0.3314c5.9362-6.1245-16.9 6.5047 0 0zm9.9309 1.4814c3.9796-4.9984-10.056 4.0881 0 0zm-334.29-2.8411c-3.0926-8.1934-12.682 5.854 0 0zm168.02-0.14464c-13.813 6.7578-41.824-46.578-23.963-13.652-15.965 1.3228 20.291 22.189 23.963 13.652zm12.761 0.6173c11.265-14.074 58.193-3.971 27.903-25.694-9.4676-14.908-27.389-29.831-9.2902-5.5501 11.631 8.9818 17.602 27.361 0.32724 4.6918-26.371-2.4829-5.3699 8.1852 1.3096 11.165-18.6 1.9909-33.034-12.348-41.259-26.521-6.071 18.465 28.205 25.438 16.039 43.25l4.9704-1.3427zm-97.914-5.6582c15.412-16.952 44.417-46.298 48.83-55.704 13.066 12.996 64.427 16.049 25.286 2.6488-19.361-4.3418-22.572-7.0284-1.5772-4.7202-8.0272-18.162-53.633 7.5079-53.255-2.7076 21.772-1.6863 55.255-3.9273 40.83-25.725-11.941-7.2048-6.226-2.9665-6.3316-8.3513-4.6571-13.412 19.77-4.0415 22.989 4.6256 14.041 9.7434-9.4517-36.23-7.2234-33.053-11.084-14.028-66.058-4.9432-23.105-10.249 31.378-5.5843-41.297-1.5268-9.3774-5.898 22.225 3.2778 17.618-7.947 0.21892-2.8253-27.013-0.75985 35.263-6.4177 0.42211-5.1652-26.428 0.72274 31.825-12.669 21.965 11.603 18.016 17.371 8.3984 0.68399-0.27579-8.3799 31.385-11.126-55.791-6.1745-22.364-10.757 16.779-1.683 27.354 0.53428 18.821-4.3454 14.956-1.8759-54.124-12.872-35.337 15.561-3.7298 25.406-6.0227 46.698-8.9926 70.338-4.6299 19.043-19.799 66.954-11.524 73.106zm14.878-38.158c2.9945-4.6187 6.2431 3.3916 0 0zm1.2167-5.9009c-4.2514-7.0724 19.135 0.35995 0 0zm1.8304-7.9981c7.2668-4.1207 5.4002 3.8249 0 0zm21.683-5.9009c-2.8764-4.0551 6.5148 4.1601 0 0zm-20.066-7.5672c3.9139-4.6679 7.3438 3.5067 0 0zm4.6704-7.114c2.4546-4.4496 8.406 3.0707 0 0zm11.489-1.4205c3.7691-5.1705 7.2442 3.4302 0 0zm-9.169-5.9662c14.54-4.7524 10.361 3.1528 0 0zm22.094-2.727c1.8345-2.5759 1.8345 2.5759 0 0zm-24.392-3.5587c9.061-6.2927 17.024 2.6149 0 0zm17.392-3.0831c3.262-3.2703 3.262 3.2703 0 0zm-16.694-4.0594c10.077-4.7172 35.557-1.3771 8.594-0.12367l-4.8243 0.43939-3.7697-0.31572zm-1.8222-8.0115c15.973-5.007 37.265 1.2554 7.7827 0.35518l-3.8648-0.0323-3.9179-0.32291zm30.215-2.0606c1.4159-4.3586 5.8415 1.8555 0 0zm7.2889-0.50878c0.0213-4.4939 4.7131 1.9183 0 0zm5.2668-0.94885c0.81251-5.5186 10.35 2.6469 0 0zm-45.975-3.4509c12.802-4.0402 57.648-5.7569 19.387-0.83535-6.4266 0.67878-12.913 1.6541-19.387 0.83535zm39.492-3.7575c4.7227-2.6577 4.7227 2.6577 0 0zm5.7443-0.71803c3.9245-2.6286 2.6714 2.6963 0 0zm-40.928-4.2267c11.104-4.9801 47.336-1.8443 15.261-0.0486-5.0676 9e-3 -10.231 1.0722-15.261 0.0486zm36.376-2.0492c0.70756-6.6184 9.9156 2.6233 0 0zm-32.611-4.2536c6.4877-6.143 38.002-2.0811 9.3172-0.58614l-7.102 0.92675-2.2152-0.34061zm26.033-3.1131c7.053-2.673 5.3416 2.7164 0 0zm6.1241-21.513c-1.5804-5.0247 8.1201 1.534 0 0zm-37.718-1.4641c2.6714-2.6963 3.9245 2.6286 0 0zm-1.077-6.4623c1.8346-2.5759 1.8345 2.5759 0 0zm2.2834-1.9132c13.427-4.6303 41.429 0.33516 11.833 0.87956-1.967-2.0641-10.336 2.5795-11.833-0.87956zm58.353 159.25c18.358-8.0786-13.295-22.342-6.4512-9.2404-6.3344-13.813-4.0729-13.103-5.7068-4.1925-8.6238-12.738-7.2039-15.684-1.7474-14.901-3.657-25.52-25.431-12.711-17.217-1.2829 10.583-4.8275 14.652 30.981 31.122 29.617l-3e-5 3e-5zm-32.361-32.722c-7.6133-17.676 6.3448 6.218 0 0zm-137.74 31.918c25.521-8.5781-28.596 0.51063 0 0zm180.22-0.7658c0.71444-3.8514-3.3438 3.0872 0 0zm86.158-3.9348c10.683-4.8531 17.652-9.1902 33.903-10.079-15.089-0.31416-52.375-2.0587-16.088-3.4334 6.3503-1.7465-27.492-4.34-17.931-7.829-19.858-0.22348-15.25-1.1725 0.4762-3.7996-26.89 2.1677 19.922-17.63-12.131-14.923 11.067-4.6536 24.821-3.5834 4.2075-6.7148 17.076-2.9661 17.063-4.0961 1.1626-6.7083 10.8-1.8186 16.971-3.8161 3.4246-5.6723 18.561-5.192 7.7864-5.4292-3.1512-7.8192 27.995-2.5293-0.40971-4.5621 4.3082-7.1094 28.651-2.6548-18.652-5.0485 9.6851-8.5843-10.485-5.1545-2.0325-5.0815 0.39243-9.4156-18.475-2.2228-13.112 0.41019-1.1498-6.1146-18.751-2.7985-8.5082-3.4976 1.7892-6.6616-14.749-1.5519-34.708-2.1243-6.5167-4.8383 17.161-4.2928-38.85-2.4916-4.4414-5.4735 38.008-6.8618-50.449-2.738-4.1994-6.4619 34.243-3.5011-4.5559-3.297-13.869-6.4898 13.218 1.701 41.098-3.578 10.55-3.0559-39.702-5.4989 17.346 1.1753 16.614-5.7218-39.639-2.7206 12.197-5.9785 21.386 2.5911 16.996-1.7692 35.118 10.842 31.327-6.3549 7.9647-5.1784 19.99-3.8658 11.881-9.0611 14.343-3.7065-6.8542-8.4433-0.20986-16.102-10.51-2.6615 1.0226-9.3277-17.443-15.589-12.61 2.7165-42.774-1.1488-12.019-1.532 18.305 0.8429 65.86-18.506 31.369-28.835-17.167-14.297 16.133-33.981-1.298-10.209 1.3927 14.32 41.228 2.3884 37.48 0.71611-10.892 1.5766 9.0312-9.0812-3.3537-14.559-3.5964-8.5995-4.7189-14.937-10.292-21.975-0.54603-7.9342-1.5665-11.009-11.619-18.794 8.8977 2.8142-3.9253-18.086-5.407-13.255-23.723 3.5215 9.7503 4.4905-8.476 12.739-27.429 1.0955 25.113 1.6879-4.5487 5.3502-16.583 1.6122 18.001 5.7359-6.9583 5.9257 13.793 4.0226 23.113 6.6962 1.8526 6.6967 1.2918 9.9843 29.086 1.1586 3.2665 7.8383 0.20848 1.4709 4.1482 15.43-4.7601 7.9346-2.5757-8.853-12.546-12.532-18.883-19.028-9.9061-5.9685-27.791-1.7958-19.29-7.6819-26.782-0.40273 18.476-10.949 27.662-22.475 8.024-9.2596 50.246-23.905 16.973-17.961 20.424-5.6965-12.977-5.1889 11.954-10.235-16.198 0.80849-13.124 0.32509-11.738-3.7777-17.899 11.502-40.888 26.618-54.684 36.439 3.7209 2.9857 10.522 3.6648-4.7868 5.3204 2.4842-18.537-28.782 36.995-28.147 36.595 12.498-10.655 18.519-15.914 29.301-34.157-7.282 13.535-18.734 48.77-36.403 64.818-5.8001 16.66-30.349 21.51-23.972 31.74 10.078 7.7846 22.838-22.571 13.631-0.12063-10.848 18.94-20.244 1.2218-24.412 10.021 6.8478 25.986 0.41031 51.608-2.4925 75.794 20.862-27.749 2.9492 17.4-1.1206 16.266 2.0028-15.784-13.953-49.747-3.5854-15.797 4.4883 17.936-1.9152 29.054-2.7888 3.6175-7.7984-26.79-3.8547-5.0548-2.5091 8.614-12.843-35.081-1.502 45.489 12.888 5.0837 13.167-4.9184 25.497-50.372 24.359-18.978 11.127 30.699-43.957 44.601-14.327 71.516 18.543 29.234 1.8026-35.758 17.348-2.0777 11.976 7.7774 18.235 36.111 35.81 29.844zm-22.157-21.621c1.078-6.4408 8.4987 2.433 0 0zm6.6954-5.2294c1.6757-2.4663 2.0681 1.3683 0 0zm-10.196-0.90402c4.498-1.7051-0.0943 3.2368 0 0zm12.371-4.8546c5.2391-7.7602 13.1 5.0925 0 0zm-2.1749-12.91c1.6757-2.4663 2.0681 1.3683 0 0zm-2.8721-7.2227c2.8026-2.6231 2.8026 2.6231 0 0zm7.8984 0c2.7603-2.5743 1.8405 2.6595 0 0zm-1.1302-5.8303c5.3483-5.5501 11.662 2.0849 0 0zm-12.153-42.278c2.7603-2.5743 1.8404 2.6595 0 0zm13.284 0c1.8404-2.6595 2.7603 2.5743 0 0zm-8.6164-6.4623c2.8026-2.6231 2.8026 2.6231 0 0zm-37.338-3.8893c9.7655-10.36 3.9923-59.861 9.4776-24.473 6.0403-14.22-18.133-49.079 1.1122-21.009 8.3162 15.204-2.5992 36.034-10.59 45.482zm-5.7443-0.77787c6.2778-14.88 8.2878-3.9705 0 0zm42.831-2.1311c6.1657-1.8361 1.5811-0.89446 0 0zm-36.005-16.457c1.8767-16.724-6.1586-40.671 3.2815-10.852 2.3544 3.9225-4.5773 30.036-3.2815 10.852zm30.332 2.6744c3.9541-1.1654 0.71762 1.2567 0 0zm-9.4371-5.6865c-1.3944-8.0648 5.5647 4.2048 0 0zm85.01-2.0427c3.7126-3.924 3.2127 3.3976 0 0zm-26.029-2.3472c-4.3578-4.5967 7.794 1.3885 0 0zm6.6418-0.2186c2.8026-2.6231 2.8026 2.6231 0 0zm-57.389-1.9859c6.8928-3.6212 17.863 4.4055 0 0zm-13.92-0.6319c-1.304-4.1343 5.0212 0.94736 0 0zm7.2115-7e-3c4.7851-1.3098 0.86357 1.3049 0 0zm37.292-3.5979c-3e-3 -5.2529 8.3513 3.0438 0 0zm7.5992-0.41886c4.2254-3.2981 4.2254 3.2981 0 0zm10.591 0.17951c2.6714-2.6963 3.9245 2.6286 0 0zm-33.418-0.7658c0.21152-4.2005 4.0757 2.8088 0 0zm7.5689-0.31125c3.1483-3.8094 4.8393 3.6887 0 0zm-36.065-0.4915c1.1278-6.764 7.8933 3.4637 0 0zm8.0622-0.22653c3.7829-4.0283 6.3314 4.717 0 0zm59.268-3.1815c5.2923-1.9843-0.63531-0.314 0 0zm-9.0061-0.76765c2.8026-2.6231 2.8026 2.6231 0 0zm-21.404-1.2566c5.2185-5.2359 4.116 5.571 0 0zm11.742 0.58814c0.84473-4.2898 3.8808 3.7239 0 0zm-36.471-0.53733c-4.4469-5.6059 8.9814 1.1776 0 0zm14.54-0.63952c3.001-3.6744 5.5465 3.9968 0 0zm-19.387-0.30908c-18.594-2.5714 3.8358-3.1398 0 0zm22.983-5.7079c-1.6608-6.4399 9.5428 3.4774 0 0zm11.483-0.0364c3.7645-2.6458 3.7646 2.6458 0 0zm9.3344 0c1.8345-2.5759 1.8346 2.5759 0 0zm-31.055-1.2834c-6.1625-3.9827 6.962-0.7265 0 0zm-8.4369-1.2297c1.7802-3.7833 1.7802 3.7833 0 0zm-13.882-0.11967c0.20715-5.0682 7.5642 2.1466 0 0zm5.9836-0.23935c2.8026-2.6231 2.8026 2.6231 0 0zm27.425-5.4954c5.5895-4.6916 3.4041 4.0048 0 0zm18.529 0.0503c2.424-3.201 2.5471 3.8241 0 0zm17.233 0.41885c2.8026-2.6231 2.8026 2.6231 0 0zm-57.638-0.43434c2.3288-7.1774 3.4242 4.4766 0 0zm12.761-0.28369c1.8404-2.6595 2.7603 2.5743 0 0zm-35.084-2.5131c4.2477-4.3145 7.7228 4.1708 0 0zm72.422-3.9492c3.9245-2.6287 2.6714 2.6964 0 0zm-40.569-1.077c4.8884-4.9593 1.7124 4.5364 0 0zm65.967 0.3023c8.4891-6.3207 17.174 2.0822 0 0zm-55.556-0.66132c1.8404-2.6595 2.7603 2.5743 0 0zm48.826 0c7.9516-2.2781-0.33803 2.5538 0 0zm-70.188-0.50674c7.1634-1.0799 1.4012 1.0998 0 0zm45.595-5.7162c-2.5072-3.9647 6.2478 0.75736 0 0zm6.649-0.22763c1.6268-2.4944 2.8963 1.3844 0 0zm-38.032-0.68012c6.2004-1.6537-0.54168-0.47442 0 0zm10.77 0c5.2923-1.9843-0.63531-0.314 0 0zm8.5857-0.0496c3.5266-2.7139 5.0274 2.6592 0 0zm-30.337-0.89754c5.1852-3.3143 5.1852 3.3143 0 0zm61.952-5.3767c0.79244-6.878 43.919-0.4787 12.398 0.78986-4.0204-1.9271-8.53 0.89344-12.398-0.78986zm-26.611-0.22411c-0.61021-3.8611 3.5686 1.654 0 0zm-29.597-0.86148c2.8225-4.2319 5.2192 4.2981 0 0zm15.812 0.46373c2.8433-1.5088 0.67094 1.6181 0 0zm31.857-1.3613c6.9683-4.6141-0.51641 4.5802 0 0zm-20.563-6.4623c3.1483-3.8094 4.8392 3.6888 0 0zm7.3598 0.6148c-1.2838-4.6588 8.7445 1.1474 0 0zm6.6505-0.24177c12.034-6.9855 49.046 1.4277 13.108 0.18738-4.3813-0.64394-8.7489 0.99122-13.108-0.18738zm-47.04-0.33065c1.7182-2.4517 2.9069 1.3754 0 0zm8.6164 0c1.7182-2.4517 2.9069 1.3754 0 0zm73.022-0.13972c-1.0773-6.5759 9.0083 1.0422 0 0zm-14.358-6.4517c-44.218-2.5456 58.291-5.7789 10.435-0.27388l-5.1945 0.42238-5.2409-0.14848v-2e-5zm-31.738-1.7084c2.7603-2.5743 1.8404 2.6595 0 0zm-12.199-7.1686c1.6267-2.4944 2.8964 1.3844 0 0zm7.9218 0.0379c5.2924-1.9843-0.63533-0.31404 0 0zm8.4018-0.22913c5.4912-3.9701 5.3142 3.6279 0 0zm12.75-0.17951c2.2832-3.205 1.7284 3.3562 0 0zm18.848 0.12678c-6.701-7.1126 29.444 2.1151 0 0zm14.899-1.1786c7.0396-5.3151 10.641 2.6712 0 0zm-52.416-5.4105c2.2833-3.205 1.7284 3.3562 0 0zm8.6164 0c2.7518-3.8639 2.7518 3.8639 0 0zm9.3344 0.35902c2.8026-2.6231 2.8026 2.6231 0 0zm8.377 0.23934c-1.2092-4.9773 4.8772 1.644 0 0zm6.7016-2.0344c4.6857-3.9487 4.6857 3.9487 0 0zm8.6765 0.43068c-2.6749-7.1424 27.581 2.7559 0 0zm-50.055-5.4375c0.68453-5.6043 6.8584 3.7416 3e-5 0h-3e-5zm11.221-0.37841c1.8345-2.5759 1.8345 2.5759 0 0zm7.3598-0.89754c4.2254-3.2981 4.2254 3.2981 0 0zm8.0747 0.17444c2.3803-4.6393 6.9839 2.3968 0 0zm8.0212 0.24441c0.20717-5.0682 7.5642 2.1466 0 0zm7.7492-1.0052c0.31694-5.6364 4.4392 4.4672 0 0zm12.008-0.0429c1.2376-6.7813 26.349 2.8796 0 0zm-5.7481-2.5425c2.4828-5.0111 2.5494 4.4066 0 0zm51.382 0.0501c0.96488-4.7241 6.2931 1.7494 0 0zm-35.174-1.5567c-5.98-4.1033 18.56 0.37761 0 0zm-54.391-1.6045c1.8345-2.5759 1.8345 2.5759 0 0zm8.6164-0.38155c1.5593-3.5783 2.9578 2.5444 0 0zm7.8984-0.33648c2.8026-2.6231 2.8026 2.6231 0 0zm10.77 0.0424c1.6758-2.4663 2.068 1.3683 0 0zm8.9621-1.5c1.1093-5.5482 6.5582 2.8584 0 0zm6.2918-0.158c18.874-6.3722 31.09 1.2102 4.3654 0.9223l-4.3654-0.92233v3e-5zm-34.641-4.8467c1.8345-2.5759 1.8345 2.5759 0 0zm5.0262 0c2.8026-2.6231 2.8026 2.6231 0 0zm-12.925-0.71803c1.8345-2.5759 1.8345 2.5759 0 0zm20.823-0.71803c2.8026-2.6231 2.8026 2.6231 0 0zm6.223 0.23934c-1.0557-4.47 6.212 2.2289 0 0zm6.7016-0.23934c2.8026-2.6231 2.8026 2.6231 0 0zm39.163-1.3864c1.1198-4.029 3.4899 2.5493 0 0zm-31.265-4.7168c3.7211-3.9166 3.7211 3.9166 0 0zm-27.947-0.6582c0.32023-3.0957 1.0364 1.9123 0 0zm48.77 0.29918c2.6714-2.6963 3.9245 2.6286 0 0zm6.4623-1.7951c2.7518-3.8639 2.7518 3.8639 0 0zm11.489-0.35902c1.8345-2.5759 1.8345 2.5759 0 0zm-44.159-1.4361c0.29669-6.3233 6.3217 2.3895 0 0zm41.407-5.0262c2.2945-3.0473 2.461 2.6494 0 0zm5.3349-0.60585c0.32498-3.6746 3.627 0.50129 0 0zm-10.809-5.0888c1.1198-4.029 3.4899 2.5493 0 0zm5.7136-0.76765c3.9244-2.6287 2.6714 2.6963 0 0zm-92.267-3.3259c2.7506-8.1808 5.554-1.9182 0 0zm79.393-0.90093c12.581-8.1439 10.361 2.7628 0 0zm-66.768-0.70303c-0.60632-4.2092-2.1836-1.8336 0-9e-5v9e-5zm78.885-0.87696c1.3378-5.662 5.9918 3.2824 0 0zm-77.868-4.6046c2.7823-6.5332 4.4952 5.8796 0 0zm71.96-1.188c3.6209-3.9714 2.9541 2.885 0 0zm-65.497-4.5563c4.0212-4.6466 6.118 3.5826 0 0zm63.905-0.66965c5.1196-5.8221 8.179 5.0667 0 0zm-56.725-1.1254c3.7646-2.6458 3.7645 2.6458 0 0zm60.315-3.5902c1.8345-2.5759 1.8345 2.5759 0 0zm-60.643-2.1045c2.7844-4.9337 10.71 0.75901 0 0zm-1.1077-5.0758c1.8404-2.6595 2.7603 2.5743 0 0zm4.6979-1.3864c0.6191-6.195 4.6989 4.4551 0 0zm5.8138-1.9839c-1.5623-3.6406 4.22 0.34246 0 0zm32.57-19.607c1.8345-2.5759 1.8346 2.5759 0 0zm-349.06 314.17c-3.0829-14.085-34.794 4.5168-3.2275 0.40822l3.2275-0.40822zm451.45-0.41475c8.081 3.2508 29.702-5.361 10.474-6.2561 7.6838-2.8732 22.381-7.061 5.7982-8.9865 14.857-3.9342 20.449-4.9499 10.282-10.734 14.074-0.90473 17.315-4.7106 2.7174-6.7826 11.35-2.2299 20.394-4.7929 7.261-8.9589 32.327-5.1605-2.3043-9.2066 7.9278-9.2974 20.157-5.1125 6.7582-4.1943 5.3807-9.6836 25.778-2.5532-3.185-6.9573 6.8127-9.22 24.061-2.9318-13.732-7.3929 13.284-11.631-21.523-5.4604 22.262-8.9332-7.6848-13.576-15.378 34.63-37.435 65.828-63.628 93.156l-1.3401 2.714 2.7153-0.74471v-2e-5zm-429.96-0.41045c9.0852-16.674-10.685-21.253 0.13223-23.157-11.633-9.942 1.1036-29.086-6.4505-30.497 7.7723-16.696 23.229-25.233 6.4547-4.8677 8.8925-5.6276 23.028-12.462 6.6294 5.8246-12.494 8.8866 1.561 49.754-2.8491 19.224 1.1191-28.328 33.686-36.722 44.253-58.304 11.975-16.276-3.9174-68.876-2.8758-24.328 10.06 19.334-34.965 58.164-9.2446 28.224 15.29-24.876-7.4966-61.56 21.832-79.435 25.12-14.501-18.467 17.835-3.1036 16.667-3.6776 6.0588 29.03-31.556 11.942-8.1377-16.517 23.45-3.9125 59.189-22.837 80.199 21.821-3.9014 17.448-35.826 20.766-54.399-4.2716-22.687 44.753-26.44 15.265-38.628-18.955-10.197-43.674 3.9792-51.263 25.747-1.541 25.147-16.762 55.292-41.09 51.668-13.982 1.9928-28.483 24.821-8.835 10.94-12.075 11.445-17.717 47.993-7.5432 51.924-6.4004-21.78 2.345-47.833 21.188-50.801-15.257 18.924-14.587 51.963-10.363 49.361-12.167-23.424-4.844 17.304 11.738 14.246 20.87 21.725-17.704-14.464-19.898 5.7209 11.372 1.4294 28.601-1.0426 5.4769 6.4535 11.776 2.1469 27.818-1.911 7.1803 4.9562 3.4176 2.8267 9.2447 1.5414 13.495 1.3992zm-14.213-26.848c1.8345-2.5759 1.8346 2.5759 0 0zm5.1952-1.81c-11.596-14.262 5.6995-50.899-1.8438-15.254-2.2346 2.3985 11.088 25.407 1.8438 15.254zm1.9852-14.346c1.7802-3.7833 1.7802 3.7833 0 0zm1.4361-22.931c14.537-21.551 15.377-11.173 0 0zm23.695-1.5206c4.3289-7.3033 6.2918-1.8748 0 0zm-3.9492-2.4742c-0.23505-5.4391 3.9105 2.2267 0 0zm3.2312-4.3082c2.8026-2.6231 2.8026 2.6231 0 0zm-7.8984-7.8984c5.262-3.0106-1.7803 2.828 0 0zm40.21 0.35902c5.5909-9.5215 3.2058 2.4036 0 0zm-29.439-1.077c1.8345-2.5759 1.8345 2.5759 0 0zm-7.1803-1.6355c25.444-17.937-45.341 2.4058-5.365-9.853 19.591-1.8272 21.729-30.451 24.693-39.169-4.492-11.904 18.633-44.772 5.0726-15.761 2.8744 14.859-3.8791 66.595-9.8497 57.691 16.452-43.221-3.3261 3.6254-14.551 7.0917zm14.315-22.419c-3.289 1.6441-1.3766 4.662 0 0zm7.2234-5.7374c1.5944-22.292-7.346 4.353 0 0zm-52.937 25.619c2.8829-7.8579 11.102-0.60757 0 0zm349.13 83.874c-1.8404-2.6595-2.7603 2.5743 0 0zm-34.107-0.71803c-4.9078-2.2775-5.7392 2.8459 0 0zm11.13 0c-10.979-2.5361-15.974 2.4674 0 0zm119.19-2.1639c-16.566-4.2698-11.252 3.6696 0 0zm-468.89 0.0332c26.49 0.87091 6.1838-8.5913-6.0013-4.8421 1.5467 0.68441 3.2183 7.1036 6.0013 4.8421zm92.247-2.4312c3.8964-14.979-6.5452 8.4143 0 0zm371.86-2.1864c41.952-6.7056-47.393 0.14981 0 0zm-456.21-3.4162c-6.8495-15.67-33.009 5.6796-2.4728 0.26078l2.4728-0.26078zm171.3-1.9549c-3.133-14.351-0.63787 8.4505 0 0zm278.19-0.0398c10.844 0.53151 42.404-5.2829 12.444-4.4188-16.157-1.3664-63.665 4.9503-22.172 4.9985l4.6912-0.29787 5.037-0.28191zm-139.3-0.76525c20.751 0.22971 7.9151-4.3631-3.9492-2.4696l2.941 3.1876 1.0081-0.71803zm-77.189-1.4361c1.8276-2.8933-5.268 2.3163 0 0zm-225.87-2.8182c-9.2919-10.449 3.6274 9.8888 0 0zm201.79-2.6694c-9.9759-24.758-2.0832 13.565 0 0zm-226.55 1.8661c33.106-3.6984-31.719-7.0626 3.9191-8.0812 1.5733-11.359-38.253-1.3067-3.9191 8.0812zm446.53-9e-3c45.397-4.0061-51.742-3.1523-9.1401 1.0535l6.2359-0.46763 2.9043-0.58588v-2e-5zm-428.55-0.49787c-6.593-14.181-4.1582 3.3108 0 0zm230.93-1.0347c-4.6849-8.4241-6.6082 2.173 0 0zm86.438 0.18518c-4.8977-4.3369-29.25 1.8261 0 0zm-254.35-2.2025c2.1825-5.094-4.6917 4.8806 0 0zm412.64-0.0314c10.053-5.6259-34.326 4.1159 0-1e-5v1e-5zm-19.734-3.5306c28.206-18.885-1.0203-29.917-18.913-41.207-12.611 6.6236-21.345 35.665-6.2027 12.28 9.432-16.978 18.775 6.3527 13.32 11.39 2.2816-14.797 33.2 1.9303 9.5152 14.159-19.505-0.83282-2.6563 11.763 2.2798 3.3774zm-228.95 0.50817c-0.55589-14.731-28.39-8.7758 0 0zm86.088 0.13373c-12.793-6.9676-5.071 4.3694 0 0zm117.13-0.10918c22.127-9.6859-61.748 0.50804-24.732 1.401 8.2449-0.23785 16.572 0.0103 24.732-1.401zm-237.63-1.0514c-3.1474-1.0285-0.31138 1.3822 0 0zm107.21-0.2326c-2.9067-6.0688-3.2277 3.7978 0 0zm170.1 0.19373c25.045-1.1978 8.1809-11.367-4.3595-1.0715 0.45428 1.8141 3.0525 1.8933 4.3595 1.0715zm-475.42-1.6247c-8.232-12.422-5.0067 6.5343 0 0zm412.66-2.3295c34.39-3.1457-15.349-5.4999-28.143-1.2018 3.1175 5.6654 21.095 0.79877 28.143 1.2018zm-438.36-2.6967c32.447 0.29726-14.811-14.38-1.73 0.52259l1.73-0.52259zm472.5-0.73178c36.039-4.9924-31.832-1.7668-8.6818 1.1843l5.3674-0.54592 3.3144-0.63842zm35.865-1.3893c40.432-7.8997-24.232-1.1538 0 0zm-486.22-1.0664c-2.4716-8.7029-11.049 4.1422 0 0zm393.24 0.57546c16.426 1.9749 48.865-6.2394 20.464-3.635-12.904-0.1954-74.373 0.8901-31.232 4.324l5.1345-0.25753 5.6338-0.4315zm-329.18-8.5175c6.8112-32.136-7.3475 4.3095-2.2129 7.0393 1.465-2.0233 2.66-4.4288 2.2129-7.0393zm170.49 5.9238c-0.50448-24.376-19.783-45.7-25.973-69.746-1.7035-19.233-6.9036-39.936-12.381-58.192 11.645 6.3038 42.566-35.453 37.823-19.382-9.5996 8.2233-33.302 27.843-26.35 28.361-0.11257 4.3798-2.7376 17.582 4.8747 32.415 25.752-2.3005-14.687 4.9839 8.732 6.3039-15.107 3.6627 3.0648 4.9288-6.6455 11.603 9.5678 22.778 15.209-35.531 19.211-47.015 8.5357-31.605 22.791-61.478 27.061-94.194 13.909-27.795 20.641-57.994 30.432-87.173 6.0352-19.233 21.526-43.676 30.653-54.507-1.1574-6.5553 14.877-24.89-5.0327-8.5417-12.611 18.028-25.555 39.293-38.718 54.979-15.862 20.732-11.73 3.0642 0.97598-7.251 6.9681-12.064 31.315-36.017 3.0612-20.741-30.847 0.63993 31.178-6.0406-1.6448-6.5773-15.264 1.2665 35.338-7.2746-1.4306-6.0087 15.98-2.9514 0.0703-7.8832 13.627-18.916-18.938 19.458-33.141 43.986-51.342 63.695-15.595 13.273-18.761 33.467 2.1526 10.472 13.96-19.69 13.761-7.0351 13.71 5.1005 29.449-21.803-12.314 21.13-17.879 32.797-15.853 12.357-38.062 36.955-39.308 50.86 11.798-18.708 41.943-20.408 10.133-6.0709-13.494 12.884-25.178 29.753-2.2364 12.717 23.831 2.4463 51.342-28.773 26.267-24.169 13.21 1.7589 42.912-21.651 18.283 1.5858-12.535 32.925-69.323 16.566-58.65 61.001 4.4786 6.8684 0.68589 11.739-2.4206 20.086-4.7839 13.337-36.767-38.519-59.328-15.487-33.316 9.6026 16.3 5.9719 26.776 16.189 34.434-7.3144 43.837 32.327 46.155 58.078-2.4095 16.711 29.557 62.921-0.73452 36.377-31.592-20.805 9.4277 48.235 30.147 41.35l3.9e-4 3e-5zm-7.4904-5.7443c-15.092-8.7464-29.491-36.204-6.3879-9.762 0.29907 1.6744 19.573 15.367 6.3879 9.762zm-3.5431-19.518c-7.4566-11.779 9.4529 8.8773 0 0zm-21.911-7.4834c-9.8174-16.31 8.9578 3.0438 0 0zm13.714-57.441c4.146-7.0944 14.363 3.0591 0 0zm2.343-6.6072c2.8729-5.9839 7.8417 3.2672 0 0zm3.0164-4.7471c0.29476-7.7127 9.3289 1.6959 0 0zm-12.685-3.4281c1.6757-2.4663 2.0681 1.3683 0 0zm31.773-46.113c-25.205-8.5373 20.046-4.576 0 0zm-27.808-1.961c9.3271-11.702-7.0342-12.866 5.3516-15.827 2.1597 0.85739 10.618-13.294 6.106-14.739 14.199-14.886-6.8221 45.508-11.458 30.565zm16.14 0.28248c2.8026-2.6231 2.8026 2.6231 0 0zm-28.721-0.51461c-4.0793-5.689 25.147-17.007 0.47421 0.27974l-0.47421-0.27974zm22.757 0.0554c1.1579-4.7464 7.8906 3.3592 0 0zm-16.604-45.414c3.1673-7.8584 3.7038 3.8405 0 0zm3.8989-2.2354c5.6787-2.6647 5.6787 2.6647 0 0zm7.1803-2.8012c9.7853-10.876 35.365-11.537 6.976-1.2007-1.9229-1.2025-6.077 5.3585-6.976 1.2007zm7.1803-17.208c4.453-7.7742 4.4589 1.1767 0 0zm10.082-10.404c15.464-23.482 14.879-11.096 0 0zm-5.0561-4.9936c11.408-13.828 39.831-43.993 14.953-12.9-4.3178 2.3217-10.272 15.087-14.953 12.9zm21.541-15.284c8.386-14.559 9.3406-3.6285 0 0zm10.526-13.933c5.9685-7.7612-2.1565 8.3036 0 0zm4.0141-5.9238c3.3558-4.2176 2.1439 3.1194 0 0zm-1.4879-3.8922c2.9963-4.808 1.0802 3.4282 0 0zm7.9591-11.503c8.1368-2.8415-4.5937 4.4008 0 0zm4.2762-6.505c15.399-27.004 11.384-8.7838 0 0zm-12.01-21.73c8.6596-7.7454 9.5436 4.1751 0 0zm7.3689-5.196c1.3686-6.9089 10.127 0.45841 0 0zm-0.32033-5.7876c9.8599-8.0387 27.495 1.2498 0 0zm174.62 324.84c8.8277-4.3429-22.262 0.98571 0 0zm17.191-0.72133c1.5218-1.4517 0.96349-0.89527 0 0zm-222.91-4.3781c8.5609-13.062 33.159-34.39 22.911-45.878-5.9472 8.4847-34.581 34.492-21.76 32.522 5.2834-12.002 28.87-34.258 9.6441-10.688-3.571 3.2748-19.516 35.48-10.795 24.044zm113.56 3.1662c18.402-2.397 68.921 4.7675 67.936-6.0359-32.979 3.6271-66.346 1.4154-99.459 3.2638-4.3969 7.864 26.142 1.6207 31.523 2.7721zm-373.31-0.65064c17.153-10.543-31.446-2.1418-4.2671 0.15099l4.2671-0.15099zm507.96 0.30599c40.743-3.4069-7.5535-5.9967 0 0zm-489.83-2.0676c-6.2814-5.6864-16.039 4.2029 0 0zm22.601-5.4644c4.8405-17.395 2.3765-23.781-2.0061-3.4384-2.3639 1.3141 2.593 11.326 2.0061 3.4384zm58.178 2.6862c8.8566-4.9177 49.338-21.433 37.41-21.311-29.098 19.51 34.594-29.947-0.49726-8.3831 7.0326-17.617 30.698-31.733 29.481-54.925 5.5013-21.515-6.1256-19.122-12.264-13.293 7.6236-15.086-11.053 10.048-3.4797-5.6119-13.582 8.0969-13.088 30.22-3.9889 11.976-2.5022 12.408-8.9992 64.149 0.77767 28.301-0.37181-13.059 8.1091-42.802 4.1785-13.174-3.8986 21.41 2.8354 20.921 6.8008 0.32169 0.72992-19.433 5.4125-25.425 2.5412-2.8541-0.95752 41.332-57.455 41.289-64.789 79.005l2.08 0.52576 1.7494-0.57786 3e-5 -5e-5zm16.527-21.13c7.3226-10.042 12.345-3.5834 0 0zm11.476-9.1549c2.8026-2.6231 2.8026 2.6231 0 0zm4.6672-2.1541c2.7603-2.5743 1.8404 2.6595 0 0zm244.6 31.166c22.266-3.8793 58.415 5.0633 73.153-6.6949-35.127 3.7071-71.117 1.1925-106.59 4.9768 0.0822 6.2879 25.463 0.84933 33.442 1.7181zm-383.43-1.9404c22.474-7.7409-26.918-6.5317-5.1183 0.55711l5.1183-0.55716v5e-5zm-3.3612-3.3455c3.9778-1.2446 2.543 2.3415 0 0zm24.001 4.2768c17.576-8.2725-21.751 1.888 0 0zm506.29-0.0332c29.098-5.9893-30.145-1.2149-6.1331 0.71317l6.1331-0.71322v5e-5zm-13.786-1.3328c-10.711-3.264-9.8098 3.9958 0 0zm-36.477-2.2241c-1.8404-2.6595-2.7603 2.5743 0 0zm-103.76-1.5064c29.338-1.5932 61.611 0.79461 89.216-4.2268-14.203-5.0374-41.804 1.6925-62.432-0.38796-12.242-2.7881-75.22 6.8998-31.495 4.9637l4.7113-0.34885v-5e-5zm143.91-0.35088c-11.537-8.4679-29.752 6.0407-2.8304 0.43323l2.8304-0.43323zm-498.91-1.0846c28.5-7.262-29.729-0.399 0 0zm519.97-0.49362c2.7124-8.5281-32.872 3.773-3.5563 0.28647l3.5563-0.28647zm-505.87-5.7194c2.845-10.366-6.8668 14.066 0 0zm333.67 2.0448c33.183-4.3407 67.473 0.91087 100.61-5.0964-12.694-5.6379-57.983 2.636-82.84 1.0139-12.963-0.41909-52.637 4.9233-17.765 4.0826zm138.19 0.0123c1.476-8.4998-28.278 3.001-3.9679 1.2293l3.9679-1.2293zm-504.05-0.16546c2.7446-14.136-33.101 2.4977-3.3385 0.56565l3.3385-0.56565zm21.581-2.485c20.396-6.8636-37.932 1.2627-4.7298 0.37781l4.7298-0.37779v-2e-5zm521.16-1.4856c0.86929-8.178-33.185 5.7474-3.5376 0.82547l3.5376-0.82547zm-24.558-0.56174c25.272-21.113-5.3668-24.734-23.386-15.761-6.8993-10.513 26.555-27.761 3.6871-16.961-24.473 24.958 8.7855 20.411 24.065 16.982 10.813 7.5874-23.158 17.812-4.3657 15.74zm-13.92-0.76567c36.705-11.633-51.911-0.78845-11.262 0.53026l6.5662-0.33223 4.6956-0.19806v3e-5zm-336-5.6457c-3.6999 4.5089-0.1226 9.0378 0 0zm192.2 5.3117c38.429-4.0723 78.833 2.4468 115.88-8.6457 23.939 2.3128-22.85-5.412-32.652 0.10453-30.569 3.3326-65.008 0.57083-92.99 8.1046l4.2405 1.146 5.516-0.70933zm-343.16-2.8966c36.893-4.9744-11.774-7.2585-14.663 1.2411 4.8984-0.17749 9.7586-1.0457 14.663-1.2411zm523.58-1.5404c18.28-1.6116-6.2141-5.8831-8.4042 0.794l3.6444 0.2705 4.7598-1.0645zm-544.93 0.38687c-6.2889-12.135-34.816 3.7363 0 0zm360.96-2.4114c28.55-2.2489 58.704-2.0673 86.701-5.2358 12.726 1.2674 60.389-4.9494 23.295-4.8014-38.731 2.6208-77.891 2.9287-116.27 8.0698-1.5331 4.245 4.754 2.2385 6.2786 1.9674zm-345.96-2.1791c5.7524-8.4118-29.057 4.1853 0 0zm502.87-5e-3c-2.6714-2.6963-3.9245 2.6286 0 0zm6.8213 0.0879c-3.175-5.4169-7.3597 1.1628 0 0zm-537.18-2.2421c23.598-7.6939-27.463-7.0744 0 0zm40.178 0.56723c31.183-7.8404-23.871-0.0619 0 0zm523.21-0.67979c16.218-8.0379-30.41 2.4773 0 0zm-182.09-2.0044c40.185-4.5904 80.967-3.0749 121.05-8.1051-23.983-5.0038-67.609 3.5211-98.873 2.6552-11.398-1.5664-56.626 6.575-22.177 5.4499zm-354.38-2.0318c-8.8614-9.2359-21.83 6.2397 0 0zm10.219-3.5025c17.327-7.052 37.754-22.761 9.4273-11.61-12.15-14.046 22.692-36.634-4.5973-13.405-17.169-1.9872-24.846 16.079-8.9018 27.643l4.0718-2.629v-2e-5zm-7.0463-4.8151c-14.33-33.658 26.902 2.8714 0 0zm7.1015-4.4523c-1.1158-7.2314-4.8544 4.0155 0 0zm531.22 9.5529c-2.6532-8.8702-32.918 5.9197-3.7604 0.57571l3.7604-0.57571zm-512.18-2.8343c-5.112-1.1154-0.85255 5.1516 0 0zm321.11 1.6904c43.159-4.2015 87.147-2.5708 129.96-9.097-14.347-3.9636-49.319 0.79102-71.369 1.7922-21.338 3.466-52.523-1.6929-68.215 7.677l4.263 0.23903 5.3616-0.61124v-1e-5zm-373.86-0.69338c-0.10944-12.969-30.152 0.0203-4.7007 0.5599l4.7007-0.5599h-1e-5zm148.1-0.13145c15.855-4.0238 9.0926-43.74 0.37477-13.591 1.4902 2.9516-9.388 18.388-0.37477 13.591zm-128.49-2.1755c-0.28474-12.16-29.118 8.4544 0 0zm158.65-2.0834c-3.0917-9.002-7.1169 6.9391 0 0zm5.46 0.14515c-1.618 0.67117 1.509 2.8431 0 0zm340.34 1.2149c2.2545-6.054-16.079 2.9219 0 0zm37.627-1.0006c28.472-5.1735-47.38-0.64441-6.3251 0.47775l6.3251-0.47775zm-496.55-1.7973c-3.5865-1.8247-4.5127 2.3438 0 0zm303.76-0.0476c43.796-2.2455 89.798-5.2986 134.44-7.6899 15.273-6.6889-29.972-0.92187-39.136-1.0165-33.292 3.136-67.46 2.1862-100.26 6.9761-1.5817 3.2254 3.7411 2.6369 4.9517 1.7303zm-381.62-2.9444c28.884-4.0125-29.005-6.8124 3.939-8.058 2.0072-22.359-30.151 7.8962-3.939 8.058zm25.648-0.10583c17.696-8.0564-29.997 3.8729 0 0zm530.18-1.3769c-9.6263-7.1985-29.98 6.816-2.562 0.84422l2.562-0.84422zm28.214-0.50462c3.4638-7.9979-27.073 4.5964 0 0zm-495.74-1.1716c13.734 0.30716 28.859-6.4 4.8688-2.8366-9.5344-2.1191-20.939 5.3902-4.8688 2.8366zm300.75-0.29987c48.068-2.1369 96.138-6.1172 144.2-8.5699-8.3078-5.5976-50.699 1.141-70.854 0.69586-28.519 2.362-57.445 3.3644-85.773 6.5653 1.7726 4.3435 9.7458 0.14021 12.431 1.3087zm177.17-7.0495c-8.7006-11.011-54.712-21.575-22.691-5.1955 6.9215 0.17296 20.438 18.038 22.691 5.1955zm-18.465 4.1844c-8.8492-7.641-18.129 2.7794 0 0zm31.676-1.458c24.076-1.3535-7.9157-7.3576-4.4273 1.0887l4.4273-1.0887zm-51.698-0.44564c-2.9069-1.3754-1.7182 2.4517 0 0zm-461.29-1.3352c-2.3604-7.0988-13.422 4.8142 0 0zm28.68-0.51733c37.721-2.6995-10.922-8.095-17.053 1.1221 5.7168 0.58795 11.394-0.56865 17.053-1.1221zm297.98 0.0618c43.626-2.0246 87.212-4.9359 130.7-7.816-12.148-7.8092-55.581 3.0254-79.615 1.3158-12.248 0.59016-93.432 4.2943-51.087 6.5003v-7e-5zm-375.7-1.9035c-8.0539-1.1371-1.4728 1.1268 0 0zm9.8631-0.93062c-6.8468-1.4323-0.80186 1.7744 0 0zm564.17-3.3632c-11.205-5.6697-42.173 3.2123-8.9333 1.5862l5.8737-0.62004 3.0596-0.96615v-6e-5zm-513.55 0.20057c15.033 1.0986 54.578-4.931 18.381-4.6535-11.366-0.91116-50.978 6.6204-18.381 4.6535zm318.14-0.44892c37.17-2.0343 74.61-3.2158 111.45-7.6497-20.483-6.328-63.122 2.5381-92.24 2.3041-14.267 0.0155-58.022 8.5308-19.212 5.3456zm-372.78-0.78104c38.148-3.9777-26.171-2.0781-6.507 1.0367l6.507-1.0367zm271.45-0.1762c6.5065-16.024 8.0828-29.108-0.54439-9.9465 4.4595-27.003-13.525 17.912 0.54439 9.9465zm-304.78 0.26056c24.588 0.93779 3.7143-8.991-1.1216-8.7074 20.114-1.2998 7.1406-11.352-4.6226-6.5576 25.549-7.2626 0.9387-16.562 0-12.738 28.555-5.5162-22.63-4.3701 6.9594-10.497-4.9662-4.841-21.543-1.9892-0.50814-7.3679-28.327-15.222-6.1565 34.631-0.92307 46.667l0.21603-0.79797zm61.433-2.4544c-0.60201-6.9167-10.993 3.8341 0 0zm523.04-1.0929c18.829 1.0998 26.582-8.6306 2.1588-4.266-12.804-8e-3 -41.676 4.5914-12.861 5.2691l6.5948-0.42742 4.1076-0.57564zm-182.07 0.0498c12.069-3.2816-8.8573-2.1537 0 0zm-371.39-3.1822c-13.632-4.2863-17.406 6.0013 0 0zm73.818 0.27102c20.555 0.66875 21.648-5.0804 1.3076-2.0022-17.712-1.3795-37.471 4.9316-7.9406 2.253l6.633-0.25079zm313.52 0.50755c-6.8163-2.1477-6.6988 2.5654 0 0zm114.82-0.27615c20.16-8.7512-27.261 1.4285 0 0zm-471.17-2.1188c13.411-6.0212-41.26 2.7598-8.2375 1.208l4.127-0.4455 4.1105-0.76248zm325.73 0.3977c-1.8345-2.5759-1.8346 2.5759 0 0zm169.85 0.0463c13.122 0.23619 74.717-8.5684 29.762-6.4705-4.8157 0.3593-58.759 2.9233-29.762 6.4705zm-522.1-1.6619c24.137 0.7189 40.771-26.747 22.538-28.229 13.823 17.837-7.3269 16.756-13.894 10.311 0.5954 27.298-18.243 1.1093-17.43-1.1116-20.926 12.931-5.4982-1.758 2.6988 9.3366 4.5314-1.906 0.76074 16.376 6.087 9.6934zm425.13 0.23728c26.85-3.8227 55.761-0.20094 81.497-5.8791-34.873-0.1955-70.847-0.69922-104.74 6.8536 7.6109 0.81706 15.602-0.41812 23.245-0.9745zm-351.48-2.6962c44.259-7.7647-62.108-1.5703-15.651 0.7994 5.2211-0.1654 10.449-0.28446 15.651-0.7994zm-81.497-0.59269c-9.6161-3.6764-11.883 3.9571 0 0zm355.79-1.4361c-4.6642-5.2593-0.85204 4.9018 0 0zm14.856-0.0505c-4.176-6.9116-2.7145 4.3494 0 0zm-332.9-0.51972c12.697-6.942-16.444 3.3689 0 0zm322.71 0.21118c-2.5765-2.7337-0.89171 2.8307 0 0zm4.6672 0c-1.7709-2.5578-0.86837 2.6252 0 0zm10.488-0.41774c-9.2985-10.273-0.61838 6.7271 0 0zm56.549-0.47002c26.968-1.8416 53.935-3.4052 81.004-3.0614-7.2039-12.065-54.213 3.3031-74.922-0.40248-21.02-4.9178 29.79-3.0724 37.416-4.9161 13.221 0.73668 64.776-5.795 25.432-4.1762-22.533 5.3462-69.038-6.8741-76.45 10.316-5.4907 4.7586 7.4218 3.5934 7.52 2.2398zm90.607 0.96388c16.3-0.76746 51.18-5.3857 14.635-3.0533-2.1506-1.7136-31.534 2.3373-14.635 3.0533zm-526.47-3.1277c6.6748-2.8782-18.852 2.1622 0 0zm105.27-5.3578c-1.4544-18.478 47.011-50.814 10.714-32.138-9.2708 12.418-11.459 10.351-14.964 21.879 11.416-27.144-7.7966 34.005 4.25 10.259zm6.8618-23.902c0.86837-2.6252 1.7709 2.5578 0 0zm470.9 27.129c-9.9777-6.2128-22.844 6.7339 0 0zm-504.66 0.7612c53.746-5.8036-60.761-1.6549-13.098 0.57839l5.9803-0.24368 7.1176-0.33471zm284 0.22393c-3.2657-7.4219-5.3625 3.5107 0 0zm4.8967-1.4241c-3.4428-8.5169-3.0227 8.6636 0 0zm-129.12-0.12326c-1.8345-2.5759-1.8346 2.5759 0 0zm183.1-1.4361c0.71523-2.8829-5.9869 2.5734 0 0zm124.8-2.2622c22.142 5.932 24.516-12.529 4.1552-16.766-7.3422-12.445-29.984-14.353-8.2138-2.5131 11.241 20.701-37.196 16.541-3.0848 19.356l7.1434-0.0775zm-3.1671-5.221c-0.92069-23.321 33.179 10.338 1.9442 0.80925l-1.9442-0.80925zm-473.82 4.2195c10.749 1.5674 42.472-5.3084 13.332-4.9203-11.464 2.1769-52.903 5.2654-17.862 5.0284l4.5298-0.10807zm355.79-1.0444c-6.0596-2.6699-4.4222 2.7177 0 0zm-425.53-2.5131c-9.2859-4.0245-18.564 4.6125 0 0zm34.74-0.35902c-2.4586-4.3461-7.7774 3.8212 0 0zm424.57 0.66785c24.678-3.7732 51.736-0.18628 74.842-6.954-33.694 0.20114-68.639 1.3344-101.99 5.3961 8.6014 2.8434 18.247 2.5313 27.148 1.5579zm128.19-2.8809c-4.5518-7.4374-23.918 5.5216-2.1103 1.148l2.1103-1.1479v-4e-5zm-300.55 0.777c-1.7709-2.5579-0.86839 2.6252 0 0zm-218.64-1.0367c16.788 0.73049 40.937-6.7637 11.282-3.5324-16.11-1.7061-51.418 6.4283-11.282 3.5324zm-69.29-2.9494c-10.263-3.5231-12.596 4.475 0 0zm35.184 0.47187c-4.6739-2.0444-4.6751 2.3105 0 0zm409.85-0.98757c29.913-0.51979 60.542-2.5791 90.561-5.2725-32.224-3.253-67.138 1.1206-100.28 3.1793-9.5273 3.266 8.402 4.4383 9.7234 2.0932zm141.44-2.2787c-8.4505-6.0272-37.888 1.6082-10.998 0.71055l7.3665-0.23418 3.6317-0.47637zm-561.02-1.2101c-10.824-2.8507-16.077 3.2476 0 0zm30.061 0.67446c14.703 0.52077 63.545-5.2495 21.863-3.7562-3.3123-0.80477-46.662 4.7217-21.863 3.7562zm-56.233-1.3003c29.35-6.184-36.472 2.0908 0 0zm31.899 0.0187c-5.5047-0.89862-4.143 1.9506 0 0zm422.97-2.1739c23.884-3.8721 54.004 1.4601 74.712-7.0228-31.97 1.3224-64.332 0.9938-95.926 5.4849-0.72844 5.9331 17.131 0.97937 21.214 1.5379zm-351.48-0.71689c-2.8026-2.6231-2.8026 2.6231 0 0zm477.13-0.81956c41.448-7.7696-60.809-1.1863-8.7465 0.58327l4.1158-0.28834 4.6308-0.29493zm-560.29-0.38897c-3.1475-1.0285-0.3112 1.382 0 0zm5.6096-0.22754c-1.8346-2.5759-1.8345 2.5759 0 0zm43.082-1.0552c14.285 0.0498 57.022-6.3175 18.474-3.3782-14.746-1.17-56.178 6.0758-18.474 3.3782zm134.97 0.0174c28.29-0.19655-39.53-4.254-1.4126-4.7412 5.5823-3.4597-31.736-5.6556-10.043 5.4183l4.5052-0.39157 6.9501-0.28564v4e-5zm-209.86-0.39828c4.5532-4.149-20.278 2.3727 0 0zm237.64-0.23823c-15.19-3.283-14.61 2.8524 0 0zm219.6-2.6157c20.057-2.533 70.509-0.50977 74.79-6.5055-31.481 0.53372-62.884 1.9301-94.267 4.0013-4.482 7.2377 16.495 1.9295 19.476 2.5043zm-429.74 0.0814c-4.7403-1.215-4.7494 2.1144 0 0zm21.536-0.7694c29.96-4.638-47.27 0.35168-5.6623 0.29254l5.6623-0.29254zm522.79-0.0759c15.547-0.68748 42.587-5.5897 10.54-4.5616-9.9931-1.4148-45.413 5.5378-15.522 5.1185l4.9827-0.55697v4e-5zm-558.1-1.4966c13.389-1.5083 44.581-14.611 15.423-7.9716-6.5083-8.7025-26.285-28.805-26.013-2.8333 5.0155 5.1157-0.46675 16.81 10.589 10.805zm-5.8907-5.734c-8.196-36.303 31.115 7.4032 0 0zm217.84 6.4266c17.194-2.6472-25.835-1.0352 0 0zm-11.222-0.45533c-2.3433-2.5855-5.2235 2.2258 0 0zm-120.9-1.6246c35.716-4.9922-63.4 1.6988-9.9285 0.6852l4.8404-0.30538 5.088-0.37982zm142.17 0.39848c-4.4847-4.1934 1.1547 4.0051 0 0zm-236-0.11344c-5.948-7.2133-15.876 4.5597 0 0zm-22.756-2.3997c24.902-11.996-27.789 0.0563 0 0zm230.39-0.71803c-6.6377-1.9279 3.6736 2.4571 0 0zm254.9-0.34975c20.701-0.87266 53.258-0.38737 76.583-5.6046-27.193-1.7693-58.495 3.1706-87.377 3.2191-27.13 2.4874-1.6319 4.8046 10.794 2.3855zm106.63-1.1331c-11.422-3.9181-35.92 3.4034-9.3848 1.1592l6.5344-0.60554 2.8504-0.55366zm-498.4 0.0429c-17.828-2.7947-28.145 3.5578-3.8322 0.63289l3.8322-0.63289zm132.63 0.82314c-19.254-4.9143-21.11 1.5855 0 0zm20.401-0.10123c-2.6714-2.6964-3.9245 2.6287 0 0zm3.5902 0c-2.8026-2.6231-2.8026 2.6231 0 0zm-141.45-1.6662c13.204-2.9134-29.173 0.98419 0-4e-5v4e-5zm513.21 0.49561c-0.31566-5.4244-29.798 2.4672-3.2233 0.30843l3.2233-0.30843zm-603.5-1.5657c14.216-5.5388-18.622 3.2154 0 0zm107.34 0.84987c-0.10714-6.0113-19.799 3.0081 0 0zm10.599-1.7036c-4.2408-2.5863-5.2979 2.6694 0 0zm7.3598-0.49496c-5.5615-1.1174-1.0678 1.155 0 0zm75.573-0.88943c-26.692-8.0592-13.812 3.4773 0 0zm275.71-0.73124c18-4.1676 64.564 1.032 67.778-6.768-31.067 2.1878-61.996 2.7783-93.078 4.9694-8.8293 6.0914 22.008 1.3312 25.3 1.7987zm-392.92-0.36814c22.744-6.0545-50.62 0.17981-14.252 0.54652 4.7541-0.0776 9.5043-0.29221 14.252-0.54652zm347.99 0.43467c-5.1432-6.4088-6.6387 2.1984 0 0zm120.12-0.55489c-6.8748-2.5473-6.2269 1.2413 0 0zm20.228-1.3736c-10.571-3.9145-17.974 6.3814 0 0zm31.681 0.83585c6.05-8.1829-26.194 3.67 0 0zm-428.89-1.5481c-11.962-6.4673 1.9869 5.8458 0 0zm408.06 1.0553c25.949-33.562-44.438-49.093-31.38-9.29 7.031 8.1377-4.3502-27.939 17.463-20.249 28.111 1.8718 6.236 25.829 13.917 29.539zm-596.47-0.97908c-1.6753-14.167-27.207 7.4762 0 0zm134.42 0.28c50.074-5.173-59.893-0.33702-6.3761 0.40841l6.3761-0.40879v3.8e-4zm319.88-0.3335c-8.2454-1.7236-0.7381-10.744-12.126-0.92392 3.9101-0.31364 8.8031 3.0984 12.126 0.92392zm-400.43-2.2957c-7.7944-2.8241-11.247 4.0293 0 0zm122.32 0.14156c-12.255-4.646-4.0918 2.9444 0 0zm3.3711 0c-2.5169-3.8002-1.7073 3.8772 0 0zm19.127-0.017c12.116-1.6838-18.036 0.35876 0 0zm-127.63-0.0848c8.7088-4.9174-15.918 0.58635 0 0zm412.45-1.8411c22.777 0.37406 48.953-1.9559 73.351-3.4114-25.005-4.5858-57.538 1.2117-85.008 2.1059-26.679-1.964 7.1843 5.4732 11.657 1.3055zm-371.87-0.68332c14.924-3.3837-42.704 1.6189-2.9905 0.61382l2.9905-0.61391v9e-5zm135.83-2.512c-13.495-27.351-7.2491 8.8124 0 0zm343.83 2.2254c-1.171-8.2189-28.537 4.0037-3.2256 0.88541l3.2256-0.8854v-1e-5zm24.573 0.12392c16.331-5.7923-24.091 0.12595 0 4e-5v-4e-5zm-600.77-0.43436c3.9198-3.9525-12.298 1.833 0 0zm117.45-0.0383c32.759-0.41108-14.737 4.8236-11.595 0.42448 3.8495-0.44732 7.729-0.37836 11.595-0.42448zm50.347-0.68766c-5.0881-2.195 1.2833 2.5472 0 0zm-116.68-1.1409c15.341 0.074 57.95-3.1671 18.341-3.061-11.51-1.0001-65.446 4.0498-25.177 3.3986l6.836-0.33764zm105.91-0.95464c30.992-16.396-6.2662-6.368 0 0zm-174.66-0.42956c3.9942-13.263-29.417 6.2667 5e-5 0h-5e-5zm116.56-1.0651c6.6966-4.6452-14.282 1.3473 0 0zm-99.147-0.66538c-0.61806-4.2768-16.49 3.2346 0 0zm119.88-0.8147c-19.529-2.4373-14.849 4.4549 0 0zm28.725-1.479c-9.5379-3.6003-41.203 3.4445-12.722 1.5261 4.2626-1.0156 9.1986 2.4958 12.722-1.5261zm321.41 2.2144c14.586 2.1733 53.605-1.5463 55.202-4.7139-23.918 3.0691-56.38 0.0561-71.134 5.2238 5.2973 0.31662 10.698 0.59847 15.932-0.50995zm108.5-1.8434c-10.125-7.1812-30.402 6.405-2.3763 1.0922l2.3763-1.0922zm-529.82-0.70228c33.784-3.9418 69.166 1.6079 102.09-5.6851-20.607-0.44964-48.895 1.7372-72.694 1.8255-12.033 0.0246-78.355 4.5952-37.419 4.64l3.9196-0.35824 4.1052-0.42221h1e-5zm554.1 0.72389c10.454-5.1322-25.852 1.0941 0 0zm-452.01-0.70706c-2.0681-1.3683-1.6757 2.4663 0 0zm89.036-1.3258c6.2193-24.007-13.104-1.9612 0 0zm-262.26-1.8586c22.511-8.0648-19.401-6.6401-5.6804 1.0013l5.6803-1.0013h2e-5zm21.541 0.26104c4.6865-6.4964-14.823 1.8215 0 0zm307.68-0.023c-3.9541-1.1654-0.71762 1.2567 0 0zm177.04-0.23491c13.882-0.0381 70.984-6.8616 27.228-5.3627-12.059 2.8491-58.831 0.84392-51.217 6.0616 7.9961-0.23976 15.989-0.59997 23.989-0.69899zm-466.78-0.50514c-4.7325-1.0626-0.91896 1.1906 0 0zm141.79-0.30342c14.011-2e-3 37.054-4.7821 7.0674-5.634-4.1114-2.9072 47.746 1.6475 30.684-6.6819-4.9591-3.2842-3.2869-1.3277-0.20235-8.1293 4.7567-30.758-32.371-7.1472-35.195 2.4002 23.434-9.423-17.367 12.529-2.3539 18.045zm24.428-9.9722c-14.883-6.4718 20.323 2.8878 0 0zm-13.805-0.67297c0.76901-4.6545 12.619 4.5423 0 0zm-4.3082-2.5555c2.5169-3.8002 1.7073 3.8772 0 0zm21.182-1.7951c0.86837-2.6252 1.7709 2.5578 0 0zm-11.518-1.4838c0.21151-4.2005 4.0757 2.8088 0 0zm365.84 14.991c1.651-11.34-12.243 3.4745 0 0zm30.365 0.94627c-3.6825-3.9485-20.273 2.1385 0 0zm-518.96-1.1576c13.679-2.9547 65.586-1.4751 58.072-4.83-23.244 2.0092-61.052-4.0082-76.304 5.8983 6.0794-0.30588 12.17-0.47338 18.231-1.0684zm173.89-3.5146c-0.0856-21.207-46.632-54.946-24.926-17.703 6.2764 15.136 24.191 26.513 8.8712 4.0251-14.364-29.783 8.355 7.4543 12.98 17.775 1.8829-0.10228 4.459-1.72 3.0752-4.0973zm86.085 3.2198c10.603-15.026 27.411-28.02 34.191-44.119-9.0731-2.885-28.064 30.333-36.337 44.053l1.466 0.70756 0.68062-0.64144zm292.6-0.10186c0.95092-8.4953-27.68 3.3979-2.7876 0.52496l2.7876-0.52496zm-138.27-2.9145c21.859-2.3715 48.782 0.30142 67.563-7.2328-23.245 2.5101-65.644 0.61083-76.663 8.3054l3.1687-0.53885 5.9312-0.53366v-2e-5zm-335.46 0.0511c19.766-0.20067 26.109-3.0933 3.168-2.7696-12.35-1.6516-26.837 4.6814-3.168 2.7696zm-130.32-1.5766c-12.288-4.3268-17.202 6.064 0 0zm-29.66 0.15701c33.341-1.9182-11.62-13.091 0 3e-5v-3e-5zm45.954 0c19.817 8.6612 32.776-28.582 14.177-4.6919-8.5305 3.0861-48.37-1.7652-14.177 4.6919zm186.33-0.41885c-2.5087-3.1957-2.546 3.8336 0 0zm109.14-1.0513c-0.20279-4.0798-10.607 4.4872 0 0zm290.44-0.99257c9.2758-3.2741-32.717 1.1446-3.6444 0.63484l3.6444-0.63485v1e-5zm-367.43-1.805c5.9975-9.1999-15.328 5.5894-0.16483-9.2818-6.5441-7.4344-10.217 3.8488-5.1011-10.909-28.087-0.93811 0.82023 10.707-0.5038 13.422-8.6195 2.0203 1.9384 13.86 5.7698 6.7685zm-174.41 0.74426c25.66-3.7383 72.29 3.8825 86.737-5.8-26.192 3.1038-58.538 2.5252-87.101 3.3616-17.812-0.60016-21.614 4.9943 0.36349 2.4384zm-63.104-0.78474c7.243-7.2604-17.253 2.0137 0 0zm313.78 0.0837c7.1486-17.557 25.977-30.518 35.081-45.411-15.258 15.178-26.254 20.16-33.502 35.043 6.8295-17.727-13.522 16.512-1.5799 10.368zm0-6.4613c1.1848-3.3523 2.492 1.2378 0 0zm11.23-16.38c-1.5623-3.6406 4.22 0.34246 0 0zm223.18 22.091c-4.7846-5.019-15.179 3.9215 0 0zm-53.107-1.452c13.981-1.2283 69.237-4.6336 27.998-4.2867-10.55-0.20389-57.174 2.4216-47.502 5.595 6.5049-0.323 13.058-0.27489 19.503-1.3083zm108.19-1.3312c21.612-5.5526-41.541 2.3899-5.1357 0.46055l5.1357-0.46055zm-575.09-0.6473c-7.1634-1.0799-1.4012 1.0997 0 0zm-49.331-1.2583c27.442-7.1703-27.312-4.5601 0 0zm84.652-0.32095c26.75-1.4244 52.878-0.80835 80.98-1.5435 16.462-5.0903-33.008-0.76302-41.446-2.1154-8.3099-0.5245-74.801 2.7756-39.534 3.6589zm486.51-0.0316c31.695-4.1207-18.153-2.3346 0 0zm-548.12-1.1136c-4.7753-4.2266-13.151 3.0436 0 0zm15.335 0.44394c22.942-2.0354 18.623-5.6479-2.423-3.3412-16.424-1.5886-1.7952 5.2634 2.423 3.3412zm227.2-4.3931c-0.31305-19.263-11.354-44.447-26.151-60.953-9.7264-19.702-16.463-16.946-8.6881-2.1041 6.123-0.20363 32.678 50.908 24.484 46.532-4.7174-13.033-31.534-61.917-20.544-24.748 1.1369 18.483 33.409 33.459 30.899 41.273zm258.47 2.217c16.085 0.24794 55.893-5.0811 17.501-4.2003-16.273-1.4116-63.989 6.886-21.601 4.8272l4.0999-0.62693zm91.984 0.2884c35.691-3.6688-62.36-2.6815-11.848 0.64298 3.9695 0.32327 7.8803-0.75982 11.848-0.64298zm-435.09-3.065c-3.9524 1.2852-2.9854 6.2094 0 0zm-85.844-0.53939c12.718-0.18257 38.964-2.8819 8.7122-2.904-12.502-1.4438-51.544 4.3652-17.45 3.3771l3.8782-0.11989 4.86-0.35323zm-69.473-0.11965c8.8758-0.91452 46.703-4.2102 15.834-3.7637-9.7772-1.4336-45.433 5.4822-15.834 3.7637zm559.35-0.66203c26.622-5.8485-52.188 2.7698-6.2301 0.42358l6.2301-0.42358zm-428.66-1.1677c5.3599-4.9763-54.179 1.2474-18.902 1.1939 6.2786-0.30755 12.795 0.67298 18.902-1.1939zm24.032-3.7958c13.713-18.909-12.912 11.707 0 0zm-10.929 2.536c-7.2056-4.0323-9.7496 4.225 0 0zm355.43 0.60334c13.25 0.84875 69.016-4.7088 26.65-5.5813-12.247 0.57452-74.252 4.8769-34.447 6.1744l4.0059-0.24823 3.7911-0.34495v5e-5zm74.214 0.19345c0.45694-5.7577-5.9558 4.1015 0 0zm-593.66-0.82205c1.0517-15.411-30.419 6.0035 0 0zm57.036 0.0253c-1.7709-2.5579-0.86839 2.6252 0 0zm549.3-0.35902c-11.215-3.705-13.516 3.9079 0 0zm17.592 0.35902c-9.3961-2.3199-11.289 2.3869 0 0zm-611.76-2.1541c16.026-0.32105-12.808-3.9396 0 0zm74.906-1.3796c9.6543-6.2005-49.243-0.0718-9.9503 0.99558l6.6777-0.42362 3.2726-0.57196zm-30.388-0.0565c-2.7603-2.5743-1.8404 2.6595 0 0zm63.324-0.27449c63.14-4.7386-70.759-0.48578 0 0zm69.377-0.39722c11.64-9.8663 18.173-21.884 29.11-28.574 14.543-10.501-13.874-67.257 13.186-34.115 14.846-9.4885-7.9001 13.401 12.194 12.14 13.47-10.264 20.959-25.023 3.0873-40.138-8.566-20.414-23.832-42.569-51.656-40.78-12.047 2.5811 19.414 31.623 32.427 35.131 16.201 4.4387 32.323 20.211 5.4234 8.9003-8.0525-8.1208-22.215-2.023-29.697 5.1629 16.151-11.512 18.055-16.053-0.29762-27.663-8.9149-14.78-47.288-41.869-9.6219-23.922 21.98 0.44874 34.455 9.9657 48.075 11.683 22.066-7.3627 12.216-2.2129-2.5517 4.0501 14.701 1.9722 11.116-3.8445 3.393 7.5909 21.453-8.2497-3.9064 4.7217 7.8501 5.4933-5.0968 7.7542 15.99 27.518 7.5282 3.1706-7.3877-9.8436 12.355-32.085-1.2696-41.709 0.0678-3.7487-9.0262-10.262-21.314-9.3242 21.391-4.313-7.5185-3.1342 2.6882-10.899-10.724 0.95154-0.33318-11.244-21.352-6.6093 12.62-22.103 49.54 46.47 41.82 2.1628-1.1213-18.703-29.505-40.786-32.227-24.949-10.843 1.3891-16.213 8.5372-15.178 3.9616-10.232 7.5345-25.549-1.5657-12.768 6.8328-17.408-0.19377-14.423 9.4908-31.873 9.5948-7.5274-1.3669 18.139-7.8916 1.9272-9.6953 5.2375-2.43 23.889-7.1459 15.042-11.675 13.477-4.6821 36.663-6.1662 41.838-18.489-23.781 0.0104 8.7147-3.7642-9.0835-6.0122 5.2915-6.4472 29.823-12.686 11.408-3.6483-2.9728 29.147 49.501 5.0408 55.53-0.60348 6.1993-11.873 8.0894-21.718 9.7626-1.2331 9.1329 1.6195 41.869-4.0434 14.291-4.0773-39.619 3.6759 39.926-5.8158 2.5076-5.504-8.7151-5.5093 16.715-1.8379-3.9844-7.56-4.3229-8.5367 40.902 16.248 17.472 20.584 12.826-4.6083 16.454-0.21254 31.471-3.0638-14.601-2.5371 13.158-22.652-7.6166-28.29-2.1529-16.264-44.847-5.1747-64.626-3.899-25.546 9.3556-54.8 15.113-76.142 32.93-16.193 18.221-37.862 30.898-51.421 51.521 1.3322 5.1581 36.798-4.3706 11.627 4.8389-21.821-1.222-16.619 6.5384 0.89416 3.2033-27.423 7.2027-7.5973 3.6265-4.83 6.595-16.768-6.0047-37.049 30.939-14.825 25.205-20.294 0.31165-5.3273 22.765-2.963 16.751-14.288 4.0089-3.1777 19.332-11.094 30.538 19.419-3.0312-11.55 3.6157 1.4848 16.671-10.493 17.402 42.232 5.4974 8.8914 10.266-24.533 5.2955 33.569 5.2401 0.96589 6.9856-21.844 0.8711 32.759 7.0085-1.3247 4.8295-10.839 8.0677 20.092 10.715 23.6 1.2599 2.53 16.124-7.8493 40.874 8.0421 13.997 7.0237-8.3888 27.651-38.864 12.796-10.593-9.5658 13.053-24.503 55.229-1.9647 20.589 8.0782-18.286 16.813-16.201 1.5256 0.62359-0.45185 5.8346-10.524 26.786 1.8205 19.764zm-2.2112-11c2.266-6.87 7.7761 2.3848 0 0zm14.553-18.486c1.8345-2.5759 1.8345 2.5759 0 0zm-53.765-10.659c3.4758-5.9106 18.265 2.4543 0 0zm17.145-9.708c6.8838-20.929 8.7542-4.0608 0 0zm17.668-2.1906c2.3255-3.9717 1.3735 3.3667 0 0zm3.1548-11.506c1.2817-6.1435 2.1448 5.1418 0 0zm-42.682-0.30683c-6.1265-4.9005 17.807 1.9883 0 0zm53.122-3.8642c6.0447-17.135 1.1092 10.192 0 0zm36.951-0.46171c12.453-6.9878 25.555-0.76366 0 0zm-89.364-1.4633c8.2428-1.0954 0.65952-0.47575 0 0zm44.846-1.4857c1.8345-2.5759 1.8345 2.5759 0 0zm42.753-2.0039c5.9843-5.8028 13.169 1.4432 0 0zm19.501 0.11396c-3.7672-15.906 8.6356 0.52951 0 0zm-52.413-1.4859c-0.45205-6.5312 5.2192-1.3274 0 0zm-56.866-0.9207c1.6267-2.4944 2.8963 1.3844 0 0zm101.24-1.0776c9.0922-2.054-5.5901 3.105 0 0zm-50.621-2.8833c1.7802-3.7833 1.7802 3.7833 0 0zm-42.364-6.5149c3.2127-3.3976 3.7126 3.924 0 0zm10.905-0.12686c7.8079-6.4832 3.8859 6.027 0 0zm-6.7897-7.8308c4.7852-1.3098 0.86356 1.305 0 0zm-9.6882-6.4846c6.4344-1.201 1.1607 1.1919 0 0zm9.1633-0.94272c5.0274-2.6592 3.5266 2.7139 0 0zm-13.643-6.1033c9.411-4.2279-1.4163 4.5045 0 0zm13.643-0.35902c2.7603-2.5743 1.8404 2.6595 0 0zm3.5902-0.71803c0.86833-2.6253 1.7709 2.5578 0 0zm66.059-1.4361c-3.7928-5.2116 7.4827 5.3366 0 0zm-67.816-6.401c0.22972-3.5139 3.2456 1.366 0 0zm17.554-2.2154c2.8026-2.6231 2.8026 2.6231 0 0zm80.099-0.65671c0.43273-4.885 8.6341 4.2126 0 0zm-111.89-3.3706c1.8292-4.8956 9.9521 1.9032 0 0zm15.994-1.2812c2.8033-2.3412 2.8778 1.2746 0 0zm5.8639-1.1539c2.2945-3.0473 2.4611 2.6493 0 0zm75.274-2.0339c4.3406-5.1024 9.7708 2.6925 0 0zm11.489-2.9398c9.4876-6.7104 19.611 1.5854 0 0zm-28.98-1.9868c-1.5623-3.6406 4.22 0.34244 0 0zm-62.928-0.93786c3.9244-2.6287 2.6714 2.6963 0 0zm67.974-0.47869c-1.504-4.2017 4.2017 1.504 0 0zm4.5475-1.3164c3.1482-3.8094 4.8393 3.6887 0 0zm4.3082 0.52315c18.62-7.912 26.745-3.1158 2.3336 0.25292l-2.3336-0.25292zm-66.059-0.83979c1.6757-2.4663 2.0681 1.3683 0 0zm5.2207-1.1942c2.8432-1.5088 0.67094 1.6182 0 0zm-31.613-0.76128c-1.2203-4.3825 9.3115 0.20721 0 0zm75.936-1.318c2.7518-3.8639 2.7518 3.8639 0 0zm7.6395 0.57884c-1.5623-3.6406 4.22 0.34247 0 0zm-42.105-1.6559c1.8345-2.5759 1.8345 2.5759 0 0zm50.641-0.9893c35.802-9.4512 6.875 2.6715 0 0zm-24.074-2.6009c1.8345-2.5759 1.8346 2.5759 0 0zm7.5466-0.70633c1.6268-2.4944 2.8963 1.3844 0 0zm8.2501-1.7644c1.3625-3.6156 2.2303 2.604 0 0zm6.2034 0.53646c-1.5623-3.6406 4.22 0.34246 0 0zm-88.777-0.83821c15.344-9.2325 8.4338 1.9471 0 0zm92.626-1.093c5.8268-6.6976 6.9406 4.2388 0 0zm-47.914-0.15854c2.8433-1.5088 0.67093 1.6181 0 0zm23.999-2.1794c-0.34246-4.22 3.6406 1.5623 0 0zm-54.351-0.93452c1.6756-2.4663 2.0681 1.3682 0 0zm70.367-2.1965c1.8345-2.5759 1.8345 2.5759 0 0zm26.358-7.3141c-16.659-18.364-2.0988-15.394 2.8783 2.9104l-0.83934-0.21533-2.039-2.695zm-31.384 1.5698c1.8345-2.5759 1.8346 2.5759 0 0zm5.7443-0.41167c3.2127-3.3976 3.7126 3.924 0 0zm-22.977-4.2132c1.7182-2.4517 2.9069 1.3754 0 0zm6.2184-0.21511c-0.76124-6.954 9.1052 3.0392 0 0zm7.6037-1.8019c12.13-3.2851 13.902 3.2921 0 0zm-22.439-10.565c-7.5826-4.2926 24.706 1.6146 0 0zm18.992-0.80235c9.8077-6.4659 15.476 3.1874 0 0zm26.349-0.90726c-6.5122-8.5097 9.1847 4.5449 0 0zm-24.517-4.6957c4.6914-7.1021 8.284 2.0987 0 0zm-1.9874-2.3949c-0.99696-7.5981 4.1884 2.2061 0 0zm4.4115-3.576c7.9857-9.0982 9.3644 1.342 0 0zm-19.159-26.164c-1.2769-5.1286 4.881 2.7209 0 0zm62.33-4.5671c1.8404-2.6595 2.7603 2.5743 0 0zm5.0262-1.4361c1.1965-4.1263 4.3969 2.3653 0 0zm5.1862-1.9551c8.5969-5.1005 8.2914 4.0192 0 0zm-55.807-1.2761c2.7518-3.8638 2.7518 3.8639 0 0zm53.852-3.1888c1.6757-2.4663 2.0681 1.3683 0 0zm70.736-3.5763c-10.475-18.681 10.259 10.328 0 0zm-60.683 1.3798c3.7645-2.6458 3.7646 2.6458 0 0zm-55.869-0.78313c13.984-5.3537 41.085-2.9938 10.274-0.75361-1.1248-2.4814-9.5839 3.1308-10.274 0.75361zm119.38-3.3456c-6.2873-10.182 5.9165 4.4151 0 0zm-52.02-1.95c6.6256-4.6465 7.6922 4.0572 0 0zm6.4623-0.38358c2.8026-2.6231 2.8026 2.6231 0 0zm-52.057-2.8721c7.5872-2.6719 7.5872 2.6719 0 0zm9.8609-0.14343c16.461-5.1342 12.861 1.8146 0 0zm87.612-1.7682c-4.0466-6.6011 7.4603 1.5774 0 0zm-86.663-3.769c17.957-5.1007 29.909 1.7072 0 0zm23.297-1.4997c2.8026-2.6231 2.8026 2.6231 0 0zm1.7951-3.5902c0.66269-2.6319 7.6934 2.4914 0 0zm-45.946 248c10.756-13.995-22.599-38.018-20.974-12.781 8.6558-0.32535 15.426 16.797 20.974 12.781zm-88.211-1.1235c21.592-3.2535-30.578 2.1696 0 0zm474.32 0.55999c-1.2597-8.1794-18.55 4.4976 0 0zm-594.41-0.42862c4.8992-2.5993-14.513-1.8336-4.7869 0.45296l4.7869-0.45296zm20.165-8e-3c-3.6256-2.9864-7.6347 3.5764 0 0zm111.65-0.35901c-3.7829-4.0283-6.3314 4.717 0 0zm358.66 0.28656c13.059-1.1448 67.166-5.9382 26.567-5.6048-11.54 1.6392-53.465-1.558-48.966 6.3039 7.4702 0.16277 14.957 0.014 22.399-0.69916zm-518.27-2.8784c-2.9342-13.607-28.455 0.61849-2.6637 0.0788l0.95978 0.69376 1.7039-0.77256-3e-5 1e-5zm16.994-0.30907c-13.849-3.9199-15.286 4.9701 0 0zm315.34 0.43956c11.053-14.085 29.784-31.331 34.451-44.817 1.7432 1.2962-35.378 11.463-24.086 19.634 27.479-29.47-5.9133 15.419-10.313 25.849l-0.0528-0.66634zm272.28 0.0843c2.4947-13.107-49.475 6.6374-16.258-15.232 14.772-9.5472 22.912-24.358-3.6677-17.202-22.087-2.9676-23.837 11.071-1.1752 4.9291 37.495-3.4019-44.091 31.653-2.325 27.644 7.8077 0.0236 15.621 0.13612 23.426-0.13863zm-499.39-1.2624c25.009-3.6029-28.636-1.1947-36.697-1.4553-42.032 2.3797 26.096 2.7778 36.697 1.4553zm24.593-1.0276c-10.387-3.57-17.502 3.0679 0 0zm9.3344 0c-3.5247-3.1537-7.1818 3.0149 0 0zm14.361-0.33308c3.4095-3.7417-22.656 1.8258 0 0zm468.23-0.41163c3.5023-6.0471-18.218 3.938 0 0zm-114.03-1.4836c17.064-1.4471 52.755 0.12545 59.565-6.0766-25.97 2.4478-52.202 3.6887-77.498 5.027 2.2395 5.1318 13.809 0.99194 17.932 1.0496zm-494.06-1.107c13.051-3.4319 27.232 2.0808 39.864-2.8437-3.4891-2.1058-64.371 1.7054-39.864 2.8437zm63.922-0.47145c13.818 0.68206 59.976-2.4948 20.479-2.8262-10.024-4.3404-66.233 5.4097-20.479 2.8262zm87.85-0.57015c5.5255-4.9862-7.2657 3.9459 0 0zm-15.038-1.4539c-5.8026-5.2493-48.969 2.4438-14.89 1.2203 4.9726-0.22917 9.9876-0.213 14.89-1.2203zm197-1.1131c3.7847-7.4933-7.5665 7.7677 0 0zm-354.36 0.12466c27.743-9.9118-26.863-1.0652 0 0zm629.71-0.0445c-2.9069-1.3754-1.7182 2.4517 0 0zm-95.103-1.7718c14.683 1.0705 54.173-5.8612 17.618-4.2918-14.192 2.9101-62.67 2.1801-55.424 5.5535 12.601-0.0177 25.253-0.0576 37.806-1.2617zm-518.1-0.0351c22.835-2.9741-12.588-4.2656 0 0zm48.08-6.8106c6.6851-20.397-18.325 17.789-14.65-10.248-1.7062-26.417-3.0678 23.713-17.972 5.7279-5.1479-15.419 25.6-20.508 2.2749-17.336-22.159 26.858 10.787 27.787 29.046 28.72l1.3009-6.8631 1e-5 1e-5zm17.91 5.4655c21.21-3.1068 52.74 3.3241 68.052-3.3536-24.425 1.9618-59.636-3.3787-78.651 3.6564l4.2549 0.29796 6.3434-0.60075zm133.98-0.0368c-5.6787-2.6647-5.6787 2.6647 0 0zm387.74 0c-1.7709-2.5578-0.86834 2.6252 0 0zm5.6446 0.21937c22.603-2.004-7.6727-2.2945 0 0zm19.786-2.1132c-1.2454-3.282-15.228 4.2959 0 0zm-46.682-1.133c-6.0158-4.1175-17.193 4.234-1.6538 1.0461l1.6538-1.0461zm-417.09-3.1269c8.6539-21.882-0.38621-10.566-2.7124 3.8295l2.7124-3.8295zm334.58 3.2816c19.35-1.8362 55.484-0.60352 64.458-6.5817-18.052 0.35119-69.384 0.27911-67.876 7.2998l3.4174-0.71803zm-480-2.1541c10.533-6.5427-16.31-0.26067 0 0zm-17.813-1.0559c22.59-12.648-28.915 0.20389 0 0zm619.7-0.55835c22.11-5.0731-27.514 1.0448-5.2181 0.67207l5.2181-0.67207zm-528.65 0.0895c16-1.2384 46.975 2.6602 54.469-2.4303-22.38-0.50703-60.548-3.6425-74.335 2.9898 6.6269-0.0541 13.236-0.6652 19.867-0.55945zm495.94-1.8379c-3.1475-1.0285-0.31121 1.382 0 0zm-82.412-0.84476c17.88-3.7759 51.708-0.98985 60.641-7.5487-26.188 2.4462-53.223 1.4626-78.846 6.5458 3.4863 3.5811 13.121 1.04 18.205 1.0029zm-241.56-1.6137c29.469-8.7485-0.77669-46.387 12.766-38.928 10.293 32.831 22.852-31.82 12.54-44.826 2.9226-17.28-18.182 3.8675-23.851 6.0399-1.2792 10.732-0.36603 22.992 12.487 15.241 3.6711 9.8599-19.091-0.40055-11.667 17.789 16.516-22.661 9.0183 8.304-8.1994 17.244-14.595 7.9115-0.95406 23.474 5.9238 27.44zm4.3082-63.74c17.319-8.1308-12.345-3.6366 8.4266-9.2429 9.6605-9.5316-26.504 3.9801 2.9004-7.2226 9.4791 2.5676-4.0041 20.335-11.327 16.465zm-247.26 62.74c-2.5453-4.2366-9.4841 2.5873 0 0zm139.55 0c-7.0254-4.4965-11.297 4.0201 0 0zm-47.39-1.3238c17.209 2.3735 48.882-2.79 12.751-2.6359-16.095 2.1682-43.199-4.2935-53.334 3.4918 13.52-0.60415 27.051-0.80201 40.583-0.8559zm513.22-1.0099c-9.8697-3.2105-15.398 4.4299 0 0zm-121.17-1.5848c18.028-5.0444 49.548 2.2814 59.778-8.3128-24.608 4.8553-60.277 0.95909-78.626 9.2645 6.2624 0.30694 12.666 0.13598 18.848-0.95167zm-499.28-0.38877c9.1665-7.9611-27.955-7.1283 2.2493-9.8043-6.0327-19.73-32.081 22.293-2.2493 9.8043zm156-0.65582c-2.2276-7.667-25.504 4.211-2.1947 1.4042l2.1947-1.4042v2e-5zm-140.06-0.83406c-6.8483-5.2212-12.059 3.6589 0 0zm19.315-0.72513c-3.6632-0.42748-0.3269 3.6769 0 0zm15.258 1.137c-2.7603-2.5743-1.8404 2.6595 0 0zm379.48 0c-5.3026-2.7072-2.3871 2.827 0 0zm-5.0262-0.71803c-2.5765-2.7337-0.89168 2.8307 0 0zm-300.26-1.1763c27.82-4.5373-26.517-3.2158-34.824-2.9825-15.796-2.379-31.049 5.461-4.7725 2.319 13.212 0.36034 26.369 1.7107 39.596 0.66349zm494.43 2e-3c-9.3186-1.2943-11.548 2.5595 0 0zm-552.11-0.18496c-4.424-4.9864-1.2692 3.2917 0 0zm-9.4677-3.8924c-12.055-19.122-18.481 11.182 0 0zm442.05 0.88597c15.458-2.6315 51.591 0.0231 57.299-7.8338-25.97 2.0957-54.314 3.9057-78.804 6.4552-3.2113 5.1115 18.414 1.4498 21.505 1.3786zm83.815-0.20234c34.545-4.1739-44.576 0.25619-4.4923 0.36295l4.4923-0.36295zm-158.1-1.6806c-6.2591-18.226-20.43 10.275 0 0zm-409.37 0.7736c4.6762-5.8869-18.454 2.1032 0 0zm603.5-1.3463c-14.847-6.0361-12.524 5.7531 0 0zm-534.82-1.1005c12.408-0.22542 36.733 0.96863 43.576-2.4748-17.119 1.3268-59.487-4.015-62.653 2.9118 6.3267 0.21845 12.81 0.67447 19.077-0.43701zm261.58-0.7249c11.624-7.2523 33.808-39.948 40.069-33.426-35.607 21.346 38.116-9.9106 12.475-4.0976 12.04-2.6637 50.61-44.899 21.288-18.227-16.547 13.425-25.272 16.539-6.3743-0.22613 10.689-9.9574 38.748-39.917 21.476-13.051 14.355-14.99-3.0676 13.667 12.068-6.571 19.155-16.42 8.666-40.329 18.031-33.771-21.359-14.007-0.8455-10.446 6.2163-2.2176-12.378-18.378-26.377-10.609-18.247 9.6573 2.9549 15.98-19.006 40.585-3.5593 9.9855 10.474-14.884-24.455-53.217-4.8737-22.455 5.5994 22.089-21.59-36.464-20.151-14.381-10.646-10.745-5.3453-2.4205-16.594-10.602-17.031 0.0956 14.22 8.6133-7.6179 4.2696 0.27047 18.694-26.021 26.939-30.966 47.708-10.081 20.745-11.493 40.629-15.983 48.946 0.56619 8.9546-15.788 39.467-7.2555 38.459zm10.18-21.015c2.2038-5.0514-2.6592-2.7367 0 0zm3.5902-4.7615c1.6757-2.4663 2.0681 1.3683 0 0zm2.9041-3.9444c9.6114-19.566 13.322-12.385 0 0zm27.971-10.371c1.4798-6.8043 2.9467 2.831 0 0zm-32.973-1.1051c0.32044-3.0957 1.036 1.9124 0 0zm3.9917-9.9328c12.711-20.363 35.669-24.895 53.914-38.424 10.199-13.271 28.616-39.627 10.044-8.1008-8.876 28.523-45.614 28.385-63.847 47.215l-0.11116-0.69023zm9.9158-22.858c13.208-17.51 12.802-41.989 36.428-44.186 14.762-7.699 30.417-11.401 7.4167-0.55104-20.755 4.35-29.165 30.017-21.166 26.507-5.6801 9.5523-13.586 15.875-22.679 18.23zm70.435-11.378c0.26214-3.5364 2.2888 2.3888 0 0zm1.2903-5.6144c3.0436-18.093 3.0892 7.3532 0 0zm-35.068-15.258c9.2879-7.6788 9.6573-0.37339 0 0zm-14.445-8.0355c6.1671-11.443 9.9547-13.36 18.754-11.003-5.6952 2.9034-13.533 10.517-18.754 11.003zm10.978-14.699c-23.827-4.3594 15.758-3.5737 0 0zm96.058 126.79c17.512-1.9382 52.604-2.833 53.508-7.4659-21.668 3.7189-68.367 0.76222-76.551 8.8559 7.6765-0.08 15.453-0.11811 23.043-1.39zm74.361 0.76928c13.691 1.801 64.697-3.8568 24.98-3.1944-2.0094-0.53114-36.185 1.6085-24.98 3.1944zm-557.2-1.4317c14.03-6.5586-17.119 0.71592 0 0zm386.66-1.4405c3.1427-6.1962-9.2607 6.0345 0 0zm-317.37-1.1135c13.07 0.31583 66.252-1.7015 23.943-2.5434-16.96 0.3227-41.592 0.0489-54.198 1.3676 9.4476 4.2079 20.299 0.49971 30.255 1.1758zm-41.287-1.0362c-3.0228-5.7902-13.647 1.7893 0 0zm313.89-0.71803c28.255-13.972 8.3742-18.548 0 0zm33.78 1.2924c-4.498-1.7051 0.0942 3.2368 0 0zm-395.42-1.2953c22.537-12.843-30.676-0.93069 0 0zm489.34-0.10573c20.016-2.1153 44.776-3.6425 70.05-6.4208 17.084-6.3303-30.032-0.0682-39.138 0.86294-9.7612 2.7784-46.637-0.0348-43.555 6.7625 4.1943-0.59443 8.4216-0.88636 12.643-1.2046zm-433.56-0.38189c-3.1475-1.0285-0.3112 1.382 0 0zm358.05-0.63914c25.823-13.06-10.726-1.0954 0 0zm162.03-4.882c16.214-3.1106 32.306-24.02 7.133-23.011-11.909-2.4425-40.124-1.6937-13.127 4.0767 13.243 13.244-20.284 31.988 5.9945 18.934zm0.8911-8.019c-15.897-25.031 39.264-3.6354 0 0zm24.932 12.873c20.313 1.6658 20.506-6.8784-0.52637-2.7409-13.217-1.5358-31.026 7.0192-6.0455 2.8969l6.5719-0.15608zm-586.25-0.27879c14.474-3.9876-10.324-0.67065 0 0zm13.943-1.1539c-0.22131-5.0843-17.816 1.9486 0 0zm14.06-1.3592c-1.1428-4.3194-5.9698 3.0741 0 0zm76.696-0.85411c21.351-2.8813-28.746-1.1289-37.487-1.219-32.918 3.4453 20.957 1.6511 37.487 1.219zm-64.106-0.18306c-11.318-1.8906-11.874 2.4158 0 0zm9.5877-1.2964c6.4041-28.531 2.1328-15.621-7.8172-5.1389-14.292-9.6763-41.923-6.047-11.842 0.60626 6.1274-1.1997 15.775 8.9461 19.66 4.5326zm383.51 0.82072c-2.8779-1.2746-2.8033 2.3412 0 0zm35.543-0.2822c26.086-1.6979 53.99-4.6479 80.274-7.9722-21.904-3.9714-51.029 7.6078-68.947 0.77959 19.754-3.7057 51.33-1.462 64.425-7.1825-30.419 0.14984-61.572 2.3704-91.816 6.5432 7.2083 1.8566 41.684 1.4071 10.169 4.3697-21.142 0.9083-0.39024 6.2454 5.8942 3.4622zm-462.77-2.1541c9.0682-2.5642-15.939 1.9128 0 0zm582.68-0.18325c30.384-3.7897-15.978-4.0403-4.3082 0.31484l4.3082-0.31484zm-178.04-0.58255c0.56007-3.7662-5.0256 3.4282 0 0zm-418.53-1.7547c-0.15595-14.923-31.706 8.0784 0 0zm31.843 1.0844c-8.6628-2.6198-6.0556 2.7248 0 0zm64.341-0.29178c16.355 1.3511 34.557-3.6019 7.4405-2.8447-13.334-1.5196-59.743 4.2908-20.606 3.0334 4.3882-0.0847 8.7769-0.14613 13.166-0.18869zm188.07-3.0845c12.853-7.1409 37.391-47.113 25.024-46.886-13.737 7.3388-38.955 40.215-25.024 46.886zm1.0551-10.119c1.8638-5.1143 3.3049 0.9777 0 0zm136.07 12.059c-0.89169-2.8307-2.5765 2.7337 0 0zm-402.05-2.949c-9.4261-4.2127-13.153 4.3694 0 0zm81.09-1.4914c16.011 2.3228 27.063-6.0314 2.5197-1.8902-12.583-1.3409-53.89 1.5569-19.932 2.3205 5.8036-0.16179 11.607-0.34969 17.412-0.43024zm339.27 0.13229c-2.2484-2.1522-3.7361 2.8308 0 0zm167.96-1.1764c-10.512-5.04-14.659 3.8621 0 0zm-556.42-1.6958c-1.8108-2.7575-6.2759 2.5071 0 0zm421.52-0.12193c25.802-3.2032 50.752-2.9452 74.645-8.2122-28.849-0.52964-58.864 3.5306-87.901 6.9459 1.3844 4.067 10.166 0.0987 13.256 1.2664zm-469.75-1.6834c-4.0519-5.9216-20.954-6.7951 0.67049-8.4974 4.0307-6.1294-22.973-6.5483 3.4034-8.953 0.79209-7.9775-23.213-4.2482 0.88501-8.837 7.2921-12.267-21.649-4.2975-15.237 10.851-6.0131 13.146-8.3655 23.234 10.278 15.436zm17.051 0.77952c-2.952-5.5463-20.775 5.1662 0 0zm432.88 0.37136c-8.3464-5.206-7.0657 3.2242 0 0zm-336.36-2.8976c1.9774-7.6277-76.644 1.4086-28.089 0.64682 9.3632-0.0541 18.752 0.21118 28.089-0.64682zm-81.48-0.79921c-9.3217-0.64049 5.7436 1.9136 0 0zm16.467 0.11053c-9.5561-4.4975-17.189 4.1945 0 0zm555.31-1.0325c-14.98-5.78-15.431 6.7838 0 0zm-134.03-1.2502c19.308-3.297 61.887-0.34693 68.055-9.7407-23.185 6.1919-66.078-0.37964-78.662 10.834l3.8381-0.50235 6.7687-0.59059zm-451.84 0.12258c-0.96954-8.9648-22.008 4.5423 0 0zm32.344-3.3332c-8.2461-2.2384-38.004 2.8593-8.4128 1.2803l3.9569-0.34635 4.4559-0.93394zm38.055 0.45129c15.121 3.3405 42.9-4.8259 11.843-2.4299-12.722-1.5187-58.953 2.4519-19.487 2.4334l3.6636-0.0159 3.9805 0.0123zm511.63-1.4756c-2.7115-7.6456-14.166 6.3132 0 0zm-150.81-1.5041c-6.7154-3.0711-7.9215 4.1318 0 0zm13.033 0.0776c19.747-6.4624 62.214 0.73709 70.316-10.608-25.959 3.6421-52.843 2.158-77.928 7.4526 0.82434 3.0569 4.7438 5.1588 7.6117 3.1552zm-421.49-1.4828c24.315-4.1976-62.502 0.92474-16.523 1.0618 5.5142-0.20383 11.053-0.22177 16.523-1.0618zm48.042-0.97779c15.378 1.2489 41.611-4.8996 10.446-3.3115-11.327-1.3848-53.183 3.6148-17.817 3.5773l7.371-0.26576zm313.14-9e-3c11.316-7.5563-9.719 2.7315 0 0zm181.05-0.24429c-18.998-3.509-26.557 4.0583 0 0zm6.9992-0.89754c-2.6714-2.6964-3.9245 2.6287 0 0zm-343.58-1.4365c-3.2202-0.16587-1.2392-0.28352 0 0zm352.91 0.71803c-4.2408-2.5863-5.2979 2.6694 0 0zm-38.774-1.4546c15.741-0.14511 55.478-6.9857 18.754-4.3218-12.354-1.3531-57.181 6.6683-18.754 4.3218zm-531.34-0.32661c12.719 0.37575 47.744-3.7668 15.616-4.002-12.007-1.6139-53.532 4.1271-15.616 4.002zm379.14-0.95222c-3.1232 0.85286-1.3881 2.0321 0 0zm51.679-0.88027c20.118-3.3654 59.483-0.67097 69.239-8.4332-21.432 2.7761-66.602-1.1138-74.359 9.1057l5.1196-0.67253zm-357.94-1.3628c38.966-1.9668-31.12-5.8084-29.839 0.6452 9.9287 0.73449 19.92-0.10426 29.839-0.6452zm310.59-1.8448c27.643-27.931-11.69 7.8705 0 0zm-347.47-0.89754c4.9753-11.588-55.391-25.084-19.602-8.4018 6.9475-0.27471 17.304 9.5399 19.602 8.4018zm378.8 1.4841c-3.1474-1.0285-0.31136 1.3822 0 0zm-429.88-1.6636c10.85-4.1068-7.5417 0.54435 0 0zm555.84-1.1333c13.738 1.2504 42.743-5.5034 10.997-3.3563-15.026-0.36689-55.381 6.7628-18.036 4.1172l7.0386-0.76086zm-522.27-0.0765c1.627-5.1945-50.732 2.0927-10.606 0.34638l4.8023-0.087 5.8037-0.25936zm266.04-3.6369c-1.0629-4.3621-7.2532 9.6701 0 0zm-258.86 2.9351c-3.9541-1.1654-0.71762 1.2567 0 0zm39.049-1.0245c14.557 0.80431 38.366-6.2268 8.1107-3.5458-12.515-3.3074-46.743 5.0006-13.39 4.0705l5.2797-0.52471v-1e-5zm377.05-0.35554c12.756-2.3866 58.21-2.2995 51.12-7.2092-21.224 3.736-58.668-2.0989-71.136 7.5444 6.6544 1.035 13.345-0.27033 20.016-0.33513zm81.676-2.1259c5.4848-3.9711-14.702 2.2426 0 0zm-526.44-0.99421c-10.505-6.7397-21.739 7.1938 0 0zm513.52-0.76862c6.5992-6.433 35.828-12.569 22.509-18.927-17.807 24.78-30.864-24.627-3.9274-16.796-22.652-10.34-61.068 2.495-89.316 2.1981 15.923 4.6739 50.378-0.82105 71.665-4.1994-11.802 8.7116-24.607 18.055-3.0992 14.13 14.811 12.56-15.217 24.213 2.1686 23.593zm-497.6-0.35622c-12.437-3.3347-9.8436 2.3866 0 0zm529.19 0.11361c15.754 1.0154 33.852-6.92 6.6665-3.7602-10.799-0.76989-26.136 7.196-6.6665 3.7602zm-491.13-2.5312c11.68 0.72163 58.598-3.0568 21.9-3.6785-3.6021-1.1796-42.413 4.1767-21.9 3.6785zm378.76 0.36499c23.486-3.6507 60.248 0.4155 76.029-8.6344-27.856 0.19735-64.607 2.6246-87.819 8.1692 3.2285 2.7802 8.0752-0.25672 11.791 0.46525zm-431.36-2.3693c-2.1768-5.1282-21.491 2.8936 0 0zm-16.285-1.467c2.1308-7.9318-24.683-2.0018-1.127-8.147 17.023-4.8884-19.859-7.6492 6.2702-8.575 0.63809-27.862-40.214 31.593-5.1432 16.722zm273.32-1.6533c-0.41934-7.1558-10.083 5.0349 0 0zm290.11 0.75118c24.171-5e-3 14.59-6.7554-2.211-3.0299l-2.0767 3.7107 4.2878-0.68073zm-505.09-1.819c-14.684-3.7326-23.312 3.1166 0 0zm24.581-0.0331c14.241 1.5718 39.225-5.6181 10.086-3.4072-12.663-1.9196-46.804 5.5801-13.707 3.9467l3.6216-0.53946v-3e-5zm383.75-1.0555c11.197-0.55791 67.835-7.6881 27.726-6.5946-16.408 1.9164-50.697-0.27536-57.423 7.7874 9.9-0.03 19.848-0.10984 29.697-1.1929zm-447.69 2e-3c2.7434-6.2462-24.522 1.9959 0 0zm226.54-2.9706c20.014-3.0227 7.1225-34.478 36.787-27.702 15.841 2.0358 37.705-14.101 8.0898-5.2748-23.443 5.5667-18.501-0.60768 0.45644-2.4626 16.906 2.501 29.051-14.733 4.4242-6.5861-15.888 2.9072-49.615 7.0187-14.32 0.23494 16.483 1.0361 59-13.502 18.095-7.2775-13.843 1.4471-45.916 8.0242-12.981-0.3774 18.838 0.89385 28.934-12.534 39.395-13.931 5.8726-10.25 0.2441-7.7334-4.9631-9.0462 13.387-3.3186 25.057-12.102 6.5136-6.0513 11.43-2.7935 32.232-8.4123 7.6569-7.6848-34.024 5.8904 28.864-8.0178-4.9632-5.1027-15.544-2.1047-9.8561 4.0073-27.782 7.3503-11.111-6.2264-14.26 22.26-17.011 21.49-10.531 0.22004-16.541 13.659-12.51 11.718-17.578-6.3889-30.621 29.336-17.253 22.948-9.6593-0.28052-17.837 20.268-13.693 28.266l4.0582-0.51194zm-3.5902-3.4913c0.13304-5.6418 10.727 0.93257 0 0zm6.9088-2.0814c-0.1865-5.7789 9.8381 1.5695 0 0zm-1.5236-6.894c1.7802-3.7833 1.7802 3.7833 0 0zm2.4691-1.1483c3.8258-5.7474 10.244 1.64 0 0zm12.047-15.845c6.0677-4.5496 2.2075 3.2633 0 0zm-10.215-5.9763c4.7789-2.3368-1.5604 3.3778 0 0zm10.777-13.215c2.6297-4.3319 4.8538 3.2723 0 0zm28.846-3.8761c0.76395-6.1716 5.1663 2.3338 0 0zm-11.223-4.0495c1.1198-4.029 3.4899 2.5493 0 0zm13.612-0.76764c3.5818-2.6066 1.9047 2.7692 0 0zm9.6934-1.0172c2.5471-3.8241 2.424 3.201 0 0zm-5.2724-6.5574c4.5505-3.0881 1.4343 3.844 0 0zm17.937 0.0353c0.9589-3.7898 3.9736 3.6599 0 0zm-9.7928-0.76139c4.9358-3.9716 9.4612 4.3488 0 0zm-6.4623-4.2149c3.8888-4.267 4.6332 3.7234 0 0zm10.052-1.486c5.5208-4.5883 7.2547 4.3969 0 0zm-21.182-2.5131c2.5765-2.7337 0.8917 2.8308 0 0zm5.5364-0.38633c10.841-8.0842 44.285-1.7451 10.44-0.78473-3.4179-2.5305-7.671 3.7575-10.44 0.78473zm-1.8043-5.0963c10.465-7.4272 39.158-1.7309 8.8334-0.94662-2.8742 0.74024-5.8662 1.094-8.8334 0.94662zm26.525-2.7748c2.5169-3.8002 1.7073 3.8772 0 0zm-41.807 81.244c2.1471-11.799-24.588 7.691 0 0zm-235.45 0.25278c-11.398-2.6773-11.398 2.6773 0 0zm16.922-0.0993c5.0277-17.032 42.008 5.6749 26.557-11.413-11.405 12.901-16.318-34.374-38.812-23.879-21.92 9.9382-6.3815 37.333 12.255 35.292zm-6.5106-4.8108c-37.733-17.394 24.56-38.68 13.457-12.493-9.516-0.1255 9.6634 15.483-13.457 12.493zm5.0262-7.6555c-11.19-4.254-2.1134 4.6685 0 0zm-1.6949-5.3852c-3.9814-4.6485-12.354 3.0988 0 0zm5.285-2.1316c-2.8779-1.2746-2.8033 2.3412 0 0zm0.90797-4.0551c-3.7181-5.8526-26.732 2.9091-2.9898 0.42613l2.9898-0.42613zm14.631 22.701c-1.8377-4.429-4.1848 2.7355 0 0zm498.13-0.36865c0.92598-8.9242-29.861 4.4915 0 0zm-558.9-0.62988c-12.13-2.2319-2.3982 1.4594 0 0zm6.4623-0.75924c-2.7394-2.3632-9.909 4.2066 0 0zm433.07 0.1012c12.94-0.0119 78.326-6.2079 35.258-6.8705-4.2652 0.2686-61.756 6.0774-35.258 6.8705zm-347.13-0.92905c-13.612-8.1326-20.32 6.2544 0-4e-5v4e-5zm-69.776-0.28655c-6.6494-4.0924-11.429 3.1521 0 0zm233.32-1.5296c26.812-5.03 2.9086-6.5314-6.0934-4.8841 12.632-2.1127 42.85-11.412 11.874-7.2736-24.82 1.8569 49.882-11.307 6.768-7.1357-17.243-8.0114-32.702 19.683-12.548 19.293zm273.61 0.11364c-7.9795-2.0754-9.7 2.3246 0 0zm24.353-2.5995c15.361-8.0264-28.929 3.2583 0 0zm-534.93-0.19679c-9.2565-7.7906-33.963 3.9222-6.9533 0.57298l3.5128-0.13365 3.4405-0.43933zm74.424-1.2027c-8.3291-7.2259-20.975 4.6606 0 0zm361.96-0.95802c10.107-3.0537 52.802-3.9233 19.011-5.5688-12.074-3.296-55.083 6.9719-19.011 5.5688zm-28.172-2.1748c5.7257-11.624-7.665 7.1742 0 0zm102.01 1.3449c-5.3098-4.0035-9.9402 4.2506 0 0zm-517.34-3.1513c16.097-6.3354-27.912 3.6842 0 0zm533.89 1.0018c30.184-1.0471-13.815-7.5337-2.9388 0.68822l2.9388-0.68822zm-477.53-2.4952c5.5972-3.6344-8.9816 2.0455 0 0zm24.713 0.64121c-2.747-7.4659-34.015-0.77949-7.3598 0.38335l7.3598-0.38335zm405.02-0.97918c-4.4194-4.6891-10.242 3.5167 0 0zm-63.533-1.1405c-2.0681-1.3683-1.6757 2.4663 0 0zm-439.44-2.8269c-4.3719-13.761-25.198 6.2919 0 0zm16.291 0.3456c23.137-6.4441-25.085 0.4497 0 0zm423.64-0.68894c-2.3166-6.3475 0.19328 5.3109 0 0zm113.36 0.64143c21.655-6.9478-35.109-2.1082 0 0zm-467.13-1.1414c47.381-6.9188-49.377-1.2295-4.5794 0.2122l4.5794-0.21223v3e-5zm365.16-2.3354c14.986-3.7388 67.61-0.88993 60.712-8.5524-15.75 2.1395-58.015 2.0793-60.712 8.5524zm-427.72-4.0656c-6.5022-6.9321-20.037 5.4272 0 0zm51.619-0.2066c14.582 1.1715 41.145-5.5592 10.567-2.9506-10.865-1.016-33.21 3.9471-10.567 2.9506v-3e-5zm473.89 0.1993c18.2-7.6185-35.194 2.0246 0 0zm-545.19-0.25525c18.442-11.147-34.339-1.9133 0 0zm455.61-2.0864c32.658-3.4917-1.0089-6.9939-11.337-0.48936l6.0513 1.0957 5.2861-0.60638zm-19.403-2.4366c-2.7147-9.8382-4.1164-2.2456-0.22338 2.3336l0.22338-2.3336zm86.898 0.89754c-6.6334-2.669-6.6334 2.669 0 0zm-497.3-2.2233c-21.082-3.7574-15.13 3.6942 0 0zm35.579 0.60769c-4.7109-10.637-10.807 4.8721 0 0zm421.87-0.53852c-0.27424-5.1372-6.0513 3.0243 4e-5 0h-4e-5zm57.514-0.11608c21.69-6.1919-34.36 0.5875 0 0zm-441.15-1.7593c5.9772-5.212-31.23 2.699-6.7684 1.3184l6.7684-1.3184zm388.74 0.73959c-2.7801-5.4866-2.0263 3.6632 0 0zm-410.65-2.0998c16.192-13.536-27.104-37.548 0.0471-13.585 1.9158 11.337-13.764 5.4561-3.4561 10.501-17.3 12.818-33.026-32.243-30.7-8.746 11.332 3.6271 21.083 21.203 34.109 11.83zm426.62 0.58206c6.7861-6.8197-15.526 4.9016 0 0zm15.384 0.20252c2.0787-4.6596-8.5102 3.642 0 0zm-56.207-0.42109c10.672-10.121-41.781 0.30212-10.363 0.71803 3.4446-0.18716 6.9944 0.26982 10.363-0.71803zm11.489-1.3259c14.214-15.647 33.348-21.248 41.154-6.783-4.4145-20.29-22.902-18.501-31.565-9.6487 2.3634 5.2687-21.87 12.074-9.5881 16.432zm-441.75-2.2323c-18.934-2.4745-20.036 3.9139 0 0zm18.406 0.96983c0.50436-4.0043-13.562 0.66423 0 0zm481.5-1.0227c16.974-8.305-31.448 3.8221 0 0zm-37.872-0.94564c3.8712-8.1701-11.07 2.3572 0 0zm-391.03-0.14702c-14.358-6.4878-24.924 4.7932-1.638 0.82876l1.638-0.82876zm127.4-1.8979c8.2707-31.228-13.216 3.9437 0 0zm258.42 2.2935c-1.8404-2.6595-2.7603 2.5743 0 0zm-379.8-2.9501c0.0998-6.7916-7.3412 8.809 0 0zm360.74-1.5843c11.427-6.7746-59.434 2.5786-15.185 1.6156 4.9886-0.74972 10.421 0.60174 15.185-1.6156zm-434.38 0.94418c24.638-4.3974-33.862 0.35118 0 3e-5v-3e-5zm-14.913-0.49759c-4.7325-1.0627-0.91899 1.1907 0 0zm309.54-1.8955c-1.4276-4.439-2.2465 5.0987 0 0zm-266.59 0.19212c27.964-1.6892-12.139-3.872 0 0zm439.76-0.4815c9.5421-7.7736-15.638 3.2983 0 0zm17.238 0.64592c26.06 2.1964 9.6541-7.3894-2.4363-0.53527l1.3865 1.1079 1.0498-0.57262zm-416.93-1.1578c-12.933-8.5097-25.733 3.8684-2.866 0.88631l2.866-0.88634v3e-5zm-67.408-2.742c-9.8969-5.4724-21.04 4.8284 0 0zm413.59 0.95585c12.742 1.1236 46.704-6.6175 13.72-4.4331-13.3-0.65811-46.753 5.5223-13.72 4.4331zm-209.28-1.1566c18.715-12.322 40.209-31.635 36.012-56.332-14.472 8.7084-30.369 25.859-26.391 34.211-5.7953 1.4551-16.99 23.44-9.6205 22.12zm7.8984-14.601c0.86954-6.0554 2.5641 4.0068 0 0zm5.2857-10.298c8.7422-15.998 12.097-5.848 0 0zm11.229-13.394c2.4469-5.3878 4.0036 2.224 0 0zm-196.8 36.315c-9.4086-5.3517-19.851 4.4726 0 0zm266.74 0.49919c3.2639-6.027-9.0699 0.86174 0 0zm194.85-1.3062c5.7944-7.3969-34.403 1.8942-3.991 0.69149l3.991-0.69149zm-225.3-0.37188c8.4543-7.6813-18.348 4.3762 0 0zm23.336 0.6778c-4.4026-2.3542-5.6195 2.9642 0 0zm-235.87-0.57443c-4.1681-6.3056-16.484 1.8379 0 0zm17.076-0.7495c-10.783-3.9472-11.074 4.5852 0 0zm336.43-1.6008c16.081 1.5292 67.217-5.9252 22.9-4.5666-10.143 1.1906-58.837 2.4289-32.823 5.4754l6.0332-0.38397 3.8898-0.52476v-4e-5zm-406.75-0.32789c14.089-4.024-30.604 2.2236 0 0zm381.24 0.30509c-15.999-10.078-23.872 1.583 0 0zm-183.67-0.89036c-9.7042-10.83-18.421 7.59 0 0zm-177.53-0.16092c11.341-5.849-19.375 1.9472 0 0zm273.75-0.5847c-9.8921-2.5768-1.8613 1.7048 0 0zm-245.44-1.2714c3.3422-9.2253-19.987 1.9398 0 0zm434.7 0.11066c24.89-3.7809-32.933-4.7472-5.5641 0.0804l5.5641-0.0804zm-420.59-6.2828c13.114-4.9554 14.243-25.973-1.3178-12.345 24.865-5.6475-19.993 27.406-7.8984 1.2724 1.7-12.272-10.153-9.1819-8.8729-1.6307-20.073-7.208 27.907-35.506-3.6094-16.915-30.396 9.8977 19.829 26.082-6.9046 27.243 10.946-6.9264 20.683 16.063 28.603 2.376zm11.866 3.9836c-4.2171-5.9616-15.549 6.9133 0 0zm-62.369-0.18485c19.386-6.225-47.908 2.2607-4.307 0.30166l4.307-0.30162v-4e-5zm275.86-0.77119c-3.0534-2.8114-7.2508 4.2025 0 0zm8.4829-1.0593c9.2452-14.657-13.589 8.6699 0 0zm7.1817 1.4423c-2.8026-2.6231-2.8026 2.6231 0 0zm105.35-0.51449c13.728-3.6724 45.211 2.1883 50.278-6.5772-28.018 1.6201-59.146 4.3022-84.677 4.2195 10.289 5.4089 23.282 2.9874 34.399 2.3576zm-47.75-1.5087c-12.963 0.25254 6.4556 1.6623 0.10402 0.0121l-0.10402-0.0121zm-334.4 0.89828c-4.724-17.198-20.976-0.32967 0 0zm342.5-0.31111c-5.268-2.3163 1.8276 2.8932 0 0zm-173.12-0.79965c1.9721-8.0745-24.339 3.8464 0 0zm-117.02-3.9563c3.0756-6.3085-14.632 6.564 0 0zm197.88 1.1657c2.6706-6.9956-8.5994 6.41 0 0zm14.314 0.79327c-3.3448-4.4693-4.8127 4.2071 0 0zm178.89-0.061c26.38 3.1492 9.2377-6.7208-5.4428-1.953 0.21888 2.4268 3.7167 3.5009 5.4428 1.953zm-458.27-1.2222c2.9113-4.5138-28.989 1.1018-4.6308 0.35309l4.6308-0.35309zm193.33-6.3314c10.8-15.19 6.4222-42.62-5.1553-15.335-14.963-5.0862-53.4 9.8208-15.35 2.7697 25.534-8.2587 14.28 21.92-3.4853 15.258 11.053-1.3828 20.315 8.2575 23.99-2.6926zm184.97 5.7506c27.724-3.9362 69.556 1.4827 89.391-8.6062-45.326 2.0782-89.572 6.1201-135.28 5.3994 7.8298 6.9298 32.316 2.2664 45.886 3.2069zm-83.208-2.4954c6.1539-4.4391-42.369 1.1408-5.4242 0.0627l5.4242-0.0627v-7e-5zm-245.07-1.8191c2.0566-6.6728-9.1115 5.311 0 0zm44.643 0.23436c-1.808-6.3781-10.032 6.2323 0 0zm-94.25-1.1006c21.164-3.6767-28.802 0.1577 0 0zm25.014 0.60797c-6.0129-13.047-18.986 5.4749 0 0zm47.57-0.81879c4.5743-5.7789-17.448 5.1123 0 0zm197.46 0.17951c-5.4921-3.3836-8.4582 4.0028 0 0zm-97.964-1.6227c13.854-0.74757 16.14-5.2966 0.92128-5.2432 37.937-7.8432-41.46-1.5465-3.1726 0.53863-13.573 0.53568-4.7872 8.5536 2.2513 4.7046zm198.49 0.34224c30.086-0.17803 61.071-4.1287 90.314-5.8124-28.056-3.9148-61.397 1.1846-91.401 1.3713-12.82 1.4999-66.203-1.3564-57.432 4.1093 19.175 2.1196 39.104 0.23375 58.52 0.33178zm-84.728-1.0532c1.7378-9.9218-15.659 4.2498 0 0zm-168.02-2.0662c-10.066-5.6356-26.834 1.9938-2.403 0.44502l2.403-0.44502zm-102-1.2859c-11.876-8.7316-34.318 3.4672-6.4224 0.16294l3.6593 0.53417 2.7631-0.69713v2e-5zm62.419 0.0312c3.3938-7.551-25.488 3.2646 0 0zm384.96-0.2693c-1.7709-2.5578-0.86832 2.6252 0 0zm-338.91-0.71803c-3.2403-2.2163-4.3083 2.861 0 0zm219.72-1.2473c37.22-1.2649 74.969-2.2393 111.82-4.3557-21.089-5.2653-52.642-0.13682-77.097-0.36979-24.869 2.6953-72.427-1.7234-83.421 4.9567 16.179 1.1528 32.514 0.75836 48.697-0.23127zm-213.26-0.90681c-1.8346-2.5759-1.8345 2.5759 0 0zm-76.486-1.5371c16.2-9.2098-21.934 2.6072 0 0zm82.927 0.8471c2.0072-5.7001-5.4281 3.8339 0 0zm-58.858-1.3714c38.377-9.2512-42.935-0.63796 0 0zm41.781 0.13479c-3.1475-1.0285-0.3112 1.382 0 0zm3.5902 0c-3.1475-1.0285-0.3112 1.382 0 0zm-113.07-2.0905c28.789-8.3369-33.797 1.7761 0 0zm323.67-1.4521c39.089-0.46015 78.182-2.2798 117.2-4.142-29.349-6.237-66.261 0.33047-98.169-0.3733-14.569 2.7683-70.3-1.5424-63.562 5.2345 14.847 0.1768 29.695-0.30069 44.534-0.71914zm-204.28-0.27501c-2.6714-2.6963-3.9245 2.6286 0 0zm22.486-0.98247c22.459-4.7562 19.263-10.884 2.5846-3.1331-9.4139-6.401-9.0036 9.067-2.5846 3.1331zm91.591 1.2517c7.7678-3.9492-17.372 2.4164 0 0zm-200.42-1.1313c10.087-3.6757 55.14 0.39947 45.791-4.9754-16.158 1.4163-40.28-3.1688-52.039 5.4584l6.2485-0.48295v-2e-5zm77.19 0.38647c-3.9541-1.1654-0.71762 1.2567 0 0zm157.92-0.0149c-3.1475-1.0285-0.31121 1.382 0 0zm-263.29-4.9071c30.609-7.4187-30.201 0.90996 0 0zm292.08 0.0128c45.601-3.2372 91.575-0.88954 137.06-5.2312-13.076-5.851-25.368-0.27663-6.7841-7.1354-45.685-2.5864-91.434 2.1529-137.37 1.9238-13.524-0.81909-31.306 6.2365-6.4497 4.1238 43.017-0.69848 86.022-2.5205 128.93-2.6936-25.627 7.0035-60.383 1.2919-89.345 4.9488-15.329 2.8825-51.625-3.9579-54.898 4.9059 9.6158-0.37982 19.233-0.7433 28.859-0.84221zm-158.52-0.35961c-1.7709-2.5579-0.86839 2.6252 0 0zm109.86-1.027c-5.1964 0.33017 0.0805-0.48422 0 0zm-202.84-1.309c14.658 0.8546 68.046-3.4438 24.873-4.2203-6.7192-2.1282-65.007 6.3156-24.873 4.2203zm128.53 0.18192c-9.6315-2.5191-7.0616 1.631 0 0zm56.11-1.6156c12.209 0.66221 49.257-3.3107 14.184-3.0739-8.48-1.2383-41.099 3.4681-14.184 3.0739zm-66.342-1.0528c-8.7629-1.0476-1.7286 1.0595 0 0zm-147.74-2.3789c25.702-6.4887-32.811 0.59547-5.416 0.74904l5.416-0.74904zm211.82-0.69702c40.234-3.2958-27.479-5.8172 0 0zm-29.978-0.47554c-3.9541-1.1654-0.71762 1.2567 0 0zm5.1017 0.0571c3.246-5.0611-6.8123 2.0843 0 0zm-117.44-1.6447c29.776-8.7769-41.618 3.2513-45.652 0.62766 15.187 0.38079 30.522 0.75171 45.652-0.62766zm178.08-0.6202c2.2253-7.4638-31.516 5.1554-3.4689 0.92476l3.4689-0.92483v7e-5zm24.195-2.2617c43.296-0.88581 86.942-1.102 129.96-4.3894-13.755-6.5615-50.919 1.1766-72.847-0.67998-24.149 3.4925-54.709-3.2281-74.982 5.3133 5.6903 3.0784 11.957-0.35813 17.864-0.24396zm-83.698 0.30302c24.302-7.0969-37.024 0.62796 0 2e-5v-2e-5zm-183.77-1.0216c27.169-0.92671 54.505-1.7732 81.389-5.4437-22.954-0.89941-82.645-0.0383-86.279 5.9634l4.8905-0.5197zm243.41-3.0295c-6.2546-2.8825-4.5578 3.556 0 0zm-235.51-3.222c23.041-1.2679 43.387-3.5771 64.623-3.0544 45.029-6.1354-16.629-3.5013-30.165-2.2508-4.3156-0.66574-65.384 3.1449-34.458 5.3052zm289.37 0.024c31.106-1.4341 63.079-0.0396 93.684-4.0323-27.731-5.4451-63.561 1.6816-94.461 0.0931-15.393-1.5693-71.018 4.1058-25.534 4.6527 8.7716-0.14112 17.549-0.23677 26.31-0.71357zm-89.754-1.0334c-2.8026-2.6231-2.8026 2.6231 0 0zm38.594-0.39451c0.49037-8.8176-18.971 5.3455 0 0zm18.13-4.0581c40.043-1.8028 81.054-1.0642 120.47-4.363-15.613-4.206-51.345-4.781-15.667-5.5524 18.247-4.8229-27.722-2.3293-34.334-2.7004-29.018-0.0432-57.96 2.2738-86.981 1.5323 22.347 8.5047 57.837 1.2989 84.818 1.3316 20.784-2.0795 17.957 4.3377-0.60262 3.2565-23.555 3.6583-69.19-3.4996-79.644 6.9757 3.969-0.40066 7.9598-0.42813 11.944-0.48031zm-28.721-1.2916c2.7745-2.8592-5.7873 2.6477 0 0zm9.3143 0.0276c-0.4047-5.8282-12.818 4.2094 0 0zm-191.34-1.8611c12.416-0.55204 62.133-2.0328 52.075-5.9182-32.198 3.2763-65.479-0.53274-96.997 5.2863 5.5283 3.9823 32.475-0.37304 44.922 0.63188zm189.5-4.3451c2.7695-4.8237-9.6958 1.2044 0 0zm-200.63-2.0678c27.555-2.6037 56.24-0.63463 84.16-4.9765-14.906-2.5184-57.332 1.6188-82.536 0.98266-19.664-0.63567-46.228 6.8355-1.6236 3.9938zm231.21-4.7214c31.201-0.44542 62.904-0.71301 93.887-3.0084-29.545-6.6495-60.854 0.44907-91.053-0.23887-20.025-4.6507-46.385 6.2778-14.268 3.5844l4.901-0.14912 6.533-0.18791v-1e-5zm-213.79-2.1251c29.041-2.1264 59.03 0.95319 87.875-5.8848-14.213 2.0697-75.086-0.97193-32.583-1.6456 14.264 0.42222 43.522-0.47959 49.584-5.1352-40.452 2.2164-81.448-0.0773-121.52 4.0635-13.045 6.5435 51.073-0.88546 9.4039 4.7147-10.3 0.55605-36.628 3.6208-9.9356 4.1162 5.725-0.0611 11.45-0.14569 17.175-0.22877zm14.695-5.4559c11.599-5.9046 28.135 1.8706 3.0852 0.33067l-3.0852-0.33067zm215.54 1.202c17.779-4.6572 56.644 2.324 63.262-5.0702-24.88-0.18053-52.37 0.28306-78.154 1.3975-12.552 0.42732-55.782-0.17213-20-2.1831 29.379-1.7718 60.578-0.6418 89.514-2.4636-26.659-7.7903-60.998 0.42905-90.403-1.2111-22.042-5.1027-31.999 5.2595-9.1503 10.039 14.967 0.0134 29.999 0.6077 44.932-0.50837zm-217.49-8.728c70.289-1.0691 140-3.5158 210.26-4.1871 11.743-2.4647 47.507 1.593 50.175-2.9878-38.024-3.0402-76.528-0.18658-114.68 0.0886-17.225 1.334-36.513-1.0863-7.0318-2.7678 36.348-0.23355 73.462 0.20395 108.5-2.6337-20.551-4.1926-44.58 0.26034-63.376-3.3021 14.15 0.74404 69.295-2.8795 25.141-3.8286-12.044 0.33455-77.514 0.42602-36.685-2.0772 13.486-0.29736 66.194 0.0803 28.25-4.1333-47.294-0.17836-97.112 2.0427-143.59-0.43228 43.519-1.6689 87.079-0.70963 130.77-1.8069 18.516-5.9918-44.717-2.2716-22.594-5.4854-10.231-4.2345-46.982-4.4487-66.9-1.7161-28.68 2.5357 25.177 1.1641-6.4292 4.2587-21.549-0.26121-44.64 2.3757-43.423 4.5971-13.047 1.6798-28.24 6.5288-7.1052 7.0866-11.631-0.53875-43.92 3.9079-22.693 7.5408-14.428-2.1704-33.61 7.2327-9.0566 5.2239 15.128-2.3286 34.041 1.6516 7.6988 1.1521-9.916-2.5542-59.544 6.6732-24.634 5.7394l7.401-0.32882v8e-5zm71.436-5.6856c-14.523 0.27775-50.377-1.4506-15.506-2.2394 20.686 1.7852 42.422-1.9089 62.379 0.2378-15.809 2.583-31.811 1.8482-46.873 2.0016zm-49.038-7.4197c11.659-3.1739 38.709 0.68643 11.032 0.94741-1.7711-1.3832-9.826 1.426-11.032-0.94741zm28.402 0.52863c7.7455-5.4948 39.873 0.21191 8.3101 0.16787l-3.8034 0.0471-4.5067-0.21496zm28.569-0.94989c19.37-3.5471 42.469-0.85782 61.208-2.5252 17.915-2.1948 61.089 1.1826 19.671 1.7277-26.983-0.63582-53.926 2.2094-80.879 0.79744zm-34.852-6.4435c1.5473-4.2005 10.369 2.0062 0 0zm9.9452-0.17129c21.586-3.746 54.993-0.97243 79.817-1.8846 27.136 3.1068-28.454 1.7417-37.759 2.3223-14.016-0.0693-28.055 0.26806-42.058-0.43763zm92.015 0.12161c6.1456-4.3965 9.7247 3.6448 0 0zm-38.368-12.145c11.886-5.3231 33.651 2.394 7.1344 0.59207l-3.6036-0.1381-3.5308-0.45397zm26.88-0.43426c14.693-4.3072 32.578 3.1994 5.4601 1.0369l-3.411-0.15662-2.0491-0.88031zm-4.8467 31.433c-10.361-1.0193-2.0532 1.0271 0 0zm-142.63-9.3386c-1.6179 0.67111 1.5089 2.8432 0 0zm60.599-22.094c-2.7518-3.8639-2.7518 3.8639 0 0zm32.623-0.28562c3.2644-3.4626-9.0179 2.5602 0 0zm-7.4917-5.8177c-2.6071-3.5711-6.4899 0.78998 0 0zm-234.74 140.04c-4.8245-8.4388 18.182-19.031 3.5968 0.063l-3.5968-0.063zm515.49-55.061c-13.788-1.4062 13.09-8.9926 10.049-4.7648 11.42 7.5136-7.0942 4.3331-10.049 4.7648zm-5.9238-8.6849c-15.699-5.7953 28.007-1.5673 0 0zm-13.284-7.1534c4.1938-3.8673 19.413-7.0176-2.4088-7.3353-22.459-1.0176 22.141-6.7082-8.0169-7.2367-28.312 0.46623 21.328-7.1535-10.286-6.9702-20.032 0.26591-5.5306-5.549 2.5812-5.2363-18.315-9.0423-28.85-0.26788-13.285-9.4082-12.035-0.48753-36.359-2.8273-9.0629-4.9527-9.0122-2.7107-50.065-5.2848-16.35-5.3608-1.1428-11.617 19.072 3.9496 31.766 11.823 10.807 7.7803 60.039 36.091 27.169 35.086l-2.1074-0.40896v-5e-5zm16.335-0.21129c1.8404-2.6595 2.7603 2.5743 0 0zm-415.37-30.861c14.394-16.244 39.821-22.379 59.539-32.405 14.993-6.6962-8.0931 10.244 9.9853 7.4451-17.323-0.48156-31.628 4.1867-47.698 12.739-6.6797 3.8543-14.385 11.605-21.826 12.221zm32.841-9.8233c5.5665-4.4676 13.176 2.0404 0 0zm-5.4451-0.72269c-0.75846-5.3085 7.2773 3.3123 0 0zm290.32-9.971c7.0337-5.736 17.505 3.1076 0 0zm13.104 0.60851c9.4327-11.618-53.706-3.8432-13.387-8.4058-13.223-9.2283 43.88 7.6147 13.387 8.4058zm-258.69-10.647c3.9932-18.611 34.659-13.343 48.614-21.663 14.074 5.7806-62.102 12.314-33.702 20.431-4.3097 0.64119-11.059 3.064-14.911 1.2321zm231.23-1.0566c-13.357 1.8859-29.794-4.1702-7.0008-3.0394 34.373-3.15-72.59-2.5342-24.889-6.1004 35.833-2.1487-23.234-2.0495-33.988-4.859-13.51 3.878-55.889-0.79234-18.89-1.1361 14.348-2.0626 69.875 2.7827 27.343-4.8024-10.879-4.7686-52.692 5.6682-45.93-1.5995 19.766-2.6562-40.346-2.8999-3.1234-5.4882 40.998 1.1447 82.99 7.7806 120.12 25.732-3.3348 4.1304-9.5361 0.2165-13.643 1.2927zm-208.77-5.7626c-5.283-7.3341 13.006 1.6788 0 0zm152.05-2.0823c3.5779-6.749 13.368 2.6213 0 0zm-132.12-3.9986c2.2833-3.205 1.7284 3.3562 0 0zm7.7189-0.0376c9.4914-8.8457 39.221 0.50034 8.176 0.11877l-3.9544 0.14191-4.2216-0.26068zm30.157-0.83401c-14.936-6.6852 57.747-0.62033 19.36-0.33249-6.4618-0.25295-12.901 0.75116-19.36 0.33249zm36.081-1.2825c9.7359-7.1455 10.084 5.1903 0 0zm-35.046-3.8284c-0.0805-10.679-33.598 1.1598-2.3206-6.8153 27.898-1.2672 24.399-5.1846 2.3206 6.8153zm5.6064-1.0265c5.9261-6.2271 23.867 5.1848 0 0zm17.951-0.36613c-9.0508-5.8432 34.409 1.1173 3.2057 0.18802l-3.2057-0.18802zm1.4361-5.4726c2.9213-4.8507 4.5101 3.8101 0 0z"/>
 </g>
</svg>
