<svg width="67" height="51" viewBox="0 0 67 51" fill="none" xmlns="http://www.w3.org/2000/svg">
<g filter="url(#filter0_d_1_3)">
<path d="M8.25284 3.27273H10.0767V9.35795C10.0767 9.92045 9.95028 10.4091 9.69744 10.8239C9.44744 11.2386 9.09943 11.5582 8.65341 11.7827C8.20739 12.0071 7.68892 12.1193 7.09801 12.1193C6.57244 12.1193 6.09517 12.027 5.66619 11.8423C5.24006 11.6548 4.90199 11.3707 4.65199 10.9901C4.40199 10.6065 4.27841 10.125 4.28125 9.54545H6.1179C6.12358 9.77557 6.17045 9.97301 6.25852 10.1378C6.34943 10.2997 6.47301 10.4247 6.62926 10.5128C6.78835 10.598 6.97585 10.6406 7.19176 10.6406C7.41903 10.6406 7.6108 10.5923 7.76705 10.4957C7.92614 10.3963 8.04688 10.2514 8.12926 10.0611C8.21165 9.87074 8.25284 9.63636 8.25284 9.35795V3.27273ZM16.3366 5.78267C16.3026 5.43892 16.1563 5.17187 15.8977 4.98153C15.6392 4.79119 15.2884 4.69602 14.8452 4.69602C14.544 4.69602 14.2898 4.73864 14.0824 4.82386C13.875 4.90625 13.7159 5.02131 13.6051 5.16903C13.4972 5.31676 13.4432 5.48438 13.4432 5.67188C13.4375 5.82812 13.4702 5.96449 13.5412 6.08097C13.6151 6.19744 13.7159 6.2983 13.8438 6.38352C13.9716 6.46591 14.1193 6.53835 14.2869 6.60085C14.4545 6.66051 14.6335 6.71165 14.8239 6.75426L15.608 6.94176C15.9886 7.02699 16.3381 7.14062 16.6562 7.28267C16.9744 7.42472 17.25 7.59943 17.483 7.80682C17.7159 8.0142 17.8963 8.25852 18.0241 8.53977C18.1548 8.82102 18.2216 9.14347 18.2244 9.5071C18.2216 10.0412 18.0852 10.5043 17.8153 10.8963C17.5483 11.2855 17.1619 11.5881 16.6562 11.804C16.1534 12.017 15.5469 12.1236 14.8366 12.1236C14.1321 12.1236 13.5185 12.0156 12.9957 11.7997C12.4759 11.5838 12.0696 11.2642 11.777 10.8409C11.4872 10.4148 11.3352 9.88778 11.321 9.25994H13.1065C13.1264 9.55256 13.2102 9.79687 13.358 9.9929C13.5085 10.1861 13.7088 10.3324 13.9588 10.4318C14.2116 10.5284 14.4972 10.5767 14.8153 10.5767C15.1278 10.5767 15.3991 10.5312 15.6293 10.4403C15.8622 10.3494 16.0426 10.223 16.1705 10.0611C16.2983 9.89915 16.3622 9.71307 16.3622 9.50284C16.3622 9.30682 16.304 9.14205 16.1875 9.00852C16.0739 8.875 15.9063 8.76136 15.6847 8.66761C15.4659 8.57386 15.1974 8.48864 14.8793 8.41193L13.929 8.1733C13.1932 7.99432 12.6122 7.71449 12.1861 7.33381C11.7599 6.95312 11.5483 6.44034 11.5511 5.79545C11.5483 5.26705 11.6889 4.8054 11.973 4.41051C12.2599 4.01562 12.6534 3.70739 13.1534 3.4858C13.6534 3.2642 14.2216 3.15341 14.858 3.15341C15.5057 3.15341 16.071 3.2642 16.554 3.4858C17.0398 3.70739 17.4176 4.01562 17.6875 4.41051C17.9574 4.8054 18.0966 5.26278 18.1051 5.78267H16.3366ZM27.4854 7.63636C27.4854 8.58807 27.305 9.39773 26.9442 10.0653C26.5863 10.733 26.0977 11.2429 25.4783 11.5952C24.8619 11.9446 24.1687 12.1193 23.3988 12.1193C22.6232 12.1193 21.9272 11.9432 21.3107 11.5909C20.6942 11.2386 20.207 10.7287 19.8491 10.0611C19.4911 9.39347 19.3121 8.58523 19.3121 7.63636C19.3121 6.68466 19.4911 5.875 19.8491 5.20739C20.207 4.53977 20.6942 4.03125 21.3107 3.68182C21.9272 3.32955 22.6232 3.15341 23.3988 3.15341C24.1687 3.15341 24.8619 3.32955 25.4783 3.68182C26.0977 4.03125 26.5863 4.53977 26.9442 5.20739C27.305 5.875 27.4854 6.68466 27.4854 7.63636ZM25.6147 7.63636C25.6147 7.01989 25.5224 6.5 25.3377 6.0767C25.1559 5.65341 24.8988 5.33239 24.5664 5.11364C24.234 4.89489 23.8448 4.78551 23.3988 4.78551C22.9528 4.78551 22.5636 4.89489 22.2312 5.11364C21.8988 5.33239 21.6403 5.65341 21.4556 6.0767C21.2738 6.5 21.1829 7.01989 21.1829 7.63636C21.1829 8.25284 21.2738 8.77273 21.4556 9.19602C21.6403 9.61932 21.8988 9.94034 22.2312 10.1591C22.5636 10.3778 22.9528 10.4872 23.3988 10.4872C23.8448 10.4872 24.234 10.3778 24.5664 10.1591C24.8988 9.94034 25.1559 9.61932 25.3377 9.19602C25.5224 8.77273 25.6147 8.25284 25.6147 7.63636ZM36.152 3.27273V12H34.5582L30.7614 6.5071H30.6974V12H28.8523V3.27273H30.4716L34.2386 8.76136H34.3153V3.27273H36.152ZM26.6449 19.794V18.2727H33.8125V19.794H31.1406V27H29.3168V19.794H26.6449ZM36.967 27.1278C36.305 27.1278 35.7326 26.9872 35.2496 26.706C34.7695 26.4219 34.3988 26.027 34.1374 25.5213C33.8761 25.0128 33.7454 24.4233 33.7454 23.7528C33.7454 23.0767 33.8761 22.4858 34.1374 21.9801C34.3988 21.4716 34.7695 21.0767 35.2496 20.7955C35.7326 20.5114 36.305 20.3693 36.967 20.3693C37.6289 20.3693 38.1999 20.5114 38.68 20.7955C39.163 21.0767 39.5352 21.4716 39.7965 21.9801C40.0579 22.4858 40.1886 23.0767 40.1886 23.7528C40.1886 24.4233 40.0579 25.0128 39.7965 25.5213C39.5352 26.027 39.163 26.4219 38.68 26.706C38.1999 26.9872 37.6289 27.1278 36.967 27.1278ZM36.9755 25.7216C37.2766 25.7216 37.5281 25.6364 37.7298 25.4659C37.9315 25.2926 38.0835 25.0568 38.1857 24.7585C38.2908 24.4602 38.3434 24.1207 38.3434 23.7401C38.3434 23.3594 38.2908 23.0199 38.1857 22.7216C38.0835 22.4233 37.9315 22.1875 37.7298 22.0142C37.5281 21.8409 37.2766 21.7543 36.9755 21.7543C36.6715 21.7543 36.4158 21.8409 36.2085 22.0142C36.0039 22.1875 35.8491 22.4233 35.744 22.7216C35.6417 23.0199 35.5906 23.3594 35.5906 23.7401C35.5906 24.1207 35.6417 24.4602 35.744 24.7585C35.8491 25.0568 36.0039 25.2926 36.2085 25.4659C36.4158 25.6364 36.6715 25.7216 36.9755 25.7216ZM45.7869 36.3281H43.9205C43.8864 36.0866 43.8168 35.8722 43.7116 35.6847C43.6065 35.4943 43.4716 35.3324 43.3068 35.1989C43.142 35.0653 42.9517 34.9631 42.7358 34.892C42.5227 34.821 42.2912 34.7855 42.0412 34.7855C41.5895 34.7855 41.196 34.8977 40.8608 35.1222C40.5256 35.3437 40.2656 35.6676 40.081 36.0938C39.8963 36.517 39.804 37.0312 39.804 37.6364C39.804 38.2585 39.8963 38.7812 40.081 39.2045C40.2685 39.6278 40.5298 39.9474 40.8651 40.1634C41.2003 40.3793 41.5881 40.4872 42.0284 40.4872C42.2756 40.4872 42.5043 40.4545 42.7145 40.3892C42.9276 40.3239 43.1165 40.2287 43.2812 40.1037C43.446 39.9759 43.5824 39.821 43.6903 39.6392C43.8011 39.4574 43.8778 39.25 43.9205 39.017L45.7869 39.0256C45.7386 39.4261 45.6179 39.8125 45.4247 40.1847C45.2344 40.554 44.9773 40.8849 44.6534 41.1776C44.3324 41.4673 43.9489 41.6974 43.5028 41.8679C43.0597 42.0355 42.5582 42.1193 41.9986 42.1193C41.2202 42.1193 40.5241 41.9432 39.9105 41.5909C39.2997 41.2386 38.8168 40.7287 38.4616 40.0611C38.1094 39.3935 37.9332 38.5852 37.9332 37.6364C37.9332 36.6847 38.1122 35.875 38.4702 35.2074C38.8281 34.5398 39.3139 34.0312 39.9276 33.6818C40.5412 33.3295 41.2315 33.1534 41.9986 33.1534C42.5043 33.1534 42.973 33.2244 43.4048 33.3665C43.8395 33.5085 44.2244 33.7159 44.5597 33.9886C44.8949 34.2585 45.1676 34.5895 45.3778 34.9815C45.5909 35.3736 45.7273 35.8224 45.7869 36.3281ZM51.8445 35.7827C51.8104 35.4389 51.6641 35.1719 51.4055 34.9815C51.147 34.7912 50.7962 34.696 50.353 34.696C50.0518 34.696 49.7976 34.7386 49.5902 34.8239C49.3828 34.9062 49.2237 35.0213 49.1129 35.169C49.005 35.3168 48.951 35.4844 48.951 35.6719C48.9453 35.8281 48.978 35.9645 49.049 36.081C49.1229 36.1974 49.2237 36.2983 49.3516 36.3835C49.4794 36.4659 49.6271 36.5384 49.7947 36.6009C49.9624 36.6605 50.1413 36.7116 50.3317 36.7543L51.1158 36.9418C51.4964 37.027 51.8459 37.1406 52.1641 37.2827C52.4822 37.4247 52.7578 37.5994 52.9908 37.8068C53.2237 38.0142 53.4041 38.2585 53.532 38.5398C53.6626 38.821 53.7294 39.1435 53.7322 39.5071C53.7294 40.0412 53.593 40.5043 53.3232 40.8963C53.0561 41.2855 52.6697 41.5881 52.1641 41.804C51.6612 42.017 51.0547 42.1236 50.3445 42.1236C49.6399 42.1236 49.0263 42.0156 48.5036 41.7997C47.9837 41.5838 47.5774 41.2642 47.2848 40.8409C46.995 40.4148 46.843 39.8878 46.8288 39.2599H48.6143C48.6342 39.5526 48.718 39.7969 48.8658 39.9929C49.0163 40.1861 49.2166 40.3324 49.4666 40.4318C49.7195 40.5284 50.005 40.5767 50.3232 40.5767C50.6357 40.5767 50.907 40.5312 51.1371 40.4403C51.37 40.3494 51.5504 40.223 51.6783 40.0611C51.8061 39.8991 51.87 39.7131 51.87 39.5028C51.87 39.3068 51.8118 39.142 51.6953 39.0085C51.5817 38.875 51.4141 38.7614 51.1925 38.6676C50.9737 38.5739 50.7053 38.4886 50.3871 38.4119L49.4368 38.1733C48.701 37.9943 48.12 37.7145 47.6939 37.3338C47.2678 36.9531 47.0561 36.4403 47.0589 35.7955C47.0561 35.267 47.1967 34.8054 47.4808 34.4105C47.7678 34.0156 48.1612 33.7074 48.6612 33.4858C49.1612 33.2642 49.7294 33.1534 50.3658 33.1534C51.0135 33.1534 51.5788 33.2642 52.0618 33.4858C52.5476 33.7074 52.9254 34.0156 53.1953 34.4105C53.4652 34.8054 53.6044 35.2628 53.6129 35.7827H51.8445ZM56.5501 33.2727L58.6594 39.9034H58.7404L60.854 33.2727H62.8995L59.891 42H57.5131L54.5004 33.2727H56.5501Z" fill="white"/>
<path d="M8.25284 3.27273V-1.72727H3.25284V3.27273H8.25284ZM10.0767 3.27273H15.0767V-1.72727H10.0767V3.27273ZM9.69744 10.8239L5.42815 8.22135L5.42163 8.23204L5.41516 8.24276L9.69744 10.8239ZM8.65341 11.7827L6.40597 7.31624L6.40597 7.31624L8.65341 11.7827ZM5.66619 11.8423L3.6525 16.4189L3.67085 16.427L3.68926 16.4349L5.66619 11.8423ZM4.65199 10.9901L0.463318 13.7204L0.467969 13.7276L0.472644 13.7347L4.65199 10.9901ZM4.28125 9.54545V4.54545H-0.6943L-0.71869 9.52094L4.28125 9.54545ZM6.1179 9.54545L11.1164 9.42204L10.996 4.54545H6.1179V9.54545ZM6.25852 10.1378L1.84887 12.4947L1.87326 12.5403L1.8986 12.5855L6.25852 10.1378ZM6.62926 10.5128L4.1742 14.8685L4.2209 14.8949L4.26815 14.9202L6.62926 10.5128ZM7.76705 10.4957L10.3962 14.7487L10.4066 14.7422L10.417 14.7357L7.76705 10.4957ZM8.12926 10.0611L12.7179 12.0472L12.7179 12.0472L8.12926 10.0611ZM8.25284 8.27273H10.0767V-1.72727H8.25284V8.27273ZM5.0767 3.27273V9.35795H15.0767V3.27273H5.0767ZM5.0767 9.35795C5.0767 9.14981 5.13174 8.70759 5.42815 8.22135L13.9667 13.4264C14.7688 12.1106 15.0767 10.6911 15.0767 9.35795H5.0767ZM5.41516 8.24276C5.53002 8.05221 5.68113 7.86261 5.86691 7.692C6.05186 7.52214 6.23981 7.39985 6.40597 7.31624L10.9008 16.2491C12.1619 15.6146 13.2272 14.6535 13.9797 13.405L5.41516 8.24276ZM6.40597 7.31624C6.77412 7.13099 7.05079 7.11932 7.09801 7.11932V17.1193C8.32705 17.1193 9.64065 16.8832 10.9008 16.2491L6.40597 7.31624ZM7.09801 7.11932C7.16711 7.11932 7.37394 7.13388 7.64313 7.24976L3.68926 16.4349C4.8164 16.9201 5.97778 17.1193 7.09801 17.1193V7.11932ZM7.67989 7.26575C7.8777 7.35279 8.09611 7.48121 8.30975 7.66075C8.52407 7.84084 8.69819 8.04267 8.83133 8.24541L0.472644 13.7347C1.2649 14.9411 2.36359 15.8518 3.6525 16.4189L7.67989 7.26575ZM8.84066 8.25966C9.25047 8.88835 9.28187 9.43072 9.28119 9.56996L-0.71869 9.52094C-0.725054 10.8193 -0.446491 12.3247 0.463318 13.7204L8.84066 8.25966ZM4.28125 14.5455H6.1179V4.54545H4.28125V14.5455ZM1.11942 9.66887C1.13998 10.5014 1.31735 11.5002 1.84887 12.4947L10.6682 7.7809C11.0236 8.4458 11.1072 9.04969 11.1164 9.42204L1.11942 9.66887ZM1.8986 12.5855C2.42113 13.5162 3.19116 14.3145 4.1742 14.8685L9.08433 6.15702C9.75486 6.53496 10.2777 7.08322 10.6184 7.69011L1.8986 12.5855ZM4.26815 14.9202C5.28324 15.464 6.31305 15.6406 7.19176 15.6406V5.64062C7.63866 5.64062 8.29346 5.73204 8.99037 6.10538L4.26815 14.9202ZM7.19176 15.6406C8.128 15.6406 9.2818 15.4376 10.3962 14.7487L5.13793 6.24277C5.93979 5.74707 6.71007 5.64062 7.19176 5.64062V15.6406ZM10.417 14.7357C11.526 14.0426 12.2771 13.0655 12.7179 12.0472L3.54065 8.07497C3.81664 7.43733 4.32629 6.74997 5.11705 6.25575L10.417 14.7357ZM12.7179 12.0472C13.1475 11.0546 13.2528 10.0985 13.2528 9.35795H3.25284C3.25284 9.17423 3.2758 8.68685 3.54065 8.07497L12.7179 12.0472ZM13.2528 9.35795V3.27273H3.25284V9.35795H13.2528ZM16.3366 5.78267L11.3611 6.27612L11.808 10.7827H16.3366V5.78267ZM14.0824 4.82386L15.9284 9.47062L15.9557 9.45975L15.983 9.44856L14.0824 4.82386ZM13.6051 5.16903L9.60512 2.16903L9.58648 2.19388L9.56816 2.21895L13.6051 5.16903ZM13.4432 5.67188L18.4399 5.85357L18.4432 5.76275V5.67188H13.4432ZM13.5412 6.08097L9.27221 8.684L9.2951 8.72154L9.31865 8.75868L13.5412 6.08097ZM13.8438 6.38352L11.0702 10.5438L11.1026 10.5653L11.1352 10.5864L13.8438 6.38352ZM14.2869 6.60085L12.54 11.2858L12.5751 11.2988L12.6103 11.3114L14.2869 6.60085ZM14.8239 6.75426L15.9867 1.89137L15.9515 1.88295L15.9162 1.87504L14.8239 6.75426ZM15.608 6.94176L14.4451 11.8047L14.4803 11.8131L14.5156 11.821L15.608 6.94176ZM16.6562 7.28267L14.618 11.8484L14.618 11.8484L16.6562 7.28267ZM17.483 7.80682L20.8076 4.07229L20.8076 4.07228L17.483 7.80682ZM18.0241 8.53977L13.4723 10.6088L13.4809 10.6278L13.4897 10.6467L18.0241 8.53977ZM18.2244 9.5071L23.2244 9.53369L23.2245 9.50087L23.2243 9.46805L18.2244 9.5071ZM17.8153 10.8963L13.6969 8.06113L13.6925 8.0675L17.8153 10.8963ZM16.6562 11.804L18.607 16.4078L18.6196 16.4024L16.6562 11.804ZM12.9957 11.7997L11.078 16.4173L11.0869 16.421L12.9957 11.7997ZM11.777 10.8409L7.64236 13.6525L7.65314 13.6683L7.66404 13.6841L11.777 10.8409ZM11.321 9.25994V4.25994H6.20662L6.3223 9.37304L11.321 9.25994ZM13.1065 9.25994L18.095 8.92092L17.7783 4.25994H13.1065V9.25994ZM13.358 9.9929L9.36491 13.0021L9.38935 13.0346L9.41432 13.0666L13.358 9.9929ZM13.9588 10.4318L12.111 15.0778L12.1426 15.0904L12.1745 15.1026L13.9588 10.4318ZM15.6293 10.4403L13.8115 5.78245L13.8018 5.78625L13.7921 5.79008L15.6293 10.4403ZM16.1705 10.0611L20.0949 13.1593L20.0949 13.1593L16.1705 10.0611ZM16.1875 9.00852L12.3798 12.2491L12.3996 12.2724L12.4197 12.2954L16.1875 9.00852ZM15.6847 8.66761L13.7151 13.2633L13.7258 13.2679L13.7365 13.2725L15.6847 8.66761ZM14.8793 8.41193L13.6615 13.2614L13.6844 13.2671L13.7075 13.2727L14.8793 8.41193ZM13.929 8.1733L15.1468 3.32386L15.1288 3.31934L15.1107 3.31496L13.929 8.1733ZM12.1861 7.33381L8.85501 11.0626L8.85501 11.0626L12.1861 7.33381ZM11.5511 5.79545L16.5511 5.81748L16.5512 5.79303L16.5511 5.76857L11.5511 5.79545ZM11.973 4.41051L7.92807 1.47138L7.92113 1.48094L7.91423 1.49052L11.973 4.41051ZM16.554 3.4858L14.4689 8.03029L14.479 8.03489L16.554 3.4858ZM17.6875 4.41051L13.5595 7.2318L13.5595 7.2318L17.6875 4.41051ZM18.1051 5.78267V10.7827H23.1878L23.1044 5.70072L18.1051 5.78267ZM21.3122 5.28922C21.1503 3.65659 20.3552 2.05434 18.8622 0.955143L12.9332 9.00792C12.509 8.69556 12.1118 8.26624 11.8163 7.727C11.5255 7.19619 11.4015 6.68412 11.3611 6.27612L21.3122 5.28922ZM18.8622 0.955143C17.4721 -0.0683246 15.9579 -0.303978 14.8452 -0.303978V9.69602C14.6188 9.69602 13.8063 9.65071 12.9332 9.00792L18.8622 0.955143ZM14.8452 -0.303978C14.1029 -0.303978 13.1606 -0.203058 12.1818 0.199164L15.983 9.44856C15.419 9.68033 14.9852 9.69602 14.8452 9.69602V-0.303978ZM12.2364 0.177104C11.3522 0.528364 10.3738 1.14414 9.60512 2.16903L17.6051 8.16904C17.058 8.89847 16.3978 9.28414 15.9284 9.47062L12.2364 0.177104ZM9.56816 2.21895C8.818 3.24548 8.44318 4.45193 8.44318 5.67188H18.4432C18.4432 6.51682 18.1763 7.38804 17.6421 8.11911L9.56816 2.21895ZM8.44648 5.49018C8.41053 6.47879 8.61931 7.61324 9.27221 8.684L17.8102 3.47793C18.321 4.31574 18.4645 5.17746 18.4399 5.85357L8.44648 5.49018ZM9.31865 8.75868C9.80723 9.52913 10.4277 10.1154 11.0702 10.5438L16.6173 2.22327C17.0042 2.48121 17.4229 2.86576 17.7637 3.40326L9.31865 8.75868ZM11.1352 10.5864C11.6127 10.8941 12.0927 11.119 12.54 11.2858L16.0338 1.91595C16.1459 1.95773 16.3305 2.03773 16.5523 2.18066L11.1352 10.5864ZM12.6103 11.3114C12.9863 11.4452 13.3618 11.5507 13.7315 11.6335L15.9162 1.87504C15.9052 1.87258 15.9228 1.87584 15.9636 1.89034L12.6103 11.3114ZM13.661 11.6172L14.4451 11.8047L16.7708 2.07887L15.9867 1.89137L13.661 11.6172ZM14.5156 11.821C14.6093 11.842 14.6375 11.8571 14.618 11.8484L18.6945 2.71698C18.0387 2.4242 17.368 2.21202 16.7003 2.06255L14.5156 11.821ZM14.618 11.8484C14.5216 11.8053 14.351 11.7129 14.1583 11.5414L20.8076 4.07228C20.149 3.48601 19.4273 3.04412 18.6945 2.71698L14.618 11.8484ZM14.1583 11.5413C13.8757 11.2898 13.6358 10.9684 13.4723 10.6088L22.576 6.47076C22.1568 5.54863 21.5561 4.73866 20.8076 4.07229L14.1583 11.5413ZM13.4897 10.6467C13.2717 10.1775 13.2264 9.77498 13.2246 9.54616L23.2243 9.46805C23.2168 8.51195 23.0379 7.46455 22.5586 6.43287L13.4897 10.6467ZM13.2245 9.48051C13.2263 9.13838 13.3297 8.59454 13.6969 8.06113L21.9338 13.7315C22.8408 12.414 23.2169 10.944 23.2244 9.53369L13.2245 9.48051ZM13.6925 8.0675C14.0463 7.55183 14.4721 7.29986 14.6929 7.20558L18.6196 16.4024C19.8518 15.8763 21.0503 15.0192 21.9382 13.7251L13.6925 8.0675ZM14.7055 7.20022C14.8437 7.14168 14.9361 7.12313 14.9592 7.11907C14.981 7.11524 14.9448 7.12358 14.8366 7.12358V17.1236C16.0249 17.1236 17.3318 16.9481 18.607 16.4077L14.7055 7.20022ZM14.8366 7.12358C14.7378 7.12358 14.7009 7.11587 14.7143 7.11824C14.7292 7.12086 14.7985 7.13461 14.9045 7.17841L11.0869 16.421C12.3439 16.9402 13.6328 17.1236 14.8366 17.1236V7.12358ZM14.9134 7.18209C15.0371 7.23346 15.2074 7.32263 15.3927 7.4684C15.5806 7.61626 15.7507 7.79632 15.8899 7.99773L7.66404 13.6841C8.55379 14.9712 9.75779 15.869 11.078 16.4173L14.9134 7.18209ZM15.9116 8.02936C16.2722 8.55964 16.3169 9.02294 16.3197 9.14685L6.3223 9.37304C6.35351 10.7526 6.70222 12.2699 7.64236 13.6525L15.9116 8.02936ZM11.321 14.2599H13.1065V4.25994H11.321V14.2599ZM8.11804 9.59897C8.1907 10.6681 8.52782 11.8914 9.36491 13.0021L17.351 6.98365C17.8926 7.70235 18.0621 8.43697 18.095 8.92092L8.11804 9.59897ZM9.41432 13.0666C10.1641 14.0286 11.1187 14.6832 12.111 15.0778L15.8067 5.7858C16.2989 5.98158 16.8529 6.34351 17.3016 6.91918L9.41432 13.0666ZM12.1745 15.1026C13.0875 15.4514 13.9923 15.5767 14.8153 15.5767V5.5767C15.002 5.5767 15.3358 5.60542 15.7431 5.76104L12.1745 15.1026ZM14.8153 15.5767C15.5979 15.5767 16.5198 15.4646 17.4664 15.0906L13.7921 5.79008C14.2785 5.59795 14.6578 5.5767 14.8153 5.5767V15.5767ZM17.447 15.0982C18.3328 14.7525 19.3099 14.1536 20.0949 13.1593L12.246 6.96286C12.7753 6.29243 13.3916 5.94633 13.8115 5.78245L17.447 15.0982ZM20.0949 13.1593C20.9336 12.0969 21.3622 10.8142 21.3622 9.50284H11.3622C11.3622 8.6119 11.663 7.70135 12.246 6.96286L20.0949 13.1593ZM21.3622 9.50284C21.3622 8.23637 20.9526 6.86483 19.9553 5.72168L12.4197 12.2954C11.6554 11.4193 11.3622 10.3773 11.3622 9.50284H21.3622ZM19.9952 5.76793C19.2244 4.86225 18.3192 4.35315 17.6329 4.06278L13.7365 13.2725C13.4933 13.1696 12.9233 12.8878 12.3798 12.2491L19.9952 5.76793ZM17.6543 4.07189C17.102 3.83521 16.5486 3.67113 16.051 3.55118L13.7075 13.2727C13.7379 13.28 13.7613 13.2861 13.7782 13.2908C13.7952 13.2955 13.8043 13.2984 13.8064 13.299C13.8085 13.2997 13.8017 13.2976 13.7872 13.2922C13.7727 13.2869 13.7482 13.2775 13.7151 13.2633L17.6543 4.07189ZM16.0971 3.5625L15.1468 3.32386L12.7112 13.0227L13.6615 13.2614L16.0971 3.5625ZM15.1107 3.31496C14.9233 3.26937 15.1638 3.28931 15.5171 3.605L8.85501 11.0626C10.0607 12.1397 11.463 12.7193 12.7472 13.0316L15.1107 3.31496ZM15.5171 3.605C15.8487 3.90115 16.1391 4.29465 16.3295 4.7561C16.5139 5.2027 16.5521 5.58433 16.5511 5.81748L6.55118 5.77343C6.54294 7.64506 7.21751 9.59978 8.85501 11.0626L15.5171 3.605ZM16.5511 5.76857C16.5521 5.95967 16.5269 6.21647 16.4375 6.50989C16.3469 6.80738 16.2071 7.08687 16.0318 7.3305L7.91423 1.49052C6.95888 2.81846 6.5432 4.33307 6.55121 5.82234L16.5511 5.76857ZM16.018 7.34964C15.7271 7.7499 15.3852 7.96574 15.1793 8.05699L11.1275 -1.0854C9.92163 -0.550966 8.79277 0.281353 7.92807 1.47138L16.018 7.34964ZM15.1793 8.05699C14.9454 8.16065 14.8062 8.15341 14.858 8.15341V-1.84659C13.6369 -1.84659 12.3614 -1.63224 11.1275 -1.0854L15.1793 8.05699ZM14.858 8.15341C14.9403 8.15341 14.7672 8.16714 14.4689 8.03027L18.6391 -1.05868C17.3749 -1.63873 16.0711 -1.84659 14.858 -1.84659V8.15341ZM14.479 8.03489C14.2348 7.92354 13.8619 7.67421 13.5595 7.2318L21.8155 1.58922C20.9734 0.357037 19.8447 -0.508763 18.629 -1.0633L14.479 8.03489ZM13.5595 7.2318C13.408 7.01019 13.2893 6.76284 13.2109 6.50552C13.1336 6.25143 13.1085 6.02998 13.1058 5.86462L23.1044 5.70072C23.0813 4.29108 22.6859 2.8627 21.8155 1.58922L13.5595 7.2318ZM18.1051 0.78267H16.3366V10.7827H18.1051V0.78267ZM26.9442 10.0653L22.5455 7.68815L22.5416 7.6954L22.5377 7.70267L26.9442 10.0653ZM25.4783 11.5952L27.9439 15.945L27.9504 15.9413L25.4783 11.5952ZM21.3107 11.5909L23.7914 7.24969L23.7914 7.24969L21.3107 11.5909ZM19.8491 10.0611L15.4425 12.4237L15.4425 12.4237L19.8491 10.0611ZM19.8491 5.20739L24.2556 7.57006L24.2556 7.57005L19.8491 5.20739ZM21.3107 3.68182L23.7763 8.03164L23.7839 8.02735L23.7914 8.02303L21.3107 3.68182ZM25.4783 3.68182L22.9976 8.02303L23.0095 8.0298L23.0213 8.03649L25.4783 3.68182ZM26.9442 5.20739L22.5377 7.57005L22.5416 7.57732L22.5455 7.58458L26.9442 5.20739ZM25.3377 6.0767L20.7436 8.05002L20.7492 8.06301L20.7548 8.07596L25.3377 6.0767ZM24.5664 5.11364L21.8177 9.29029L21.8177 9.29029L24.5664 5.11364ZM22.2312 5.11364L24.9799 9.29029L24.9799 9.29029L22.2312 5.11364ZM21.4556 6.0767L16.8727 4.07745L16.8671 4.0904L16.8615 4.10339L21.4556 6.0767ZM21.4556 9.19602L16.8615 11.1693L16.8671 11.1823L16.8727 11.1953L21.4556 9.19602ZM22.2312 10.1591L24.9799 5.98244L24.9799 5.98244L22.2312 10.1591ZM24.5664 10.1591L21.8177 5.98244L21.8177 5.98244L24.5664 10.1591ZM25.3377 9.19602L20.7548 7.19677L20.7492 7.20972L20.7436 7.22271L25.3377 9.19602ZM22.4854 7.63636C22.4854 7.7167 22.4816 7.7752 22.4776 7.81408C22.4737 7.85282 22.4697 7.87048 22.4698 7.87001C22.47 7.8693 22.4742 7.85079 22.4862 7.81805C22.4983 7.78501 22.5172 7.74048 22.5455 7.68815L31.343 12.4425C32.1863 10.882 32.4854 9.21105 32.4854 7.63636H22.4854ZM22.5377 7.70267C22.5577 7.66538 22.6075 7.5848 22.6992 7.4892C22.7923 7.392 22.8994 7.30981 23.0062 7.24906L27.9504 15.9413C29.441 15.0935 30.5771 13.871 31.3508 12.428L22.5377 7.70267ZM23.0128 7.24535C23.0983 7.19689 23.1895 7.16122 23.2741 7.13992C23.3564 7.11916 23.4032 7.11932 23.3988 7.11932V17.1193C24.956 17.1193 26.5114 16.757 27.9439 15.945L23.0128 7.24535ZM23.3988 7.11932C23.3917 7.11932 23.4381 7.11884 23.5217 7.14001C23.6078 7.16179 23.7021 7.19863 23.7914 7.24969L18.83 15.9321C20.2706 16.7553 21.8357 17.1193 23.3988 17.1193V7.11932ZM23.7914 7.24969C23.8993 7.31135 24.0061 7.39387 24.0981 7.49019C24.1886 7.58484 24.237 7.66369 24.2556 7.69841L15.4425 12.4237C16.213 13.8608 17.3435 15.0827 18.83 15.9321L23.7914 7.24969ZM24.2556 7.69841C24.283 7.74952 24.3013 7.79277 24.3129 7.82456C24.3243 7.85606 24.3282 7.87343 24.3281 7.87317C24.3277 7.87116 24.3121 7.79891 24.3121 7.63636H14.3121C14.3121 9.2053 14.6087 10.8686 15.4425 12.4237L24.2556 7.69841ZM24.3121 7.63636C24.3121 7.47135 24.3279 7.39749 24.3285 7.39455C24.3287 7.39387 24.3249 7.41111 24.3134 7.44272C24.3018 7.47463 24.2834 7.5183 24.2556 7.57006L15.4425 2.84472C14.6076 4.4019 14.3121 6.06742 14.3121 7.63636H24.3121ZM24.2556 7.57005C24.2363 7.60606 24.1864 7.68721 24.0933 7.78437C23.9985 7.88329 23.8883 7.96818 23.7763 8.03164L18.8452 -0.668007C17.3497 0.179634 16.2146 1.40465 15.4425 2.84472L24.2556 7.57005ZM23.7914 8.02303C23.7021 8.07409 23.6078 8.11094 23.5217 8.13271C23.4381 8.15388 23.3917 8.15341 23.3988 8.15341V-1.84659C21.8357 -1.84659 20.2706 -1.48259 18.83 -0.659397L23.7914 8.02303ZM23.3988 8.15341C23.4 8.15341 23.35 8.15319 23.2647 8.13151C23.1772 8.10928 23.084 8.07241 22.9976 8.02303L27.959 -0.659396C26.524 -1.47939 24.9632 -1.84659 23.3988 -1.84659V8.15341ZM23.0213 8.03649C22.9105 7.97394 22.7999 7.88942 22.704 7.78962C22.6097 7.69151 22.5584 7.60863 22.5377 7.57005L31.3508 2.84472C30.5755 1.39875 29.4348 0.17316 27.9353 -0.672856L23.0213 8.03649ZM22.5455 7.58458C22.5172 7.53224 22.4983 7.48772 22.4862 7.45468C22.4742 7.42194 22.47 7.40343 22.4698 7.40271C22.4697 7.40224 22.4737 7.41991 22.4776 7.45865C22.4816 7.49752 22.4854 7.55603 22.4854 7.63636H32.4854C32.4854 6.06168 32.1863 4.39072 31.343 2.83019L22.5455 7.58458ZM30.6147 7.63636C30.6147 6.55016 30.456 5.30468 29.9206 4.07745L20.7548 8.07596C20.6694 7.88022 20.6355 7.73143 20.6225 7.65839C20.6097 7.58658 20.6147 7.57392 20.6147 7.63636H30.6147ZM29.9318 4.10339C29.4262 2.92629 28.5879 1.77462 27.3151 0.936982L21.8177 9.29029C21.2097 8.89016 20.8855 8.38053 20.7436 8.05002L29.9318 4.10339ZM27.3151 0.936983C26.0702 0.117662 24.6996 -0.214489 23.3988 -0.214489V9.78551C22.99 9.78551 22.3978 9.67211 21.8177 9.29029L27.3151 0.936983ZM23.3988 -0.214489C22.098 -0.214489 20.7274 0.117662 19.4824 0.936983L24.9799 9.29029C24.3997 9.67211 23.8076 9.78551 23.3988 9.78551V-0.214489ZM19.4824 0.936982C18.2171 1.76971 17.3812 2.91187 16.8727 4.07745L26.0385 8.07596C25.8994 8.39494 25.5805 8.89506 24.9799 9.29029L19.4824 0.936982ZM16.8615 4.10339C16.3378 5.3226 16.1829 6.55839 16.1829 7.63636H26.1829C26.1829 7.57007 26.1881 7.57828 26.1763 7.64534C26.1644 7.71348 26.1323 7.85785 26.0497 8.05002L16.8615 4.10339ZM16.1829 7.63636C16.1829 8.71434 16.3378 9.95012 16.8615 11.1693L26.0497 7.22271C26.1323 7.41487 26.1644 7.55924 26.1763 7.62739C26.1881 7.69445 26.1829 7.70266 26.1829 7.63636H16.1829ZM16.8727 11.1953C17.3812 12.3609 18.2171 13.503 19.4824 14.3357L24.9799 5.98244C25.5805 6.37766 25.8994 6.87778 26.0385 7.19677L16.8727 11.1953ZM19.4824 14.3357C20.7274 15.1551 22.098 15.4872 23.3988 15.4872V5.48722C23.8076 5.48722 24.3997 5.60062 24.9799 5.98244L19.4824 14.3357ZM23.3988 15.4872C24.6996 15.4872 26.0702 15.1551 27.3151 14.3357L21.8177 5.98244C22.3978 5.60062 22.99 5.48722 23.3988 5.48722V15.4872ZM27.3151 14.3357C28.5879 13.4981 29.4262 12.3464 29.9318 11.1693L20.7436 7.22271C20.8855 6.8922 21.2097 6.38257 21.8177 5.98244L27.3151 14.3357ZM29.9206 11.1953C30.456 9.96805 30.6147 8.72257 30.6147 7.63636H20.6147C20.6147 7.69881 20.6097 7.68614 20.6225 7.61434C20.6355 7.54129 20.6694 7.3925 20.7548 7.19677L29.9206 11.1953ZM36.152 3.27273H41.152V-1.72727H36.152V3.27273ZM36.152 12V17H41.152V12H36.152ZM34.5582 12L30.4452 14.8431L31.9362 17H34.5582V12ZM30.7614 6.5071L34.8744 3.66404L33.3834 1.5071H30.7614V6.5071ZM30.6974 6.5071V1.5071H25.6974V6.5071H30.6974ZM30.6974 12V17H35.6974V12H30.6974ZM28.8523 12H23.8523V17H28.8523V12ZM28.8523 3.27273V-1.72727H23.8523V3.27273H28.8523ZM30.4716 3.27273L34.594 0.443344L33.1043 -1.72727H30.4716V3.27273ZM34.2386 8.76136L30.1162 11.5907L31.606 13.7614H34.2386V8.76136ZM34.3153 8.76136V13.7614H39.3153V8.76136H34.3153ZM34.3153 3.27273V-1.72727H29.3153V3.27273H34.3153ZM31.152 3.27273V12H41.152V3.27273H31.152ZM36.152 7H34.5582V17H36.152V7ZM38.6713 9.15694L34.8744 3.66404L26.6483 9.35016L30.4452 14.8431L38.6713 9.15694ZM30.7614 1.5071H30.6974V11.5071H30.7614V1.5071ZM25.6974 6.5071V12H35.6974V6.5071H25.6974ZM30.6974 7H28.8523V17H30.6974V7ZM33.8523 12V3.27273H23.8523V12H33.8523ZM28.8523 8.27273H30.4716V-1.72727H28.8523V8.27273ZM26.3491 6.10211L30.1162 11.5907L38.3611 5.93198L34.594 0.443344L26.3491 6.10211ZM34.2386 13.7614H34.3153V3.76136H34.2386V13.7614ZM39.3153 8.76136V3.27273H29.3153V8.76136H39.3153ZM34.3153 8.27273H36.152V-1.72727H34.3153V8.27273ZM26.6449 19.794H21.6449V24.794H26.6449V19.794ZM26.6449 18.2727V13.2727H21.6449V18.2727H26.6449ZM33.8125 18.2727H38.8125V13.2727H33.8125V18.2727ZM33.8125 19.794V24.794H38.8125V19.794H33.8125ZM31.1406 19.794V14.794H26.1406V19.794H31.1406ZM31.1406 27V32H36.1406V27H31.1406ZM29.3168 27H24.3168V32H29.3168V27ZM29.3168 19.794H34.3168V14.794H29.3168V19.794ZM31.6449 19.794V18.2727H21.6449V19.794H31.6449ZM26.6449 23.2727H33.8125V13.2727H26.6449V23.2727ZM28.8125 18.2727V19.794H38.8125V18.2727H28.8125ZM33.8125 14.794H31.1406V24.794H33.8125V14.794ZM26.1406 19.794V27H36.1406V19.794H26.1406ZM31.1406 22H29.3168V32H31.1406V22ZM34.3168 27V19.794H24.3168V27H34.3168ZM29.3168 14.794H26.6449V24.794H29.3168V14.794ZM35.2496 26.706L32.7034 31.0091L32.7184 31.0179L32.7335 31.0267L35.2496 26.706ZM34.1374 25.5213L29.6904 27.8069L29.6956 27.8171L34.1374 25.5213ZM34.1374 21.9801L38.5792 24.2759L38.5844 24.2657L34.1374 21.9801ZM35.2496 20.7955L37.7769 25.1097L37.7847 25.1051L35.2496 20.7955ZM38.68 20.7955L36.1338 25.0986L36.1488 25.1074L36.1638 25.1162L38.68 20.7955ZM39.7965 21.9801L35.3495 24.2657L35.3547 24.2759L39.7965 21.9801ZM39.7965 25.5213L44.2383 27.8171L44.2435 27.8069L39.7965 25.5213ZM38.68 26.706L41.2073 31.0202L41.2151 31.0156L38.68 26.706ZM37.7298 25.4659L40.9571 29.2849L40.9726 29.2717L40.9881 29.2584L37.7298 25.4659ZM38.1857 24.7585L33.4699 23.0968L33.4629 23.1168L33.456 23.1369L38.1857 24.7585ZM38.1857 22.7216L33.456 24.3432L33.4629 24.3633L33.4699 24.3833L38.1857 22.7216ZM36.2085 22.0142L33.0024 18.1774L32.9893 18.1883L32.9764 18.1993L36.2085 22.0142ZM35.744 22.7216L31.0282 21.0598L31.0211 21.0799L31.0142 21.1L35.744 22.7216ZM35.744 24.7585L31.0142 26.3801L31.0211 26.4002L31.0282 26.4203L35.744 24.7585ZM36.2085 25.4659L32.9764 29.2808L33.0048 29.3049L33.0336 29.3286L36.2085 25.4659ZM36.967 22.1278C37.0251 22.1278 37.3547 22.1458 37.7658 22.3852L32.7335 31.0267C34.1105 31.8287 35.585 32.1278 36.967 32.1278V22.1278ZM37.7959 22.4029C37.9496 22.4938 38.1096 22.6176 38.2567 22.7744C38.4034 22.9306 38.5085 23.0888 38.5792 23.2255L29.6956 27.8171C30.3787 29.1386 31.3984 30.2369 32.7034 31.0091L37.7959 22.4029ZM38.5844 23.2357C38.7444 23.5468 38.7454 23.7654 38.7454 23.7528H28.7454C28.7454 25.0812 29.0078 26.4787 29.6904 27.8069L38.5844 23.2357ZM38.7454 23.7528C38.7454 23.7262 38.7476 23.9502 38.5792 24.2759L29.6956 19.6844C29.0046 21.0214 28.7454 22.4272 28.7454 23.7528H38.7454ZM38.5844 24.2657C38.514 24.4028 38.4076 24.5642 38.2567 24.7249C38.1052 24.8863 37.939 25.0148 37.7769 25.1097L32.7224 16.4812C31.3991 17.2564 30.3734 18.3657 29.6904 19.6945L38.5844 24.2657ZM37.7847 25.1051C37.3701 25.349 37.0336 25.3693 36.967 25.3693V15.3693C35.5765 15.3693 34.0951 15.6737 32.7145 16.4858L37.7847 25.1051ZM36.967 25.3693C36.9013 25.3693 36.5576 25.3493 36.1338 25.0986L41.2263 16.4923C39.8422 15.6734 38.3565 15.3693 36.967 15.3693V25.3693ZM36.1638 25.1162C36.0028 25.0224 35.8358 24.8943 35.6827 24.7318C35.5301 24.57 35.4217 24.4063 35.3495 24.2657L44.2435 19.6945C43.5566 18.3579 42.5237 17.2478 41.1962 16.4747L36.1638 25.1162ZM35.3547 24.2759C35.1864 23.9502 35.1886 23.7262 35.1886 23.7528H45.1886C45.1886 22.4272 44.9294 21.0214 44.2383 19.6844L35.3547 24.2759ZM35.1886 23.7528C35.1886 23.7654 35.1896 23.5468 35.3495 23.2357L44.2435 27.8069C44.9262 26.4787 45.1886 25.0812 45.1886 23.7528H35.1886ZM35.3547 23.2256C35.4272 23.0853 35.5343 22.9249 35.6827 22.7675C35.8315 22.6096 35.9922 22.4862 36.1449 22.3963L41.2151 31.0156C42.5244 30.2455 43.5513 29.1463 44.2383 27.8171L35.3547 23.2256ZM36.1528 22.3917C36.5731 22.1454 36.9098 22.1278 36.967 22.1278V32.1278C38.348 32.1278 39.8267 31.829 41.2073 31.0202L36.1528 22.3917ZM36.9755 30.7216C38.2823 30.7216 39.7271 30.3243 40.9571 29.2849L34.5025 21.6469C35.329 20.9485 36.271 20.7216 36.9755 20.7216V30.7216ZM40.9881 29.2584C41.9806 28.4057 42.5786 27.3627 42.9155 26.3801L33.456 23.1369C33.5883 22.7509 33.8823 22.1795 34.4714 21.6734L40.9881 29.2584ZM42.9015 26.4203C43.2286 25.492 43.3434 24.5749 43.3434 23.7401H33.3434C33.3434 23.6666 33.3531 23.4285 33.4699 23.0968L42.9015 26.4203ZM43.3434 23.7401C43.3434 22.9052 43.2286 21.9881 42.9015 21.0598L33.4699 24.3833C33.3531 24.0516 33.3434 23.8136 33.3434 23.7401H43.3434ZM42.9155 21.1C42.5786 20.1174 41.9806 19.0744 40.9881 18.2217L34.4714 25.8067C33.8823 25.3006 33.5883 24.7292 33.456 24.3432L42.9155 21.1ZM40.9881 18.2217C39.7594 17.166 38.3035 16.7543 36.9755 16.7543V26.7543C36.2497 26.7543 35.2967 26.5158 34.4714 25.8067L40.9881 18.2217ZM36.9755 16.7543C35.655 16.7543 34.2216 17.1586 33.0024 18.1774L39.4145 25.851C38.6101 26.5232 37.688 26.7543 36.9755 26.7543V16.7543ZM32.9764 18.1993C31.9822 19.0416 31.3747 20.0764 31.0282 21.0598L40.4597 24.3833C40.3234 24.7702 40.0256 25.3334 39.4405 25.8291L32.9764 18.1993ZM31.0142 21.1C30.7003 22.0155 30.5906 22.9183 30.5906 23.7401H40.5906C40.5906 23.8004 40.583 24.0243 40.4737 24.3432L31.0142 21.1ZM30.5906 23.7401C30.5906 24.5618 30.7003 25.4646 31.0142 26.3801L40.4737 23.1369C40.583 23.4559 40.5906 23.6797 40.5906 23.7401H30.5906ZM31.0282 26.4203C31.3747 27.4037 31.9822 28.4385 32.9764 29.2808L39.4405 21.651C40.0256 22.1467 40.3234 22.7099 40.4597 23.0968L31.0282 26.4203ZM33.0336 29.3286C34.2535 30.3312 35.6758 30.7216 36.9755 30.7216V20.7216C37.6673 20.7216 38.5782 20.9415 39.3833 21.6032L33.0336 29.3286ZM45.7869 36.3281V41.3281H51.4115L50.7525 35.7423L45.7869 36.3281ZM43.9205 36.3281L38.9695 37.0271L39.5768 41.3281H43.9205V36.3281ZM43.7116 35.6847L39.3347 38.1018L39.3424 38.1158L39.3502 38.1297L43.7116 35.6847ZM43.3068 35.1989L40.1589 39.0835L40.1589 39.0835L43.3068 35.1989ZM42.7358 34.892L41.1547 39.6355L41.164 39.6386L41.1734 39.6417L42.7358 34.892ZM40.8608 35.1222L43.618 39.2933L43.6302 39.2852L43.6424 39.277L40.8608 35.1222ZM40.081 36.0938L44.6639 38.093L44.6687 38.0818L40.081 36.0938ZM40.081 39.2045L35.4981 41.2038L35.5037 41.2167L35.5094 41.2295L40.081 39.2045ZM40.8651 40.1634L38.1577 44.3669L38.1577 44.3669L40.8651 40.1634ZM42.7145 40.3892L41.2485 35.6089L41.2395 35.6117L41.2305 35.6145L42.7145 40.3892ZM43.2812 40.1037L46.3032 44.0871L46.3248 44.0708L46.3462 44.0541L43.2812 40.1037ZM43.6903 39.6392L39.4206 37.0374L39.4057 37.0618L39.3911 37.0865L43.6903 39.6392ZM43.9205 39.017L43.9433 34.0171L39.7556 33.998L39.0021 38.1173L43.9205 39.017ZM45.7869 39.0256L50.751 39.6241L51.4229 34.0513L45.8098 34.0256L45.7869 39.0256ZM45.4247 40.1847L40.987 37.8811L40.9836 37.8876L40.9803 37.8941L45.4247 40.1847ZM44.6534 41.1776L48.0037 44.8891L48.0054 44.8875L44.6534 41.1776ZM43.5028 41.8679L45.2716 46.5446L45.2797 46.5415L45.2878 46.5384L43.5028 41.8679ZM39.9105 41.5909L37.4125 45.9222L37.4212 45.9272L39.9105 41.5909ZM38.4616 40.0611L34.0395 42.3945L34.0434 42.4018L34.0473 42.4091L38.4616 40.0611ZM38.4702 35.2074L42.8767 37.5701L42.8767 37.5701L38.4702 35.2074ZM39.9276 33.6818L42.4017 38.0267L42.4093 38.0224L42.4169 38.0181L39.9276 33.6818ZM43.4048 33.3665L41.8424 38.1161L41.8517 38.1191L43.4048 33.3665ZM44.5597 33.9886L41.4042 37.8672L41.4142 37.8753L41.4241 37.8833L44.5597 33.9886ZM45.3778 34.9815L40.9714 37.3444L40.978 37.3568L40.9847 37.3691L45.3778 34.9815ZM45.7869 31.3281H43.9205V41.3281H45.7869V31.3281ZM48.8714 35.6292C48.7622 34.856 48.5191 34.0353 48.0731 33.2396L39.3502 38.1297C39.1144 37.709 39.0105 37.3173 38.9695 37.0271L48.8714 35.6292ZM48.0886 33.2675C47.6802 32.528 47.1326 31.8635 46.4547 31.3142L40.1589 39.0835C39.8106 38.8013 39.5329 38.4607 39.3347 38.1018L48.0886 33.2675ZM46.4547 31.3142C45.7854 30.7718 45.0491 30.3894 44.2982 30.1424L41.1734 39.6417C40.8543 39.5367 40.4986 39.3588 40.1589 39.0835L46.4547 31.3142ZM44.3169 30.1486C43.5399 29.8896 42.7684 29.7855 42.0412 29.7855V39.7855C41.814 39.7855 41.5056 39.7524 41.1547 39.6355L44.3169 30.1486ZM42.0412 29.7855C40.7219 29.7855 39.334 30.1273 38.0792 30.9673L43.6424 39.277C43.0581 39.6682 42.457 39.7855 42.0412 39.7855V29.7855ZM38.1036 30.9511C36.8394 31.7868 36.0019 32.9317 35.4932 34.1057L44.6687 38.0818C44.5293 38.4035 44.2118 38.9007 43.618 39.2933L38.1036 30.9511ZM35.4981 34.0945C34.9672 35.3115 34.804 36.5468 34.804 37.6364H44.804C44.804 37.5157 44.8255 37.7226 44.6639 38.093L35.4981 34.0945ZM34.804 37.6364C34.804 38.7209 34.9605 39.9716 35.4981 41.2038L44.6639 37.2053C44.7507 37.4044 44.7845 37.5545 44.797 37.6253C44.8093 37.695 44.804 37.7042 44.804 37.6364H34.804ZM35.5094 41.2295C36.0271 42.3983 36.8761 43.5415 38.1577 44.3669L43.5724 35.9598C44.1836 36.3534 44.5099 36.8574 44.6526 37.1795L35.5094 41.2295ZM38.1577 44.3669C39.3832 45.1563 40.7317 45.4872 42.0284 45.4872V35.4872C42.4444 35.4872 43.0173 35.6022 43.5724 35.9598L38.1577 44.3669ZM42.0284 45.4872C42.7179 45.4872 43.4529 45.3956 44.1985 45.1639L41.2305 35.6145C41.5556 35.5134 41.8333 35.4872 42.0284 35.4872V45.4872ZM44.1804 45.1695C44.9112 44.9454 45.6355 44.5937 46.3032 44.0871L40.2593 36.1202C40.5975 35.8637 40.9439 35.7024 41.2485 35.6089L44.1804 45.1695ZM46.3462 44.0541C47.0134 43.5365 47.5661 42.9052 47.9896 42.1919L39.3911 37.0865C39.5987 36.7368 39.8786 36.4152 40.2163 36.1533L46.3462 44.0541ZM47.96 42.2411C48.4233 41.4809 48.6984 40.6846 48.8388 39.9167L39.0021 38.1173C39.0573 37.8154 39.179 37.4339 39.4206 37.0374L47.96 42.2411ZM43.8976 44.017L45.7641 44.0255L45.8098 34.0256L43.9433 34.0171L43.8976 44.017ZM40.8229 38.4271C40.8492 38.2091 40.9149 38.0199 40.987 37.8811L49.8625 42.4882C50.3209 41.6051 50.6281 40.6432 50.751 39.6241L40.8229 38.4271ZM40.9803 37.8941C41.0794 37.7017 41.2015 37.5578 41.3014 37.4676L48.0054 44.8875C48.7531 44.212 49.3893 43.4063 49.8692 42.4753L40.9803 37.8941ZM41.3031 37.466C41.4856 37.3013 41.6474 37.2243 41.7179 37.1973L45.2878 46.5384C46.2503 46.1706 47.1792 45.6334 48.0037 44.8891L41.3031 37.466ZM41.7341 37.1912C41.9483 37.1102 42.0611 37.1193 41.9986 37.1193V47.1193C43.0554 47.1193 44.171 46.9609 45.2716 46.5446L41.7341 37.1912ZM41.9986 37.1193C41.9885 37.1193 42.0343 37.1185 42.1194 37.14C42.2071 37.1622 42.3052 37.2003 42.3998 37.2546L37.4212 45.9272C38.8666 46.757 40.4365 47.1193 41.9986 47.1193V37.1193ZM42.4085 37.2596C42.5201 37.324 42.6284 37.4088 42.7205 37.5061C42.8109 37.6016 42.8585 37.6801 42.876 37.713L34.0473 42.4091C34.8094 43.8419 35.9304 45.0674 37.4125 45.9222L42.4085 37.2596ZM42.8838 37.7277C42.9379 37.8302 42.9516 37.8937 42.9507 37.8895C42.949 37.8819 42.9332 37.804 42.9332 37.6364H32.9332C32.9332 39.1938 33.2225 40.8461 34.0395 42.3945L42.8838 37.7277ZM42.9332 37.6364C42.9332 37.4714 42.949 37.3975 42.9496 37.3946C42.9498 37.3939 42.946 37.4111 42.9345 37.4427C42.9229 37.4746 42.9045 37.5183 42.8767 37.5701L34.0636 32.8447C33.2287 34.4019 32.9332 36.0674 32.9332 37.6364H42.9332ZM42.8767 37.5701C42.8588 37.6035 42.8103 37.6829 42.7184 37.7791C42.6247 37.8771 42.5148 37.9624 42.4017 38.0267L37.4534 29.3369C35.962 30.1861 34.8326 31.4106 34.0636 32.8447L42.8767 37.5701ZM42.4169 38.0181C42.3282 38.069 42.2323 38.1072 42.1417 38.1303C42.0988 38.1412 42.0634 38.1472 42.0376 38.1503C42.012 38.1534 41.9984 38.1534 41.9986 38.1534V28.1534C40.4337 28.1534 38.8725 28.5222 37.4382 29.3456L42.4169 38.0181ZM41.9986 38.1534C42.0326 38.1534 41.9681 38.1574 41.8425 38.1161L44.9672 28.6168C43.978 28.2914 42.9759 28.1534 41.9986 28.1534V38.1534ZM41.8517 38.1191C41.7374 38.0818 41.5721 38.0038 41.4042 37.8672L47.7151 30.1101C46.8767 29.428 45.9416 28.9353 44.958 28.6138L41.8517 38.1191ZM41.4241 37.8833C41.2197 37.7187 41.067 37.5227 40.9714 37.3444L49.7843 32.6187C49.2683 31.6563 48.5701 30.7983 47.6952 30.094L41.4241 37.8833ZM40.9847 37.3691C40.8543 37.1292 40.8258 36.9514 40.8214 36.9139L50.7525 35.7423C50.6288 34.6935 50.3275 33.6179 49.771 32.594L40.9847 37.3691ZM51.8445 35.7827L46.8689 36.2761L47.3158 40.7827H51.8445V35.7827ZM49.5902 34.8239L51.4362 39.4706L51.4635 39.4598L51.4908 39.4486L49.5902 34.8239ZM49.1129 35.169L45.1129 32.169L45.0943 32.1939L45.076 32.219L49.1129 35.169ZM48.951 35.6719L53.9477 35.8536L53.951 35.7628V35.6719H48.951ZM49.049 36.081L44.78 38.684L44.8029 38.7215L44.8265 38.7587L49.049 36.081ZM49.3516 36.3835L46.5781 40.5438L46.6104 40.5653L46.6431 40.5864L49.3516 36.3835ZM49.7947 36.6009L48.0478 41.2858L48.0829 41.2988L48.1181 41.3114L49.7947 36.6009ZM50.3317 36.7543L51.4945 31.8914L51.4593 31.883L51.424 31.875L50.3317 36.7543ZM51.1158 36.9418L49.9529 41.8047L49.9881 41.8131L50.0234 41.821L51.1158 36.9418ZM52.1641 37.2827L50.1258 41.8484L50.1258 41.8484L52.1641 37.2827ZM52.9908 37.8068L56.3154 34.0723L56.3154 34.0723L52.9908 37.8068ZM53.532 38.5398L48.9801 40.6088L48.9888 40.6278L48.9975 40.6467L53.532 38.5398ZM53.7322 39.5071L58.7322 39.5337L58.7323 39.5009L58.7321 39.468L53.7322 39.5071ZM53.3232 40.8963L49.2047 38.0611L49.2003 38.0675L53.3232 40.8963ZM52.1641 41.804L54.1148 46.4078L54.1274 46.4024L52.1641 41.804ZM48.5036 41.7997L46.5858 46.4173L46.5948 46.421L48.5036 41.7997ZM47.2848 40.8409L43.1502 43.6525L43.161 43.6683L43.1719 43.6841L47.2848 40.8409ZM46.8288 39.2599V34.2599H41.7144L41.8301 39.373L46.8288 39.2599ZM48.6143 39.2599L53.6028 38.9209L53.2861 34.2599H48.6143V39.2599ZM48.8658 39.9929L44.8727 43.0021L44.8972 43.0346L44.9221 43.0666L48.8658 39.9929ZM49.4666 40.4318L47.6188 45.0778L47.6504 45.0904L47.6823 45.1026L49.4666 40.4318ZM51.1371 40.4403L49.3194 35.7825L49.3096 35.7862L49.2999 35.7901L51.1371 40.4403ZM51.6783 40.0611L55.6027 43.1593L55.6027 43.1593L51.6783 40.0611ZM51.6953 39.0085L47.8876 42.2491L47.9074 42.2724L47.9275 42.2954L51.6953 39.0085ZM51.1925 38.6676L49.2229 43.2633L49.2336 43.2679L49.2443 43.2725L51.1925 38.6676ZM50.3871 38.4119L49.1693 43.2614L49.1923 43.2671L49.2153 43.2727L50.3871 38.4119ZM49.4368 38.1733L50.6546 33.3239L50.6366 33.3193L50.6185 33.315L49.4368 38.1733ZM47.6939 37.3338L44.3628 41.0626L44.3628 41.0626L47.6939 37.3338ZM47.0589 35.7955L52.0589 35.8175L52.059 35.793L52.0589 35.7686L47.0589 35.7955ZM47.4808 34.4105L43.4359 31.4714L43.4289 31.4809L43.422 31.4905L47.4808 34.4105ZM52.0618 33.4858L49.9767 38.0303L49.9868 38.0349L52.0618 33.4858ZM53.1953 34.4105L49.0673 37.2318L49.0673 37.2318L53.1953 34.4105ZM53.6129 35.7827V40.7827H58.6956L58.6123 35.7007L53.6129 35.7827ZM56.8201 35.2892C56.6581 33.6566 55.863 32.0543 54.37 30.9551L48.4411 39.0079C48.0168 38.6956 47.6196 38.2662 47.3241 37.727C47.0333 37.1962 46.9093 36.6841 46.8689 36.2761L56.8201 35.2892ZM54.37 30.9551C52.9799 29.9317 51.4657 29.696 50.353 29.696V39.696C50.1267 39.696 49.3141 39.6507 48.4411 39.0079L54.37 30.9551ZM50.353 29.696C49.6107 29.696 48.6684 29.7969 47.6896 30.1992L51.4908 39.4486C50.9268 39.6803 50.493 39.696 50.353 39.696V29.696ZM47.7442 30.1771C46.86 30.5284 45.8816 31.1441 45.1129 32.169L53.1129 38.169C52.5658 38.8985 51.9056 39.2841 51.4362 39.4706L47.7442 30.1771ZM45.076 32.219C44.3258 33.2455 43.951 34.4519 43.951 35.6719H53.951C53.951 36.5168 53.6841 37.388 53.1499 38.1191L45.076 32.219ZM43.9543 35.4902C43.9183 36.4788 44.1271 37.6132 44.78 38.684L53.318 33.4779C53.8288 34.3157 53.9723 35.1775 53.9477 35.8536L43.9543 35.4902ZM44.8265 38.7587C45.315 39.5291 45.9355 40.1154 46.5781 40.5438L52.1251 32.2233C52.512 32.4812 52.9307 32.8658 53.2715 33.4033L44.8265 38.7587ZM46.6431 40.5864C47.1205 40.8941 47.6006 41.119 48.0478 41.2858L51.5417 31.916C51.6537 31.9577 51.8383 32.0377 52.0601 32.1807L46.6431 40.5864ZM48.1181 41.3114C48.4941 41.4452 48.8696 41.5507 49.2393 41.6335L51.424 31.875C51.413 31.8726 51.4306 31.8758 51.4714 31.8903L48.1181 41.3114ZM49.1688 41.6172L49.9529 41.8047L52.2786 32.0789L51.4945 31.8914L49.1688 41.6172ZM50.0234 41.821C50.1171 41.842 50.1453 41.8571 50.1258 41.8484L54.2023 32.717C53.5465 32.4242 52.8758 32.212 52.2081 32.0625L50.0234 41.821ZM50.1258 41.8484C50.0294 41.8053 49.8588 41.7129 49.6661 41.5414L56.3154 34.0723C55.6569 33.486 54.9351 33.0441 54.2023 32.717L50.1258 41.8484ZM49.6661 41.5413C49.3835 41.2898 49.1436 40.9684 48.9801 40.6088L58.0838 36.4708C57.6646 35.5486 57.0639 34.7387 56.3154 34.0723L49.6661 41.5413ZM48.9975 40.6467C48.7795 40.1775 48.7342 39.775 48.7324 39.5462L58.7321 39.468C58.7246 38.512 58.5457 37.4645 58.0664 36.4329L48.9975 40.6467ZM48.7323 39.4805C48.7341 39.1384 48.8375 38.5945 49.2047 38.0611L57.4416 43.7315C58.3486 42.414 58.7247 40.944 58.7322 39.5337L48.7323 39.4805ZM49.2003 38.0675C49.5541 37.5518 49.9799 37.2999 50.2007 37.2056L54.1274 46.4024C55.3596 45.8763 56.5581 45.0192 57.446 43.7251L49.2003 38.0675ZM50.2133 37.2002C50.3515 37.1417 50.4439 37.1231 50.4671 37.1191C50.4888 37.1152 50.4526 37.1236 50.3445 37.1236V47.1236C51.5327 47.1236 52.8396 46.9481 54.1148 46.4077L50.2133 37.2002ZM50.3445 37.1236C50.2457 37.1236 50.2087 37.1159 50.2221 37.1182C50.2371 37.1209 50.3063 37.1346 50.4124 37.1784L46.5948 46.421C47.8517 46.9402 49.1406 47.1236 50.3445 47.1236V37.1236ZM50.4213 37.1821C50.5449 37.2335 50.7152 37.3226 50.9005 37.4684C51.0884 37.6163 51.2585 37.7963 51.3977 37.9977L43.1719 43.6841C44.0616 44.9712 45.2656 45.869 46.5859 46.4173L50.4213 37.1821ZM51.4194 38.0294C51.78 38.5596 51.8248 39.0229 51.8276 39.1468L41.8301 39.373C41.8613 40.7526 42.21 42.2699 43.1502 43.6525L51.4194 38.0294ZM46.8288 44.2599H48.6143V34.2599H46.8288V44.2599ZM43.6259 39.599C43.6985 40.6681 44.0356 41.8914 44.8727 43.0021L52.8588 36.9836C53.4004 37.7024 53.5699 38.437 53.6028 38.9209L43.6259 39.599ZM44.9221 43.0666C45.6719 44.0286 46.6265 44.6832 47.6188 45.0778L51.3145 35.7858C51.8067 35.9816 52.3607 36.3435 52.8094 36.9192L44.9221 43.0666ZM47.6823 45.1026C48.5953 45.4514 49.5001 45.5767 50.3232 45.5767V35.5767C50.5099 35.5767 50.8436 35.6054 51.251 35.761L47.6823 45.1026ZM50.3232 45.5767C51.1057 45.5767 52.0277 45.4646 52.9742 45.0906L49.2999 35.7901C49.7863 35.5979 50.1656 35.5767 50.3232 35.5767V45.5767ZM52.9548 45.0982C53.8406 44.7525 54.8177 44.1536 55.6027 43.1593L47.7539 36.9629C48.2831 36.2924 48.8994 35.9463 49.3194 35.7825L52.9548 45.0982ZM55.6027 43.1593C56.4414 42.0969 56.87 40.8142 56.87 39.5028H46.87C46.87 38.6119 47.1708 37.7013 47.7539 36.9629L55.6027 43.1593ZM56.87 39.5028C56.87 38.2364 56.4604 36.8648 55.4632 35.7217L47.9275 42.2954C47.1632 41.4193 46.87 40.3773 46.87 39.5028H56.87ZM55.503 35.7679C54.7322 34.8622 53.827 34.3531 53.1407 34.0628L49.2443 43.2725C49.0011 43.1696 48.4311 42.8878 47.8876 42.2491L55.503 35.7679ZM53.1621 34.0719C52.6098 33.8352 52.0564 33.6711 51.5589 33.5512L49.2153 43.2727C49.2457 43.28 49.2691 43.2861 49.286 43.2908C49.303 43.2955 49.3121 43.2984 49.3142 43.299C49.3163 43.2997 49.3096 43.2976 49.295 43.2922C49.2805 43.2869 49.256 43.2775 49.2229 43.2633L53.1621 34.0719ZM51.6049 33.5625L50.6546 33.3239L48.219 43.0227L49.1693 43.2614L51.6049 33.5625ZM50.6185 33.315C50.4311 33.2694 50.6716 33.2893 51.025 33.605L44.3628 41.0626C45.5685 42.1397 46.9708 42.7193 48.255 43.0316L50.6185 33.315ZM51.025 33.605C51.3565 33.9011 51.6469 34.2946 51.8374 34.7561C52.0217 35.2027 52.0599 35.5843 52.0589 35.8175L42.059 35.7734C42.0508 37.6451 42.7253 39.5998 44.3628 41.0626L51.025 33.605ZM52.0589 35.7686C52.0599 35.9597 52.0347 36.2165 51.9453 36.5099C51.8547 36.8074 51.7149 37.0869 51.5396 37.3305L43.422 31.4905C42.4667 32.8185 42.051 34.3331 42.059 35.8223L52.0589 35.7686ZM51.5258 37.3496C51.2349 37.7499 50.893 37.9657 50.6871 38.057L46.6353 28.9146C45.4294 29.449 44.3006 30.2814 43.4359 31.4714L51.5258 37.3496ZM50.6871 38.057C50.4532 38.1606 50.3141 38.1534 50.3658 38.1534V28.1534C49.1447 28.1534 47.8692 28.3678 46.6353 28.9146L50.6871 38.057ZM50.3658 38.1534C50.4481 38.1534 50.275 38.1671 49.9767 38.0303L54.1469 28.9413C52.8827 28.3613 51.5789 28.1534 50.3658 28.1534V38.1534ZM49.9868 38.0349C49.7426 37.9235 49.3697 37.6742 49.0673 37.2318L57.3233 31.5892C56.4812 30.357 55.3525 29.4912 54.1368 28.9367L49.9868 38.0349ZM49.0673 37.2318C48.9159 37.0102 48.7971 36.7628 48.7188 36.5055C48.6414 36.2514 48.6163 36.03 48.6136 35.8646L58.6123 35.7007C58.5891 34.2911 58.1937 32.8627 57.3233 31.5892L49.0673 37.2318ZM53.6129 30.7827H51.8445V40.7827H53.6129V30.7827ZM56.5501 33.2727L61.3148 31.757L60.2064 28.2727H56.5501V33.2727ZM58.6594 39.9034L53.8947 41.4192L55.0032 44.9034H58.6594V39.9034ZM58.7404 39.9034V44.9034H62.3945L63.5042 41.422L58.7404 39.9034ZM60.854 33.2727V28.2727H57.2L56.0902 31.7542L60.854 33.2727ZM62.8995 33.2727L67.6265 34.9023L69.9119 28.2727H62.8995V33.2727ZM59.891 42V47H63.4561L64.618 43.6295L59.891 42ZM57.5131 42L52.7868 43.6316L53.9497 47H57.5131V42ZM54.5004 33.2727V28.2727H47.4847L49.7741 34.9043L54.5004 33.2727ZM51.7854 34.7885L53.8947 41.4192L63.4242 38.3876L61.3148 31.757L51.7854 34.7885ZM58.6594 44.9034H58.7404V34.9034H58.6594V44.9034ZM63.5042 41.422L65.6179 34.7913L56.0902 31.7542L53.9766 38.3849L63.5042 41.422ZM60.854 38.2727H62.8995V28.2727H60.854V38.2727ZM58.1725 31.6432L55.164 40.3705L64.618 43.6295L67.6265 34.9023L58.1725 31.6432ZM59.891 37H57.5131V47H59.891V37ZM62.2394 40.3684L59.2267 31.6411L49.7741 34.9043L52.7868 43.6316L62.2394 40.3684ZM54.5004 38.2727H56.5501V28.2727H54.5004V38.2727Z" fill="black"/>
</g>
<defs>
<filter id="filter0_d_1_3" x="0.276985" y="3.15341" width="66.6225" height="46.9702" filterUnits="userSpaceOnUse" color-interpolation-filters="sRGB">
<feFlood flood-opacity="0" result="BackgroundImageFix"/>
<feColorMatrix in="SourceAlpha" type="matrix" values="0 0 0 0 0 0 0 0 0 0 0 0 0 0 0 0 0 0 127 0" result="hardAlpha"/>
<feOffset dy="4"/>
<feGaussianBlur stdDeviation="2"/>
<feComposite in2="hardAlpha" operator="out"/>
<feColorMatrix type="matrix" values="0 0 0 0 0 0 0 0 0 0 0 0 0 0 0 0 0 0 0.25 0"/>
<feBlend mode="normal" in2="BackgroundImageFix" result="effect1_dropShadow_1_3"/>
<feBlend mode="normal" in="SourceGraphic" in2="effect1_dropShadow_1_3" result="shape"/>
</filter>
</defs>
</svg>
