<?xml version="1.0" encoding="UTF-8"?>
<svg viewBox="0 0 120 117.71875" xmlns="http://www.w3.org/2000/svg">
 <g transform="translate(-.4375 -4.6562)">
  <path d="m93.15 53.384 24.017-12.085-25.751-26.705-39.278-9.413-4.6046 22.1 45.617 26.103z" fill="#5d8cc2" fill-rule="evenodd"/>
  <path d="m91.416 14.594 25.751 26.705 2.7768 36.341-18.248 35.946-31.965 8.272-39.051-2.5687-17.897-30.817-11.789-33.448 23.228-31.511 27.918-18.335z" fill="#5d8cc2" stroke="#000"/>
  <path d="m93.166 53.357-10.727 50.686-50.235 4.6321-20.944-46.259 36.277-35.162 45.629 26.103z" fill="#5183bd" fill-rule="evenodd"/>
  <path d="m52.14 5.179-27.918 18.335-23.212 31.511 10.25 7.4083 36.277-35.162 4.6033-22.093z" fill="#83a7d0" fill-rule="evenodd"/>
  <path d="m93.148 53.392-10.744 50.634 19.296 9.5739 18.244-35.96-2.7025-36.341-24.093 12.093z" fill="#4072ab" fill-rule="evenodd"/>
  <path d="m101.7 113.59-19.258-9.5431-50.235 4.6321-1.5234 10.614 39.051 2.5687 31.965-8.272z" fill="#386394" fill-rule="evenodd"/>
  <path d="m12.783 88.473 17.899 30.829 2.0761-11.736-21.498-45.15-10.266-7.3911 11.789 33.448z" fill="#628fc4" fill-rule="evenodd"/>
  <path d="m52.138 5.181-4.4082 21.169" fill="none" stroke="#aeaeae" stroke-linecap="round" stroke-linejoin="round"/>
  <path d="m46.492 28.825-33.941 32.527" fill="none" stroke="#aeaeae" stroke-linecap="round" stroke-linejoin="round"/>
  <path d="m49.674 28.825 39.598 22.981" fill="none" stroke="#aeaeae" stroke-linecap="round" stroke-linejoin="round"/>
  <path d="m115.08 42.967-18.915 9.3692" fill="none" stroke="#aeaeae" stroke-linecap="round" stroke-linejoin="round"/>
  <path d="m92.985 56.048-10.43 46.315" fill="none" stroke="#aeaeae" stroke-linecap="round" stroke-linejoin="round"/>
  <path d="m80.08 104.48-45.608 4.0659" fill="none" stroke="#aeaeae" stroke-linecap="round" stroke-linejoin="round"/>
  <path d="m11.844 64.533 19.976 41.189" fill="none" stroke="#aeaeae" stroke-linecap="round" stroke-linejoin="round"/>
  <path d="m2.6516 55.695 6.7175 5.4801" fill="none" stroke="#aeaeae" stroke-linecap="round" stroke-linejoin="round"/>
  <path d="m32.704 110.5-1.9445 7.7782" fill="none" stroke="#aeaeae" stroke-linecap="round" stroke-linejoin="round"/>
  <path d="m84.146 105.19 15.91 7.2478" fill="none" stroke="#aeaeae" stroke-linecap="round" stroke-linejoin="round"/>
  <path d="m91.416 14.594 25.751 26.705 2.7768 36.341-18.248 35.946-31.965 8.272-39.051-2.5687-17.897-30.817-11.789-33.448 23.228-31.511 27.918-18.335z" fill="none" stroke="#000"/>
 </g>
 <g transform="matrix(.92881 -.1522 .13403 1.0547 0 0)" fill="#ccc" font-family="Arial" font-size="51.148" font-weight="bold" letter-spacing="0" word-spacing="0">
  <path d="m36.977 86.564h-7.0178v-26.448c-2.5641 2.3976-5.586 4.1708-9.0658 5.3196v-6.3685c1.8315-0.59936 3.8211-1.7315 5.9689-3.3965 2.1478-1.6816 3.6213-3.6379 4.4205-5.869h5.6942v36.762"/>
  <path d="m71.192 80.046v6.5184h-24.6c0.26639-2.4642 1.0656-4.7951 2.3976-6.9929 1.332-2.2144 3.9626-5.1447 7.892-8.791 3.1634-2.947 5.1031-4.9449 5.8191-5.9939 0.96566-1.4485 1.4485-2.8804 1.4485-4.2956-1.9e-5 -1.565-0.42458-2.7638-1.2737-3.5963-0.8325-0.8491-1.9896-1.2737-3.4715-1.2737-1.4652 3.1e-5 -2.6307 0.44125-3.4964 1.3236s-1.3653 2.3476-1.4985 4.3955l-6.9929-0.69929c0.41624-3.8627 1.7232-6.6349 3.921-8.3165s4.9449-2.5224 8.2416-2.5224c3.613 3.7e-5 6.4517 0.97404 8.5163 2.922s3.0968 4.3706 3.0968 7.2676c-2.6e-5 1.6483-0.29972 3.2217-0.89908 4.7202-0.58276 1.4818-1.5152 3.0386-2.7972 4.6702-0.84915 1.0822-2.3809 2.639-4.5953 4.6702s-3.6213 3.3799-4.2207 4.0459c-0.58275 0.666-1.0573 1.3153-1.4236 1.948h13.936"/>
 </g>
 <g transform="matrix(-.14267 1.3008 -.75517 -.12413 0 0)" fill="#ccc" font-family="Arial" font-size="37.612" font-weight="bold" letter-spacing="0" word-spacing="0">
  <path d="m33.229-138.01 4.9954-0.60607c0.15916 1.2734 0.58769 2.2467 1.2856 2.9201s1.5427 1.0101 2.5344 1.0101c1.0652 0 1.959-0.40404 2.6814-1.2121 0.73461-0.80807 1.1019-1.8978 1.1019-3.269-1.4e-5 -1.2978-0.34896-2.3263-1.0468-3.0854s-1.5488-1.1386-2.5528-1.1387c-0.66117 1e-5 -1.4509 0.12857-2.3692 0.38568l0.56933-4.2057c1.3958 0.0368 2.461-0.26322 3.1956-0.89991 0.73461-0.64889 1.1019-1.506 1.1019-2.5712-1.3e-5 -0.90601-0.26937-1.6284-0.80808-2.1671s-1.255-0.80806-2.1488-0.80808c-0.88155 2e-5 -1.6345 0.30611-2.259 0.91827s-1.004 1.506-1.1387 2.6814l-4.7567-0.80808c0.33058-1.6284 0.82644-2.9262 1.4876-3.8935 0.6734-0.97946 1.6039-1.7447 2.7916-2.2957 1.1999-0.56318 2.5406-0.84479 4.022-0.84481 2.5344 2e-5 4.5669 0.8081 6.0973 2.4242 1.2611 1.3223 1.8916 2.8161 1.8916 4.4812-1.8e-5 2.363-1.2917 4.2486-3.8751 5.6566 1.5427 0.33059 2.7732 1.0713 3.6915 2.2222 0.9305 1.1509 1.3958 2.5406 1.3958 4.169-2e-5 2.363-0.8632 4.3771-2.5895 6.0422s-3.8751 2.4977-6.4463 2.4977c-2.4365 0-4.4567-0.69789-6.0606-2.0937-1.6039-1.408-2.5344-3.2446-2.7916-5.5096"/>
 </g>
 <g transform="matrix(-2.0898 .22244 -.19788 -.45746 0 0)" fill="#ccc" font-family="Arial" font-size="23.527" font-weight="bold" letter-spacing="0" word-spacing="0">
  <path d="m-9.81192-243.35746c-.83477-.35228-1.44361-.83475-1.82653-1.44743-.37526-.62032-.56289-1.29809-.56289-2.03331-1e-006-1.25596.43653-2.29367 1.30959-3.11313 .88071-.81943 2.12903-1.22916 3.74495-1.22917 1.6006,1e-005 2.84125.40974 3.72198,1.22917 .88836.81946 1.33255,1.85717 1.33256,3.11313-1.15e-005,.78117-.20296,1.47808-.60884,2.09074s-.97645,1.06836-1.71165,1.39c.93431.37527 1.64271.92284 2.1252,1.64272 .49012.7199.73519,1.55083.73521,2.49281-1.2e-005,1.55466-.49781,2.81829-1.49339,3.7909-.98794.97262-2.30518,1.45892-3.95173,1.45892-1.53168,0-2.8068-.40206-3.82536-1.20619-1.20237-.94964-1.80355-2.25156-1.80355-3.90578-1e-006-.91134.22592-1.74611.67777-2.50429 .45184-.76583 1.16407-1.35553 2.13669-1.76909m.66628-3.25099c-4.4e-006,.64332.17997,1.14494.53992,1.50488 .3676.35995.8539.53992 1.45892.53991s1.1028-.17996 1.47041-.53991c.36759-.36759.5514-.87305.5514-1.51636-8.4e-006-.605-.18381-1.08748-.5514-1.44744-.35995-.36759-.8386-.55139-1.43595-.5514-.62034,1e-005-1.1143.18381-1.4819.5514s-.55141.85393-.5514,1.45892m-.29868,7.21421c-4.2e-006,.88837.22592,1.58146.67777,2.07925 .4595.4978 1.03005.74669 1.71165.74669 .66627,0 1.21768-.23741 1.65421-.71223 .43652-.48247.65478-1.17556.65479-2.07925-8.8e-006-.78881-.2221-1.42063-.66628-1.89545-.44419-.48247-1.00709-.72371-1.68867-.72372-.78882,1e-005-1.37851.27188-1.76909.81562-.38292.54375-.57438,1.13345-.57438,1.76909"/>
 </g>
 <g transform="matrix(-.87922 -1.7042 .45579 -.25392 0 0)" fill="#ccc" font-family="Arial" font-size="19.76" font-weight="bold" letter-spacing="0" word-spacing="0">
  <path d="m-43.266-35.438v-2.8463h-5.7891v-2.3735l6.1365-8.9828h2.277v8.9731h1.756v2.3832h-1.756v2.8463h-2.6244m0-5.2295v-4.8339l-3.2516 4.8339h3.2516"/>
 </g>
 <g transform="matrix(1.0395 .66915 -.72752 .49366 0 0)" fill="#ccc" font-family="Arial" font-size="30.246" font-weight="bold" letter-spacing="0" word-spacing="0">
  <path d="m51.524-18.556h-4.15v-15.64c-1.5163 1.4178-3.3033 2.4664-5.361 3.1457v-3.766c1.083-0.35443 2.2596-1.024 3.5297-2.0086 1.2701-0.99441 2.1415-2.1513 2.6141-3.4706h3.3673v21.74"/>
  <path d="m66.706-18.556h-4.15v-15.64c-1.5163 1.4178-3.3033 2.4664-5.361 3.1457v-3.766c1.083-0.35443 2.2596-1.024 3.5297-2.0086 1.2701-0.99441 2.1415-2.1513 2.6141-3.4706h3.3673v21.74"/>
 </g>
 <g transform="matrix(.36931 .5908 -.88158 1.2975 0 0)" fill="#ccc" font-family="Arial" font-size="22.559" font-weight="bold" letter-spacing="0" word-spacing="0">
  <path d="m54.869-8.5621v-2.875h10.586v2.2471c-0.8739 0.85921-1.7625 2.0929-2.6657 3.7012s-1.5936 3.3193-2.0709 5.1332c-0.46999 1.8065-0.70132 3.4221-0.69397 4.8468h-2.9852c0.0514-2.2324 0.51038-4.509 1.3769-6.8295s2.0378-4.3951 3.4919-6.2237h-7.0388"/>
 </g>
</svg>
