<?xml version="1.0" encoding="UTF-8"?>
<svg viewBox="0 0 256 220.57001" xmlns="http://www.w3.org/2000/svg" xmlns:xlink="http://www.w3.org/1999/xlink">
 <defs>
  <filter id="bh">
   <feGaussianBlur stdDeviation="2.15953"/>
  </filter>
  <linearGradient id="bc" x2="0" y1="1160" y2="968.85" gradientUnits="userSpaceOnUse">
   <stop offset="0"/>
   <stop stop-opacity="0" offset="1"/>
  </linearGradient>
  <linearGradient id="b">
   <stop stop-color="#f5f5f2" offset="0"/>
   <stop stop-color="#f6f6f4" offset=".10354"/>
   <stop stop-color="#f6f6f4" offset=".88421"/>
   <stop stop-color="#fcfbf7" offset=".91561"/>
   <stop stop-color="#d7d7cf" offset="1"/>
  </linearGradient>
  <linearGradient id="bg" x1="221.68" x2="185.07" y1="857.57" y2="885.28" gradientUnits="userSpaceOnUse">
   <stop stop-color="#e3e3d9" offset="0"/>
   <stop stop-color="#fff" offset=".5"/>
   <stop stop-color="#f9f9f4" offset="1"/>
  </linearGradient>
  <linearGradient id="bf" x2="0" y1="312.36" y2="342.36" gradientTransform="matrix(.47772 .79049 -.55334 .33441 282.54 616.16)" gradientUnits="userSpaceOnUse">
   <stop stop-color="#e5e5e0" offset="0"/>
   <stop stop-color="#fff" stop-opacity="0" offset="1"/>
  </linearGradient>
  <linearGradient id="be" x2="0" y1="832.19" y2="1016.5" gradientUnits="userSpaceOnUse" xlink:href="#b"/>
  <linearGradient id="bd" x1="505.23" x2="163.63" y1="619.42" y2="863.72" gradientUnits="userSpaceOnUse" xlink:href="#b"/>
  <pattern id="ar" width="87.62443" height="115.00439" patternTransform="translate(6.404 223.37)" patternUnits="userSpaceOnUse">
   <path d="m2.096 1.9889h77.355" stroke="#716c61" stroke-linecap="round" stroke-width="4"/>
   <path d="m2.096 11.572h75.965" stroke="#716c61" stroke-linecap="round" stroke-width="4"/>
   <path d="m2.096 21.156h78.596" stroke="#716c61" stroke-linecap="round" stroke-width="4"/>
   <path d="m2.096 30.739h31" stroke="#716c61" stroke-linecap="round" stroke-width="4"/>
   <path d="m2.096 40.322h81.673" stroke="#716c61" stroke-linecap="round" stroke-width="4"/>
   <path d="m2.096 49.906h83.373" stroke="#716c61" stroke-linecap="round" stroke-width="4"/>
   <path d="m2.096 59.489h78.621" stroke="#716c61" stroke-linecap="round" stroke-width="4"/>
   <path d="m2.096 69.073h75.196" stroke="#716c61" stroke-linecap="round" stroke-width="4"/>
   <path d="m2.096 78.656h83.5" stroke="#716c61" stroke-linecap="round" stroke-width="4"/>
   <path d="m2.096 88.239h80.426" stroke="#716c61" stroke-linecap="round" stroke-width="4"/>
   <path d="m2.096 97.823h44.086" stroke="#716c61" stroke-linecap="round" stroke-width="4"/>
   <path d="m2.096 107.41h68.278" stroke="#716c61" stroke-linecap="round" stroke-width="4"/>
  </pattern>
  <pattern id="as" xlink:href="#l" patternTransform="matrix(.63376 0 0 .49797 -151.47 667.35)"/>
  <pattern id="at" xlink:href="#m" patternTransform="matrix(.63376 0 0 .49797 -161.18 734.74)"/>
  <pattern id="au" xlink:href="#n" patternTransform="matrix(.63376 0 0 .49797 -146.41 692.26)"/>
  <pattern id="av" xlink:href="#o" patternTransform="matrix(.63376 0 0 .49797 -148.25 739.82)"/>
  <pattern id="aw" xlink:href="#p" patternTransform="matrix(.63376 0 0 .49797 -154.26 696.87)"/>
  <pattern id="ax" xlink:href="#q" patternTransform="matrix(.63376 0 0 .49797 -161.18 734.74)"/>
  <pattern id="ay" xlink:href="#r" patternTransform="matrix(.63376 0 0 .49797 -126.22 693.64)"/>
  <pattern id="az" xlink:href="#s" patternTransform="matrix(.63376 0 0 .49797 -146.41 692.26)"/>
  <pattern id="ba" xlink:href="#t" patternTransform="matrix(.63376 0 0 .49797 -161.18 734.74)"/>
  <pattern id="bb" xlink:href="#u" patternTransform="matrix(.63376 0 0 .49797 236.73 844.6)"/>
  <pattern id="l" xlink:href="#d" patternTransform="matrix(.68616 0 0 .53915 1221.2 771.89)"/>
  <pattern id="d" xlink:href="#i" patternTransform="matrix(.68616 0 0 .53915 1221.2 771.89)"/>
  <pattern id="i" xlink:href="#y" patternTransform="matrix(.68616 0 0 .53915 -8.4553 272.06)"/>
  <pattern id="y" xlink:href="#ag" patternTransform="matrix(.68616 0 0 .53915 -8.4553 272.06)"/>
  <pattern id="ag" xlink:href="#ao" patternTransform="matrix(.68616 0 0 .53915 171.54 226.56)"/>
  <pattern id="ao" xlink:href="#a" patternTransform="matrix(.68616 0 0 .53915 6.5447 226.56)"/>
  <pattern id="a" xlink:href="#ar" patternTransform="matrix(.54351 0 0 .45219 6.404 226.56)"/>
  <pattern id="m" xlink:href="#h" patternTransform="matrix(.68616 0 0 .53915 1209.9 863.06)"/>
  <pattern id="h" xlink:href="#w" patternTransform="matrix(.68616 0 0 .53915 1209.9 863.06)"/>
  <pattern id="w" xlink:href="#ae" patternTransform="matrix(.68616 0 0 .53915 -8.4553 272.06)"/>
  <pattern id="ae" xlink:href="#an" patternTransform="matrix(.68616 0 0 .53915 171.54 226.56)"/>
  <pattern id="an" xlink:href="#a" patternTransform="matrix(.68616 0 0 .53915 6.5447 226.56)"/>
  <pattern id="n" xlink:href="#aq" patternTransform="matrix(.68616 0 0 .53915 1225.9 817.06)"/>
  <pattern id="aq" xlink:href="#a" patternTransform="matrix(.68616 0 0 .53915 1225.9 817.06)"/>
  <pattern id="o" xlink:href="#aa" patternTransform="matrix(.68616 0 0 .53915 1223.9 868.56)"/>
  <pattern id="aa" xlink:href="#ai" patternTransform="matrix(.68616 0 0 .53915 1223.9 868.56)"/>
  <pattern id="ai" xlink:href="#a" patternTransform="matrix(.68616 0 0 .53915 6.5447 226.56)"/>
  <pattern id="p" xlink:href="#ab" patternTransform="matrix(.68616 0 0 .53915 1217.4 822.06)"/>
  <pattern id="ab" xlink:href="#aj" patternTransform="matrix(.68616 0 0 .53915 1217.4 822.06)"/>
  <pattern id="aj" xlink:href="#a" patternTransform="matrix(.68616 0 0 .53915 6.5447 226.56)"/>
  <pattern id="q" xlink:href="#z" patternTransform="matrix(.68616 0 0 .53915 1209.9 863.06)"/>
  <pattern id="z" xlink:href="#ac" patternTransform="matrix(.68616 0 0 .53915 1209.9 863.06)"/>
  <pattern id="ac" xlink:href="#ap" patternTransform="matrix(.68616 0 0 .53915 171.54 226.56)"/>
  <pattern id="ap" xlink:href="#a" patternTransform="matrix(.68616 0 0 .53915 6.5447 226.56)"/>
  <pattern id="r" xlink:href="#k" patternTransform="matrix(.68616 0 0 .53915 1247.8 818.56)"/>
  <pattern id="k" xlink:href="#ah" patternTransform="matrix(.68616 0 0 .53915 1247.8 818.56)"/>
  <pattern id="ah" xlink:href="#a" patternTransform="matrix(.68616 0 0 .53915 7.5447 226.06)"/>
  <pattern id="s" xlink:href="#g" patternTransform="matrix(.68616 0 0 .53915 1225.9 817.06)"/>
  <pattern id="g" xlink:href="#ak" patternTransform="matrix(.68616 0 0 .53915 1225.9 817.06)"/>
  <pattern id="ak" xlink:href="#a" patternTransform="matrix(.68616 0 0 .53915 7.5447 226.06)"/>
  <pattern id="t" xlink:href="#f" patternTransform="matrix(.68616 0 0 .53915 1209.9 863.06)"/>
  <pattern id="f" xlink:href="#v" patternTransform="matrix(.68616 0 0 .53915 1209.9 863.06)"/>
  <pattern id="v" xlink:href="#ad" patternTransform="matrix(.68616 0 0 .53915 -8.4553 272.06)"/>
  <pattern id="ad" xlink:href="#al" patternTransform="matrix(.68616 0 0 .53915 171.54 226.56)"/>
  <pattern id="al" xlink:href="#a" patternTransform="matrix(.68616 0 0 .53915 6.5447 226.56)"/>
  <pattern id="u" xlink:href="#e" patternTransform="matrix(.68616 0 0 .53915 1640.7 982)"/>
  <pattern id="e" xlink:href="#j" patternTransform="matrix(.68616 0 0 .53915 1640.7 982)"/>
  <pattern id="j" xlink:href="#x" patternTransform="matrix(.68616 0 0 .53915 -8.4553 272.06)"/>
  <pattern id="x" xlink:href="#af" patternTransform="matrix(.68616 0 0 .53915 -8.4553 272.06)"/>
  <pattern id="af" xlink:href="#am" patternTransform="matrix(.68616 0 0 .53915 171.54 226.56)"/>
  <pattern id="am" xlink:href="#a" patternTransform="matrix(.68616 0 0 .53915 6.5447 226.56)"/>
  <radialGradient id="c" cx="348" cy="471.36" r="22.5" gradientTransform="matrix(2.0977 .75804 -.34942 2.0529 -369.29 -349.55)" gradientUnits="userSpaceOnUse">
   <stop stop-color="#dcdcd5" offset="0"/>
   <stop stop-color="#fff" stop-opacity="0" offset="1"/>
  </radialGradient>
 </defs>
 <g transform="translate(-1.0353e-5 -814.08)">
  <path transform="matrix(.92363 0 0 .92363 -1278.7 -62.406)" d="m1406.9 969.07v198.59h232.16l-0.031-68.781c-0.1297-10.335-1.3572-20.905-3.5312-31.375 0.1127-30.961 0.5216-62.061 1.0625-94.937-18.374-0.91084-40.322-1.1954-61.969-1.1562-1.8315-0.8984-3.6659-1.6724-5.5312-2.3438z" fill="url(#bc)" filter="url(#bh)" opacity=".75"/>
  <path d="m232.9 835.88c-1.0015 60.873-1.5224 115.21-0.30332 174.97l-126.26-18.94-20.903-155.34s91.589-3.4557 147.46-0.68593z" fill="url(#bd)"/>
  <path transform="rotate(.75328)" d="m192.67 842.36h42.487v71.173h-42.487z" fill="url(#as)" opacity=".75"/>
  <path d="m20.787 832.65v183.43h214.43v-63.095c-3.7372-61.731-38.931-103.51-64.654-120.33z" fill="url(#be)"/>
  <path d="m154.74 832.65 78.566 130 1.905-1.1545v-8.5146c-0.72699-12.009-2.6484-23.25-5.4551-33.712l-46.355-76.69c-4.4136-3.9267-8.7459-7.2493-12.844-9.929h-15.817z" fill="url(#bf)"/>
  <path d="m173.71 834.81c-12.759 4.3479-22.356 15.046-24.909 30.047-4.342 25.51 13.303 53.82 39.37 63.24 16.156 5.8382 31.743 3.037 42.314-6.0036-10.641-42.655-36.099-72.554-56.774-87.283z" fill="url(#c)"/>
  <path d="m183.4 886.84h29.094" fill="none" stroke="#716c61" stroke-linecap="round" stroke-width="1.3854"/>
  <path d="m182.96 909.75h42.487v71.173h-42.487z" fill="url(#at)"/>
  <path d="m175.5 853.22h15.281v24.124h-15.281z" opacity=".35"/>
  <path d="m30.427 880.49h170.41v3.2327h-170.41z" fill="#716c61"/>
  <path d="m31.14902,876.79913v-1.49728c.87793-.10824 1.5033-.27661 1.87612-.50511s.55922-.42694.55923-.59531v-17.28194c-.38485-.36077-.78473-.66143-1.19963-.90198s-.82682-.39084-1.23571-.45099v-1.49729h5.44796c.18039,2e-005 .32771.0151.44197.0451s.2315.0932.35177.18942 .24954.23754.38785.42393l.55021.74864 10.76964,14.95483v-13.74618c-1.9e-005-.0721-.0361-.15933-.10824-.26157s-.20146-.20443-.38785-.30667-.43598-.20142-.74864-.29766-.70957-.18037-1.19061-.25255v-1.49729h7.75703v1.49729c-.86592.12028-1.48829.29467-1.8671.52315s-.56827.42695-.56825.5953v20.65535c-.66147-.0481-1.25979-.14131-1.79494-.27961s-1.01024-.30367-1.42513-.49609-.77271-.4089-1.07336-.64943-.54722-.49308-.73962-.75766l-10.48101-14.50384v13.54774c-6e-006,.0722.03908.15935.11726.26157s.21346.20446.40589.30668 .44196.20144.74864.29765 .69452.17439 1.16355.23452v1.49728z" fill="#716c61"/>
  <path d="m74.11936,870.9543c-.04812.51714-.10224,1.07938-.16236,1.6867s-.12629,1.19062-.19844,1.74985-.14133,1.05531-.20746,1.48826-.12329.73963-.17138.92002h-17.55253v-1.49728c.81779-.16837 1.42813-.35177 1.83102-.55021s.60432-.38184.60433-.55021v-17.51646c-3e-006-.14429-.18942-.32469-.56825-.54118s-1.0012-.40888-1.8671-.57727v-1.49729h16.34388l.7757.63139c-.02407.31271-.06015.7216-.10824,1.22669s-.10826,1.02226-.1804,1.55141-.14734,1.02827-.2255,1.49728-.15335.81782-.2255,1.0463h-1.53337c-.06015-1.11844-.21048-1.99937-.45099-2.6428s-.5833-.9651-1.02826-.96512h-5.88091v7.12564h7.12564l.64943.68551c-.09623.16838-.21348.36682-.35177.59531s-.28264.46002-.43295.69452-.30068.44799-.45099.64041-.29165.33675-.42393.43295c-.18041-.18039-.37584-.33072-.58629-.45099s-.451-.22248-.72159-.30668-.58931-.1443-.9561-.18039-.80277-.0541-1.30787-.0541h-2.54358v7.70291c-8e-006,.1804.04208.33975.12628.47805s.25856.25857.52315.36079 .63739.1804 1.11846.23452 1.11844.0812 1.9122.0812h1.60553c.5532,1e-005 1.02524-.0752 1.41611-.22549s.7366-.38785 1.03728-.71256 .57424-.73962.8208-1.24474 .49607-1.11243.74864-1.822z" fill="#716c61"/>
  <path d="m106.30201,855.56652c-.52919.10826-.96815.21048-1.31689.30667s-.6254.18944-.82982.27962-.3518.17741-.44197.26157-.14134.1744-.15334.27059l-4.13107,19.04983c-.06016.25255-.19846.47203-.41491.65844s-.46304.34275-.73962.46903-.55624.2285-.83884.30668-.51415.13529-.69452.17137l-6.2417-15.94701-5.17737,14.34149c-.08419.25255-.23753.46903-.46001.64942s-.47505.33374-.75766.46001-.57427.2285-.87492.30668-.57126.14131-.81178.18941l-4.6903-20.51103c-.06013-.30064-.27661-.54718-.64943-.73962s-.98617-.36679-1.84004-.52315v-1.49729h9.18216v1.49729c-.5893.0602-1.0433.13532-1.36199.22549s-.55022.18944-.69452.29766-.2225.22551-.23452.35177-.006.25558.01804.38785l2.92242,12.21281 5.06913-14.97287h2.07456l5.93503,14.97287 2.74202-12.35713c.024-.14429-.0301-.27057-.16235-.37883s-.32474-.20443-.57727-.28863-.55324-.16234-.90198-.23452l-1.1365-.21647v-1.49729h8.18998z" fill="#716c61"/>
  <path d="m124.21534,869.9982c-1e-005,.5412-.0842,1.09441-.25255,1.65965s-.41793,1.12146-.74864,1.66866-.75167,1.06434-1.26278,1.55141-1.11245.911-1.80396,1.27179-1.47024.64942-2.33613.8659-1.82802.32471-2.88633.32471c-.44499,0-.96212-.0421-1.55141-.12628s-1.19062-.20144-1.80396-.35177-1.21166-.33373-1.79494-.55021-1.08538-.46301-1.50631-.73962c-.0601-.024-.10824-.14732-.14431-.36981s-.0601-.5021-.0722-.83884-.018-.71557-.018-1.1365 .018-.85086.0541-1.28983 .0842-.8689.14431-1.28983 .13229-.79975.21648-1.1365l1.46121.0902c.2766.70957.61033,1.37102 1.0012,1.98436s.82981,1.14552 1.31689,1.5965 1.01321.80577 1.57846,1.06434 1.15453.38785 1.76788.38785c.54118,0 1.05531-.0661 1.54239-.19843s.917-.33373 1.28983-.60433 .66745-.61334.88394-1.02826 .3247-.91099.32472-1.48827c-2e-005-.7336-.16237-1.36799-.48707-1.90317s-.75467-1.01021-1.28984-1.42513-1.14552-.79073-1.83102-1.12748-1.38605-.67347-2.10161-1.01022-1.41611-.6915-2.10161-1.06433-1.29585-.80275-1.83102-1.28984-.96513-1.04928-1.28984-1.6867-.48707-1.39504-.48706-2.27299c-1e-005-.3728.0752-.7817.22549-1.22669s.37883-.88994.68551-1.33493 .69452-.8749 1.16355-1.28983 1.02224-.7817 1.65964-1.10042 1.36499-.57424 2.1828-.76668 1.72578-.28861 2.72398-.28864c.68549,3e-005 1.35295.0421 2.00239.12628s1.25374.19846 1.81298.34275 1.0523.31873 1.47925.52315 .74863.42696.96512.66747c.0601.0481.0751.16538.0451.35177s-.0872.40591-.17138.65844-.18943.52618-.31569.82081-.25859.57728-.39687.84786-.27362.51114-.40589.72158-.24656.35781-.34276.44197l-1.37101-.10823c-.24054-.61333-.52917-1.12746-.8659-1.54239s-.69453-.74862-1.07335-1.0012-.76369-.42992-1.15454-.53217-.75467-.15331-1.09139-.15333c-.57728,2e-005-1.07036.0722-1.47925.21647s-.74565.33977-1.01022.58629-.45701.52918-.57727.84786-.1804.64644-.18039.98316c-1e-005,.56526.16535,1.07037.49609,1.51532 .33071.445.76667.8539 1.30787,1.2267s1.15452.73362 1.84004,1.08237l2.11063,1.0463c.72157.36081 1.42512.75166 2.11063,1.17258s1.29884.89898 1.84004,1.43414 .97713,1.14553 1.30788,1.83102 .49607,1.47325.49608,2.36319z" fill="#716c61"/>
  <path d="m30.557 910.05h42.487v104.83h-42.487z" fill="url(#au)"/>
  <path d="m81.357 967.55h42.487v47.797h-42.487z" fill="url(#av)"/>
  <path d="m132.16 967.55h42.487v47.335h-42.487z" fill="url(#aw)"/>
  <path d="m182.96 999.88h42.487v15.006h-42.487z" fill="url(#ax)"/>
  <path d="m82.481 960.75h62.698" fill="none" stroke="#716c61" stroke-linecap="round" stroke-width="2.2472"/>
  <path d="m81.241 896.2h93.517v61.421h-93.517z" fill="#a3c093"/>
  <path d="m81.241 896.2h93.517v40.409s-19.158 3.7812-24.952 2.0782-23.401 13.409-31.431 10.733-9.6502-11.317-18.676-11.887-18.458 8.3126-18.458 8.3126z" fill="#bedaae"/>
  <path d="m81.241 896.2h93.517v33.338s-13.328-10.269-21.175-10.286c-10.808-0.0231-18.512 12.618-29.226 14.042-10.042 1.3343-19.752-5.304-29.88-5.5514-4.4513-0.10871-13.237 1.796-13.237 1.796z" fill="#b3b3b3"/>
  <path d="m81.241 896.2h93.517v24.102s-0.98865-8.935-4.4572-10.47c-5.5539-2.4579-11.57 3.7316-17.207 5.9911-4.7572 1.9067-8.8819 5.9893-13.993 6.3725-4.7575 0.35671-9.2179-5.3692-13.764-3.9234-3.1492 1.0015-3.0999 6.617-6.2131 7.7255-5.757 2.0498-12.102-1.9792-17.932-3.8103-5.4733-1.7192-10.157-7.3391-15.857-6.6908-1.6727 0.19027-4.0934 2.9582-4.0934 2.9582z" fill="#f2f2f2"/>
  <path d="m81.241 896.2h93.517v20.407s-1.3996-7.5647-4.4572-8.6227c-5.9563-2.0611-11.331 5.5585-17.207 7.8384-4.5701 1.7732-9.095 4.7316-13.993 4.5252-4.9706-0.20939-8.9418-6.993-13.764-5.7706-3.2033 0.81196-3.2282 6.3074-6.2131 7.7255-5.3993 2.5651-12.141 1.3642-17.932-0.11583-5.8163-1.4864-15.857-8.5381-15.857-8.5381l-4.0934 1.1109z" fill="#dae5eb"/>
  <path d="m32.737 886.84h29.094" fill="none" stroke="#716c61" stroke-linecap="round" stroke-width="1.3854"/>
  <path d="m32.737 890.08h15.009" fill="none" stroke="#716c61" stroke-linecap="round" stroke-width="1.3854"/>
  <path d="m168.2 960.75h5.4334" fill="none" stroke="#716c61" stroke-linecap="round" stroke-width="2.2472"/>
  <path d="m129.26 858.79h21.705v19.396h-21.705z" fill="url(#ay)"/>
  <path d="m43.604 896.2h29.441v14.085h-29.441z" fill="url(#az)"/>
  <path d="m41.6459,902.72442c-1.3e-005,.86033-.08777,1.62946-.26326,2.30739s-.41641,1.27672-.72267,1.79636-.66418.96012-1.07368,1.32145-.85001.65729-1.32146.88786-.96013.39919-1.46599.50587-1.00315.16002-1.4918.16002h-6.18401v-.85688c.46802-.0964.81731-.20132 1.04787-.31488s.34585-.21852.34585-.31488v-10.35486l-1.39373.19615-.14453-1.05303c.35101-.0826.77085-.16173 1.25951-.23745s.99969-.1428 1.5331-.20132 1.07024-.10322 1.61053-.13421 1.04099-.0464 1.50213-.0465c1.08744,2e-005 2.051.14283 2.89069.42845s1.54685.70031 2.12156,1.24402 1.01001,1.20791 1.30597,1.99251 .44391,1.67592.44393,2.67389zm-7.53644-5.16194-.34585.005c-.12045.003-.23918.009-.35617.0155v10.15871c-5e-006,.11701.0069.22369.02065.32004s.0671.17895.16002.24777 .23916.12217.43877.16002 .48178.0568.84656.0568c.37165,0 .77256-.0998 1.20273-.2994s.82762-.51619 1.19241-.94979 .66932-.99109.91366-1.67247 .36649-1.50729.3665-2.47774c-1e-005-1.83764-.37511-3.22448-1.1253-4.16052s-1.85487-1.40404-3.31397-1.40405z" fill="#716c61"/>
  <path d="m192.92 985.67h32.527v14.843h-32.527z" fill="url(#ba)"/>
  <path d="m181.43793,999.44879v-.85688c.46802-.0964.81731-.20132 1.04788-.31488s.34585-.21852.34585-.31488v-10.02449c0-.0826-.1084-.18582-.3252-.30972s-.57298-.234-1.06853-.33036v-.85689h9.45669l.42327.36134c-.007.17896-.0241.41297-.0516.70202s-.0602.58504-.0981.88786-.0792.58847-.12389.85688-.0878.46803-.12905.59879h-.89818c-.0206-.64007-.10152-1.14422-.24261-1.51245s-.34241-.55232-.60394-.55233h-3.44818v4.07793h3.75789l.40263.39231c-.0619.1239-.13421.25294-.2168.38715s-.16863.26326-.25809.38714-.17724.23746-.26326.34069-.16347.1824-.23229.23745c-.10325-.10323-.21337-.18926-.33037-.2581s-.25294-.12732-.40779-.1755-.33725-.0826-.54717-.10324-.45941-.031-.74848-.031h-1.15627v4.92449c-1e-005,.0413.0258.086.0774.13421s.14108.0981.26842.1497 .30111.10668.52135.16518 .49899.11873.83624.18067v.85688z" fill="#716c61"/>
  <path d="m195.86 896.2h26.812v14.026h-26.812z" fill="url(#bb)"/>
  <path d="m170.56 832.65c35.512 12.781 64.969 71.414 64.654 122.4-6.9656-46.806-20.264-72.81-57.397-69.272 5.344-22.541 3.4768-43.117-7.257-53.123z" fill="url(#bg)"/>
  <path d="m192.87868,896.669c.0344.0275.0361.0981.005.21164s-.0809.25295-.1497.41812-.15143.34242-.24777.53168-.19444.36995-.29423.542-.19445.32521-.28391.45941-.16519.22886-.22712.28391l-.75365-.16518c-.22713-.37165-.45426-.68481-.68137-.93948s-.46115-.4594-.70203-.61427-.48867-.26669-.74332-.33552-.52652-.10323-.81559-.10324c-.17207,1e-005-.36822.0344-.58846.10324s-.44737.18412-.68137.34585-.46114.37511-.68138.64008-.41812.59879-.59362,1.00141-.31661.87582-.42328,1.41954-.16003,1.17349-.16002,1.88927c-1e-005,.90851.0998,1.68624.29939,2.3332s.46801,1.17693.80526,1.58988 .72267.71751 1.15628.91366 .88785.29423 1.36275.29423c.33036,0 .62459-.0275.88269-.0826s.49382-.13077.70719-.22712v-3.04555c-1e-005-.0757-.009-.14969-.0258-.22196s-.0723-.14281-.16518-.21164-.2409-.13765-.44393-.20648-.49383-.13765-.87237-.20648v-.85688h5.27551v.85688c-.19961.0482-.36135.10324-.48522.16518s-.2237.13078-.2994.20648-.12734.15314-.15486.23229-.0413.16002-.0413.24261v3.00425c-.50932.41984-.9911.76569-1.44535,1.03755s-.8827.48694-1.28532.64524-.7829.26843-1.14079.33037-.69171.0929-1.00142.0929c-.50931,0-1.01346-.0568-1.51245-.17034s-.97389-.28563-1.42469-.5162-.86721-.52135-1.24919-.87236-.71235-.76053-.9911-1.22855-.49726-.99625-.65556-1.58471-.23745-1.23714-.23745-1.94606c0-1.1425.18411-2.16628.55233-3.07135s.87752-1.67246 1.52793-2.30223 1.42125-1.1098 2.31255-1.44018 1.86002-.49553 2.90618-.49555c.22711,2e-005 .50414.0241.83107.0723s.66244.11702 1.00658.20648 .67964.1996 1.00658.33036 .60049.27876.82075.44393z" fill="#716c61"/>
  <path d="m83.59378,885.96069c-.16339,0-.30775.0259-.46181.0573-.11758.024-.23608.0748-.34636.11545-.06188.0231-.11388.0582-.17318.0868-.08959.0425-.17724.0628-.25972.11546l-.11545.0868c-.04341.0314-.10326.0526-.14436.0868-.05265.0443-.09606.096-.14427.14427s-.10141.0938-.14436.14436c-.05357.0637-.09763.13282-.14427.202-.06743.0989-.12127.20828-.17318.31754-.02679.0573-.06373.11379-.08682.17318l-.02863.0573c-.0351.0992-.06465.21271-.08682.31745v.0286c-.02771.14519-.05727.27958-.05727.433 0,.60931.25668,1.16792.63499,1.58744l.05727.0573c.03787.0397.07481.0785.11545.11545 .07204.0656.15166.11731.23091.17318 .07389.0517.15166.10133.23091.14437l.14427.0868c.09347.0425.18916.0563.28863.0868l.17318.0573c.16293.0351.31708.0573.49072.0573s.32974-.0212.49063-.0573c.30812-.0628.58521-.17622.83708-.34636 .02032-.0138.03787-.0425.05727-.0573 .59158-.43032.98135-1.1175.98135-1.90498 0-.29603-.04526-.57588-.14436-.83709-.02217-.0591-.05911-.11628-.08682-.17318-.17078-.35929-.4317-.66298-.75045-.89472l-.11545-.0868c-.08036-.0517-.17281-.0739-.25972-.11545-.16782-.0794-.33223-.16413-.51954-.20209-.15415-.0314-.32733-.0573-.49072-.0573zm23.9566,0c-.16339,0-.33657.0259-.49064.0573-1.07852.22065-1.87616,1.16525-1.87616,2.30907 0,1.30711 1.05968,2.36679 2.3668,2.36679 .19839,0 .39374-.036.57726-.0868s.35809-.11656.51954-.20209c.74971-.39716 1.26999-1.1707 1.26999-2.07816 0-.901-.50014-1.67832-1.24108-2.07816-.009-.009-.0212,0-.0286,0-.12395-.0656-.26877-.10086-.40409-.14427-.0388-.012-.0757-.0471-.11545-.0573-.18851-.0489-.37305-.0868-.57727-.0868zm24.99567,0c-.16339,0-.30775.0259-.46181.0573-.11758.024-.23608.0748-.34636.11545-.0619.0231-.11389.0582-.17318.0868-.0896.0425-.17725.0628-.25973.11546l-.11545.0868c-.0434.0314-.10326.0526-.14436.0868-.0526.0443-.0961.096-.14427.14427s-.10142.0938-.14437.14436c-.0536.0637-.0976.13282-.14427.202-.0674.0989-.12127.20828-.17318.31754-.0268.0573-.0637.11379-.0868.17318l-.0286.0573c-.0351.0992-.0656.21271-.0868.31745v.0286c-.0277.14519-.0573.27958-.0573.433 0,.60931.25668,1.16792.635,1.58744l.0573.0573c.0379.0397.0748.0785.11545.11545 .072.0656.15166.11731.23091.17318 .0739.0517.15166.10133.23091.14437l.14427.0868c.0935.0425.18916.0563.28863.0868l.17318.0573c.16293.0351.31708.0573.49073.0573s.32973-.0212.49063-.0573c.30812-.0628.58521-.17622.83708-.34636 .0203-.0138.0379-.0425.0573-.0573 .59158-.43032.98135-1.1175.98135-1.90498 0-.29603-.0453-.57588-.14436-.83709-.0222-.0591-.0591-.11628-.0868-.17318-.17078-.35929-.43171-.66298-.75045-.89472l-.11545-.0868c-.0804-.0517-.17281-.0739-.25973-.11545-.16782-.0794-.33223-.16413-.51954-.20209-.15415-.0314-.32733-.0573-.49072-.0573zm23.9566,0c-1.30712,0-2.3668,1.05959-2.3668,2.3668s1.05968,2.36679 2.3668,2.36679c.19839,0 .39374-.036.57726-.0868 1.02089-.26268 1.78953-1.17734 1.78953-2.28025 0-.901-.50014-1.67832-1.24108-2.07816-.13087-.0711-.28918-.0981-.43299-.14427-.0388-.012-.0757-.0471-.11546-.0573-.18842-.0489-.37305-.0868-.57726-.0868z" fill="none" stroke="#716c61" stroke-width=".46181"/>
  <path d="m89.323 888h10.622" fill="none" stroke="#716c61" stroke-linecap="round" stroke-width="1.3854"/>
  <path d="m109.91 888.33a2.3668 2.3668 0 0 1 -4.7336 0 2.3668 2.3668 0 1 1 4.7336 0z" fill="#330080" opacity=".25"/>
  <path d="m107.54 885.96c-1.3071 0-2.3668 1.0597-2.3668 2.3668s1.0597 2.3668 2.3668 2.3668c0.39679 0 0.76837-0.11601 1.0968-0.28863-1.1218-0.0296-2.0204-0.94922-2.0204-2.0782 0-1.1382 0.91467-2.0628 2.0493-2.0782-0.33528-0.18214-0.71711-0.28863-1.1256-0.28863z" fill="#d4aa00" opacity=".25"/>
  <path d="m109.7232,888.12007-.66257-.0633-.28959.59929-.14456-.6497-.65944-.0902 .57323-.33825-.11797-.65504 .49883.44064 .58654-.31461-.26494.61058z" fill="#fae17a" opacity=".25"/>
  <path d="m108.04396,889.57436-.22451-.26095-.32272.11984 .17881-.29417-.2137-.26988 .33502.0792 .19064-.28664 .0282.34308 .33152.0927-.31756.13289z" fill="#fae17a" opacity=".25"/>
  <path d="m113.34 888h7.7354" fill="none" stroke="#716c61" stroke-linecap="round" stroke-width="1.3854"/>
  <path d="m123.04 888h2.0782" fill="none" stroke="#716c61" stroke-linecap="round" stroke-width="1.3854"/>
  <path d="m85.975 888.33a2.3668 2.3668 0 0 1 -4.7336 0 2.3668 2.3668 0 1 1 4.7336 0z" fill="#5f8dd3" opacity=".25"/>
  <path d="m83.608 885.98c-1.1532 0-2.0988 0.81307-2.3091 1.905h4.6181c-0.21022-1.0919-1.1558-1.905-2.3091-1.905z" fill="#fc0" opacity=".25"/>
  <path d="m85.167 888.1a1.0391 1.0391 0 0 1 -2.0782 0 1.0391 1.0391 0 1 1 2.0782 0z" fill="#fff6d5" opacity=".25"/>
  <path d="m81.86198,889.91493c.43318.48038 1.034.77935 1.7318.77935 .69106,0 1.29908-.30701 1.7318-.77935h-3.4636z" fill="#2ca02c" opacity=".25"/>
  <path d="m138.28 888h10.622" fill="none" stroke="#716c61" stroke-linecap="round" stroke-width="1.3854"/>
  <path d="m162.29 888h7.7354" fill="none" stroke="#716c61" stroke-linecap="round" stroke-width="1.3854"/>
  <path d="m171.99 888h2.0782" fill="none" stroke="#716c61" stroke-linecap="round" stroke-width="1.3854"/>
  <path d="m134.93 888.33a2.3668 2.3668 0 0 1 -4.7336 0 2.3668 2.3668 0 1 1 4.7336 0z" fill="#5f8dd3" opacity=".25"/>
  <path d="m132.56 885.98c-1.1532 0-2.0988 0.81307-2.3091 1.905h4.6181c-0.21022-1.0919-1.1558-1.905-2.3091-1.905z" fill="#fc0" opacity=".25"/>
  <path d="m134.12 888.1a1.0391 1.0391 0 0 1 -2.0782 0 1.0391 1.0391 0 1 1 2.0782 0z" fill="#fff6d5" opacity=".25"/>
  <path d="m130.81425,889.91493c.43318.48038 1.034.77935 1.7318.77935 .69106,0 1.29908-.30701 1.7318-.77935h-3.4636z" fill="#2ca02c" opacity=".25"/>
  <path d="m158.86 888.33a2.3668 2.3668 0 0 1 -4.7336 0 2.3668 2.3668 0 1 1 4.7336 0z" fill="#330080" opacity=".25"/>
  <path d="m156.49 885.96c-1.3071 0-2.3668 1.0597-2.3668 2.3668s1.0597 2.3668 2.3668 2.3668c0.39679 0 0.76837-0.11601 1.0968-0.28863-1.1218-0.0296-2.0204-0.94922-2.0204-2.0782 0-1.1382 0.91467-2.0628 2.0493-2.0782-0.33528-0.18214-0.71711-0.28863-1.1256-0.28863z" fill="#d4aa00" opacity=".25"/>
  <path d="m158.67547,888.12007-.66257-.0633-.28959.59929-.14456-.6497-.65944-.0902 .57323-.33825-.11797-.65504 .49883.44064 .58654-.31461-.26494.61058z" fill="#fae17a" opacity=".25"/>
  <path d="m156.99623,889.57436-.22451-.26095-.32272.11984 .17881-.29417-.2137-.26988 .33502.0792 .19064-.28664 .0282.34308 .33152.0927-.31756.13289z" fill="#fae17a" opacity=".25"/>
  <path d="m193.71 847.98c1.4178 9.7981 1.4006 13.024 1.3558 15.572-0.0452 0.58955 0.44953 1.1673 1.039 1.2126s1.1671-0.4499 1.2124-1.0394c0.20966-2.8125 0.0933-4.0269-0.98053-13.003-0.87569-0.93254-1.7318-1.8625-2.6266-2.742zm5.6861 6.119c0.88262 8.3484 0.63509 5.9365 0.60525 10.406-0.13143 0.61459 0.35763 1.2877 0.98274 1.3527s1.242-0.49331 1.2398-1.1218c0.74666-7.0681 0.28115-0.24762-0.31671-7.6058-0.82582-1.033-1.664-2.0448-2.5111-3.0306zm5.5418 6.9272c0.38155 3.9944 0.191 3.985-0.11629 5.3833-0.24264 0.57579 0.10529 1.3238 0.70196 1.5093s1.3073-0.23359 1.4339-0.84549c0.18556-1.02 0.81205-1.1187 0.52037-2.4104-0.83302-1.2348-1.6791-2.4503-2.54-3.6368zm5.1088 7.6199c0.0148 4.4094-0.37066 9.0121-1.3277 13.912-0.18242 0.59898 0.2431 1.3086 0.8574 1.4298s1.2774-0.37342 1.3362-0.99678c0.7352-3.7642 1.145-7.3608 1.2989-10.824-0.70722-1.194-1.4324-2.3624-2.1648-3.5213zm4.0986 6.8407c-0.0231 3.4046-0.31431 6.8078-1.0102 10.189-0.1209 0.58188 0.29843 1.2213 0.88031 1.3422s1.2212-0.29851 1.3421-0.8804c0.45886-2.2293 0.75867-4.4463 0.92363-6.6674-0.69965-1.3446-1.4051-2.6738-2.1359-3.9832zm3.6368 6.956c0.0554 2.6022 0 5.1564-0.23091 7.6199-0.0526 0.58946 0.43531 1.1738 1.0247 1.2268s1.1738-0.4353 1.2267-1.0247c0.0966-1.0401 0.15767-2.0863 0.20209-3.1462-0.7196-1.5793-1.4608-3.1347-2.2225-4.6759zm3.8677 8.3993c-0.0489 1.0082-0.0877 2.0552-0.14427 3.0306-0.0305 0.83967 1.1101 1.4469 1.7895 0.95254-0.53257-1.3405-1.0822-2.6639-1.6453-3.9831z" fill="#716c61" opacity=".75"/>
  <path d="m205.89345,882.85666-.84798-.12257c-.0286-.47696-.0822-.83773-.16182-1.08212s-.1668-.37352-.26222-.38737c-3.0161-1.41426-6.28186-2.70207-9.92142-2.04113-.0813-.012-.19941.0804-.3531.27756s-.31348.53367-.47974,1.01026l-.84807-.12247c.601-2.2036.5841-3.78937.81196-5.61982l.84817.12257c.0286.47696.0841.83791.1669,1.08286s.17189.37425.2673.38802c1.4064-.10382 2.81281.45497 4.21922.5587l.72348-5.00671c-1.4065-.12598-2.81291-.63259-4.21932-.5587-.0813-.012-.19941.0804-.3531.27764s-.31348.53358-.47973,1.01026l-.84817-.12256c.58807-1.23849.8489-3.13147.81205-5.61982l.84808.12257c.0286.47705.084.83801.1669,1.08286s.17198.37435.26729.38811c3.21155-.19184 6.50197.77668 9.92152,2.04122 .0813.012.19766-.0813.34784-.27838s.30849-.53432.47474-1.01101l.84799.12257c-.2963,2.44549-.4802,3.53648-.81196,5.61972l-.84808-.12247c-.0286-.47706-.0822-.83773-.16173-1.08222s-.1668-.37351-.26221-.38728c-1.37436-.59749-2.79287-1.10669-4.37384-1.29086l-.72339,5.00671c1.45795.24033 2.91589.44427 4.37384,1.29086 .0813.012.19747-.0794.34719-.27321s.30822-.53265.47539-1.01617l.84799.12256c-.009.79294-.47401,3.69692-.81197,5.61982z" fill="#716c61" opacity=".75"/>
 </g>
</svg>
